<svg xmlns="http://www.w3.org/2000/svg" viewBox="0 0 80.71 80.71"><defs><style>.cls-1{fill:#828662;}.cls-2{fill:#fff;}</style></defs><g id="Layer_2" data-name="Layer 2"><g id="Layer_1-2" data-name="Layer 1"><circle class="cls-1" cx="40.36" cy="40.36" r="40.36"/><path class="cls-2" d="M53.48,56.81H38.8C36.92,56.69,36,55,34.56,54.16c-.5-.31-.23-1.07.57-1.18a1.72,1.72,0,0,1,1.7.87,3.33,3.33,0,0,0,2.93,1.45H52.53c1,0,1.9-.27,1.94-1.5s-.69-1.65-1.79-1.66c-.57,0-1.29,0-1.28-.74s.76-.83,1.4-.82h.62A1.48,1.48,0,0,0,55.14,49c0-1-.62-1.48-1.58-1.57-.63-.06-1.59.23-1.57-.77s1-.78,1.72-.78c1.09,0,1.88-.39,1.89-1.56s-.76-1.62-1.86-1.59c-.56,0-1.14-.05-1.16-.72s.61-.84,1.22-.83c1.12,0,1.85-.49,1.8-1.64s-.87-1.52-2-1.5c-1.77,0-3.53,0-5.3,0-2.22,0-3.19-1-3.25-3.24,0-1.41,0-2.81-.05-4.21a2.93,2.93,0,0,0-.76-2.14,2.55,2.55,0,0,0-2.6-.65c-.95.23-.38,1.13-.44,1.72-.09.93,0,1.87-.08,2.8a3.71,3.71,0,0,1-1.83,3.22,7.5,7.5,0,0,0-3,4c-.53,1.47-1.23,2.76-3.16,2.65-1,0-.63.78-.63,1.26,0,3.64,0,7.28,0,10.91,0,2,0,2-2,2a19.78,19.78,0,0,1-4.81-.07,24.92,24.92,0,0,0-6.3-.76.64.64,0,0,1-.66-.71.72.72,0,0,1,.79-.77c1.09,0,2.18,0,3.27,0,.72,0,1-.2,1-1,0-3.58,0-7.17,0-10.75,0-.81-.34-.95-1-.92-1,0-2,0-3,0-.59,0-1.09-.18-1.09-.83s.57-.75,1.13-.74H22.5c.54,0,1.08.12,1.44-.57.26-.49,7.81-.59,8.22-.19a1.52,1.52,0,0,1,.32.69c.1.36-.1.87.57.89a1.3,1.3,0,0,0,1.34-.59A7.81,7.81,0,0,0,35,38.71a8.51,8.51,0,0,1,3.37-4.36,2.65,2.65,0,0,0,1.27-2.46c0-1.2.06-2.4,0-3.59a1.78,1.78,0,0,1,1.67-2,4.17,4.17,0,0,1,5.28,4.18c0,1.4.11,2.8,0,4.2s.58,1.94,2,1.88c1.71-.08,3.43-.05,5.14,0,2.92,0,4.3,2.37,2.88,4.9-.27.48-.35.77,0,1.19a2.57,2.57,0,0,1,.43.82c.59,1.52-1.09,2.69-.89,3.78.27,1.45.68,2.68-.34,3.9a.91.91,0,0,0-.22,1.17C56.6,54.46,55.85,56,53.48,56.81ZM25.32,47.64c0,1,0,2,0,3,.06,1.38-.6,3.2.26,4s2.67.11,4.05.26C30.8,55,31,54.5,31,53.47c-.07-2.85,0-5.7,0-8.55,0-1.43.64-3.39-.28-4.16s-2.77-.16-4.2-.28c-1-.09-1.18.37-1.16,1.25C25.36,43.7,25.32,45.67,25.32,47.64Z"/><path class="cls-2" d="M39.25,23.4c0,.47-.13.77-.48.89a.71.71,0,0,1-.93-.34c-.72-1.31-1.45-2.63-2.15-3.95a.75.75,0,0,1,.16-1c.26-.21.6-.34.84-.05A27.89,27.89,0,0,1,39.25,23.4Z"/><path class="cls-2" d="M49.67,20c-.68,1.2-1.5,2.68-2.36,4.14a.6.6,0,0,1-.84.15c-.34-.19-.59-.53-.39-.9.77-1.46,1.58-2.89,2.41-4.32a.57.57,0,0,1,.82-.15C49.6,19.07,49.77,19.3,49.67,20Z"/><path class="cls-2" d="M43.23,20.43v2.16c0,.54-.19.93-.77.92a.76.76,0,0,1-.76-.82q0-2.24,0-4.47a.75.75,0,0,1,.88-.83c.53.05.65.42.65.88Z"/><path class="cls-2" d="M36.08,26.42c0,.64-.39,1-.87.78-1.37-.7-2.68-1.52-4-2.33a.66.66,0,0,1-.15-.85.61.61,0,0,1,.75-.39A21.62,21.62,0,0,1,35.92,26C36,26.12,36,26.32,36.08,26.42Z"/><path class="cls-2" d="M54.34,24.31a2.13,2.13,0,0,1-.08.32A17,17,0,0,1,50,27.29a.8.8,0,0,1-.72-.5.64.64,0,0,1,.25-.82c1.22-.77,2.44-1.55,3.71-2.25C53.74,23.42,54.17,23.71,54.34,24.31Z"/><path class="cls-2" d="M28.21,53.69c-.51,0-.84-.22-.87-.69a.75.75,0,0,1,.77-.81.75.75,0,0,1,.1,1.5Z"/></g></g></svg>