<?xml version="1.0" encoding="UTF-8"?>
<!DOCTYPE svg PUBLIC "-//W3C//DTD SVG 1.1//EN" "http://www.w3.org/Graphics/SVG/1.1/DTD/svg11.dtd">
<svg xmlns="http://www.w3.org/2000/svg" version="1.1" width="512px" height="512px" style="shape-rendering:geometricPrecision; text-rendering:geometricPrecision; image-rendering:optimizeQuality; fill-rule:evenodd; clip-rule:evenodd" xmlns:xlink="http://www.w3.org/1999/xlink">
<g><path style="opacity:0.986" fill="#000000" d="M 86.5,16.5 C 103.606,14.1471 114.439,21.1471 119,37.5C 119.333,106.5 119.667,175.5 120,244.5C 123.714,263.881 135.214,275.714 154.5,280C 171.304,282.016 184.971,276.516 195.5,263.5C 199.526,267.195 203.526,270.862 207.5,274.5C 186.482,305.897 177.316,340.564 180,378.5C 182.602,382.212 186.102,383.378 190.5,382C 192.815,380.891 194.315,379.057 195,376.5C 194.162,346.347 200.829,318.014 215,291.5C 217.257,287.988 219.757,284.654 222.5,281.5C 239.506,282.283 253.506,276.283 264.5,263.5C 281.766,282.74 301.433,285.574 323.5,272C 333.321,264.192 338.821,254.025 340,241.5C 359.862,221.305 380.028,201.471 400.5,182C 412.687,174.653 425.354,173.653 438.5,179C 446.37,186.87 447.536,195.704 442,205.5C 402.685,264.509 365.352,324.842 330,386.5C 320.833,401 309,412.833 294.5,422C 287.602,427.961 283.435,435.461 282,444.5C 281.667,457.167 281.333,469.833 281,482.5C 279.622,487.208 276.788,490.708 272.5,493C 222.225,494.653 171.892,494.986 121.5,494C 116.667,491.833 113.167,488.333 111,483.5C 109.733,464.877 109.066,446.21 109,427.5C 107.804,422.777 105.804,418.443 103,414.5C 83.1333,395.768 71.4667,372.768 68,345.5C 67.3333,242.167 67.3333,138.833 68,35.5C 71.0174,25.9839 77.1841,19.6505 86.5,16.5 Z"/></g>
<g><path style="opacity:0.974" fill="#000000" d="M 156.5,135.5 C 172.018,134.325 182.185,140.991 187,155.5C 187.667,185.167 187.667,214.833 187,244.5C 181.168,260.962 169.668,267.128 152.5,263C 143.735,259.237 138.235,252.737 136,243.5C 135.333,214.5 135.333,185.5 136,156.5C 139.016,145.652 145.849,138.652 156.5,135.5 Z"/></g>
<g><path style="opacity:0.974" fill="#000000" d="M 224.5,135.5 C 239.74,133.939 249.907,140.272 255,154.5C 255.667,184.833 255.667,215.167 255,245.5C 248.799,261.518 237.299,267.351 220.5,263C 210.836,259.006 205.336,251.839 204,241.5C 203.333,213.833 203.333,186.167 204,158.5C 206.121,146.55 212.954,138.883 224.5,135.5 Z"/></g>
<g><path style="opacity:0.972" fill="#000000" d="M 291.5,161.5 C 309.035,159.233 319.868,166.566 324,183.5C 324.954,204.551 324.621,225.551 323,246.5C 316.564,261.468 305.397,266.968 289.5,263C 280.93,260.096 275.43,254.263 273,245.5C 272.333,223.833 272.333,202.167 273,180.5C 275.991,171.01 282.158,164.676 291.5,161.5 Z"/></g>
</svg>
