<svg xmlns="http://www.w3.org/2000/svg" viewBox="0 0 33.79 34.72"><defs><style>.cls-1{fill:#828662;fill-rule:evenodd;}</style></defs><g id="Layer_2" data-name="Layer 2"><g id="Layer_1-2" data-name="Layer 1"><path class="cls-1" d="M17.54,25.26c0-.17.22-.56-.12-.7s-.45.33-.53.48a.34.34,0,0,0,.18.51c.27.1.42-.11.47-.29ZM6.05,23.38a1.74,1.74,0,0,0-.5.14.23.23,0,1,0,.25.37c.08-.07.17-.21.25-.21a3.14,3.14,0,0,0,.85.08.59.59,0,0,1,.72.27c.09.12.7-.28.82-.53s-.42.16-.3-.14a9.26,9.26,0,0,1,1.6-1.64,4,4,0,0,0,1.54-1.12c.16-.39.42-.77.26-.86s-.83,1.3-1.68,1.54c-.48.13-1.23,1.06-1.3,1.13a3.3,3.3,0,0,1-2.51,1Zm0-8c-.38,1.2-.76,2.39-1.13,3.59,0,0,0,.7.25.15A39.59,39.59,0,0,0,6.5,15.26c.15-.48-.44.1-.44.1ZM7.74,21c-.18-.31-1.57.41-1.52.62S8.06,21.33,7.74,21ZM29.86,6.46c-.58.46-1.18.9-1.75,1.38a3.08,3.08,0,0,1-1.95.76A2.54,2.54,0,0,0,24,9.76a3.57,3.57,0,0,1-2.11,1.5,2.69,2.69,0,0,0-1.19.66,1.54,1.54,0,0,1-1.16.63.51.51,0,0,0-.51.7.93.93,0,0,1-.17.93,6.49,6.49,0,0,0-.71,1.18,2.7,2.7,0,0,1-1.38,1.4c-.36.19-.72.36-1.09.54-.22.56,2-.28,2.44-1.18.62-1.17,1.51-2.12,2.19-3.23a2.61,2.61,0,0,1,1.55-1.22A4,4,0,0,0,24.21,10a2.47,2.47,0,0,1,2.14-1.13,2.71,2.71,0,0,0,1.43-.42c.8-.52,2.64-2,2.08-2ZM18.24,12.8c.27.06.33-.18.36-.38s-.16-.52-.29-.46-.56,0-.63.5.39.3.56.34Zm-14.11,1a4.63,4.63,0,0,1,1.3-2,6.29,6.29,0,0,0,1-1.28A2.4,2.4,0,0,1,8.19,9.1c.42-.06,1.4-1,1.08-1.17-.11-.13-.62.4-.91.56a2.49,2.49,0,0,1-.65.33,1.75,1.75,0,0,0-1.16.89A7.71,7.71,0,0,1,5.71,11a10.53,10.53,0,0,0-2.44,3.69c.14.47.76-.42.86-.82ZM2,18.75c0,.27-.07.54-.13,1.07.09.82.37-.65.52-.82s.42-.22.6-.37.21-.69,0-.76c-.56-.18-.45-.53-.34-.89.15-.51.34-1,.51-1.5.06-.31-.18-.18-.24-.1a3.36,3.36,0,0,0-.76,2.13A10.23,10.23,0,0,1,2,18.75ZM15.88,5.83c.12-.2.26-.4.37-.62.27-.51.51-1,.77-1.54.23-.33-.17-.57-.37-.22s-.34.75-.51,1.07S15.6,5.89,15.88,5.83Zm0,.36c-.37-.06-.59,1.62-.24,1.55C15.79,7.23,16.11,6.22,15.89,6.19ZM9.27,22.77c-.35.2-.29.39.08.26a3.63,3.63,0,0,1,.56-.09c.28-.27-.4-.32-.64-.17Zm7.4-4.39v0h0ZM0,19.36a8.84,8.84,0,0,0,2.42,5.53c1,.6,1.86,1.34,3.13,1a3.19,3.19,0,0,1,1.27,0A2.84,2.84,0,0,0,9,25.28a14.32,14.32,0,0,0,4.21-3.77.48.48,0,0,1,.14-.09l1.49,1.16c.24.17-.13.59-.26.85a10.81,10.81,0,0,0-.7,2.15,11.14,11.14,0,0,0-.43,3.5,5.71,5.71,0,0,0,1,2.94c.55.79,1.07,1.65,2.16,1.8.12,0,.21.13.32.19a5.73,5.73,0,0,0,1.55.55A7,7,0,0,0,22,34.42a6.63,6.63,0,0,0,3.29-2,27.42,27.42,0,0,0,2.91-3.81,25.86,25.86,0,0,0,2.12-4.16,17.25,17.25,0,0,0,1.16-5.17A16.41,16.41,0,0,0,31.1,13a1.67,1.67,0,0,1,.34-1.65,3.11,3.11,0,0,0,.6-.95,30.6,30.6,0,0,1,1.09-3.09,7.1,7.1,0,0,0,.65-2.87c0-.76-1-1-1.81-1-1.63.12-3.24.31-4.85.56-.41.06-.8.19-1.21.26a24.7,24.7,0,0,0-6,1.46c-.39.16-1.6,1.09-1.3.25A9.46,9.46,0,0,0,18.43.61.84.84,0,0,0,17.08.19c-.42.26-.77.49-1.13.7A82.61,82.61,0,0,0,6.36,7.47a14.88,14.88,0,0,0-4,4.67c-.25.49-.54,1-.77,1.46A12,12,0,0,0,0,19.36Zm13.12-.48c-.32.41-1-1.11-1.2-1.53a4.22,4.22,0,0,1-.18-2.83,7.31,7.31,0,0,1,1.12-2.78,6.82,6.82,0,0,1,2.59-2.4c.44-.28.31.24.33.37a.73.73,0,0,1-.09.59,15.43,15.43,0,0,1-1.32,1.63,5,5,0,0,0-1.69,3.57c-.06.73.37,2.13.83,1.46s1.21-3.59,1.35-4.07.78-1,.85-1.11c.41-.61.8-1.24,1.24-1.85a1.41,1.41,0,0,1,1.59-.74A1.83,1.83,0,0,0,19.9,9a24.72,24.72,0,0,0,3.51-1.71.76.76,0,0,1,.6-.12,5.35,5.35,0,0,0,1.87.19c.36,0,.62.22.21.36-1.77,0-3,1-4.4,1.89-.13.1-1.45,1.38-1.71,1.64l-2.24-.35c-.24,0-.47.72-.71,1.06A1.22,1.22,0,0,0,16.8,13a1.42,1.42,0,0,1-.48,1.48,24.52,24.52,0,0,1-1.72,1.81,1.88,1.88,0,0,0-.66,1.15c-.14.71-.1,1-.81,1.42Zm1.3-6.18-1.06,2.88c-.26.49-.25-.4-.19-.54.28-.73.62-1.44,1-2.16,0-.06.31-.46.3-.18Zm8.25,20c-.15,0-1.18.45-1.26.47-.89.29-3.12.47-2.88,0,1.09-.37,3.69-.73,3.91-.82s.31-.15.42,0,0,.31-.19.35Zm4-13.78a4.16,4.16,0,0,1,.34-1.59c.14-.33.5-1.05.13-1.1a9.35,9.35,0,0,0-.92,3.23A8.91,8.91,0,0,1,26,21.09c0,.17-.26.63-.48.58a7.15,7.15,0,0,1,0-1.27c.13-.53.42-1,.51-1.56s-.07-1,.21-1.46a1.48,1.48,0,0,0,.22-.73,4.81,4.81,0,0,1,.95-2.35c.29-.23.15.45.18.65.12,1,.26,2,.34,3a4.71,4.71,0,0,1-.46,2.33.73.73,0,0,1-.37.32.76.76,0,0,1-.47,0,.42.42,0,0,1-.14-.32,3.29,3.29,0,0,1,.08-.62,4.52,4.52,0,0,0,.16-.73ZM26,23.87a1.46,1.46,0,0,0,.47-1.13c0-.46.06-.92.08-1.36,1.64-1,1.29-.59,1.61-2.43a5.14,5.14,0,0,0,0-1.75,20.27,20.27,0,0,1-.23-3,6.46,6.46,0,0,1,.19-1.33c.2-.32.45,0,.56.18a1.35,1.35,0,0,1,.18,1.08,9.13,9.13,0,0,0-.24,1.45c0,.6.75,1.12.7,1.43-.22.73-.45,1.49-.69,2.24a1.52,1.52,0,0,0,0,1.11,1.82,1.82,0,0,1,0,1.48,10.23,10.23,0,0,1-1.83,3.23,1.86,1.86,0,0,0-.59,1.34,1.86,1.86,0,0,1-1.07,1.71,3.63,3.63,0,0,0-1.57,2.19,2,2,0,0,1-1.14,1.55,4.91,4.91,0,0,1-1.3.46c-.17,0-.59,0-.56-.13a1.48,1.48,0,0,1,.67-.94c.33-.25.63-.55.95-.82a2.23,2.23,0,0,0,.72-1.3c.05-.2.08-.41.12-.61a7.58,7.58,0,0,1,1.78-2.3A3.39,3.39,0,0,0,25.39,25,2.29,2.29,0,0,1,26,23.87Zm4.52-5.78a17.69,17.69,0,0,1-1.28,5.78,8.29,8.29,0,0,0-.25.85,16.53,16.53,0,0,1-2.44,4.67l-1.69,2c-.5.43-1.5,1.32-1.61.67a17.26,17.26,0,0,0,.86-1.88,3.49,3.49,0,0,1,1.21-1.58,2.79,2.79,0,0,0,1.43-2.36,1,1,0,0,1,.4-.89A2.74,2.74,0,0,0,28.57,23a2.77,2.77,0,0,1,.58-1.11,1.11,1.11,0,0,0,.14-1,4.09,4.09,0,0,1-.37-1.45,1.63,1.63,0,0,0,.48-1.13,2.94,2.94,0,0,1,.31-1.08.86.86,0,0,0-.22-1l0,0a1.11,1.11,0,0,1-.34-1.44,2.82,2.82,0,0,0-.06-2c-.13-.39-.17-.8-.28-1.29,0-.33-.44-.08-.71.09a3.84,3.84,0,0,0-1.5,1.44A6.1,6.1,0,0,1,25,15a4.52,4.52,0,0,0-1.39,1.61,1.49,1.49,0,0,1-1.31.87,2,2,0,0,0-1.87,1.26,1.85,1.85,0,0,1-.47.58A2.79,2.79,0,0,0,19,20.88a5,5,0,0,1-.82,1.55,1.11,1.11,0,0,1-.61.42,3.37,3.37,0,0,0-1.21.9,1.62,1.62,0,0,0-.4.62c-.23.68-.42,1.37-.61,2.06a2.64,2.64,0,0,0-.06,1.5,1.38,1.38,0,0,1,.06.5,5.89,5.89,0,0,0,.7,2.73c.22.31.27-.16.26-.33a.62.62,0,0,0,0-.25c-.55-.95-.38-2-.63-3a1.63,1.63,0,0,1,0-.76c.2-.81.44-1.62.68-2.42a6.07,6.07,0,0,1,1.39-1.12,2.74,2.74,0,0,0,1.44-1.83,4.35,4.35,0,0,1,1.17-1.91,3.48,3.48,0,0,0,.55-.84,1.32,1.32,0,0,1,1.1-.74,2.48,2.48,0,0,0,2.18-1.48,2.17,2.17,0,0,1,.63-.78A9.46,9.46,0,0,0,27,13.26c.41-.29.14.41.07.56a12.08,12.08,0,0,1-.65,1.36c-.43.77-.55.84-1.67,1.49-.41.23-1.83,2.43-3,2.92l-.14.08h0a1.83,1.83,0,0,0-.86.78c-.24.37-.73,1.52-1,1.95a6.59,6.59,0,0,0-.8,2.46,2.13,2.13,0,0,1,0,.25,3.08,3.08,0,0,1-.72,1.31,5.27,5.27,0,0,0-.58.66,1.56,1.56,0,0,0-.28.91,5.93,5.93,0,0,0,0,1.45A9.53,9.53,0,0,0,17,31.29c.2.29.36-.3.41-.41a1.94,1.94,0,0,0,.1-.49A1.86,1.86,0,0,1,18.37,29a2.94,2.94,0,0,1,.41-.31c1.22-.55,1.54-1.71,1.88-2.84a.8.8,0,0,0,.05-.5c-.35-.81.08-1.57.1-2.36a1.05,1.05,0,0,1,.93-1c.44-.11,1,0,1.33-.39a10.62,10.62,0,0,1,.8-1.46,10.3,10.3,0,0,0,1.47-3,4,4,0,0,1,.49-.69c.33-.23.29.35.21.52a4.89,4.89,0,0,0-.35,1.72,3.77,3.77,0,0,1-.23,1A3.92,3.92,0,0,0,25.15,21a1.8,1.8,0,0,1-.86,1.47,5.45,5.45,0,0,1-.68.35,3.48,3.48,0,0,0-1.48,2h0a1.54,1.54,0,0,0,0,.48A2.89,2.89,0,0,1,21.82,27a8.35,8.35,0,0,0-.46,1.17,1.22,1.22,0,0,1-1,.89,2.47,2.47,0,0,0-.84.22,3,3,0,0,0-.69.87c-.32.58-.59,1.36-.29,1.46s.43-.79.58-1.21a1.18,1.18,0,0,1,.95-.9,1.88,1.88,0,0,0,1.6-1.39,2.06,2.06,0,0,1,.22-.59c.11-.13.35-.14.51-.25s2.09-3.68,2.29-4A3.19,3.19,0,0,1,25.82,22c.31-.29.29.3.27.44-.06.33-.06.75-.26.95a4.6,4.6,0,0,0-1,2c-.09.27-.25.61-.47.7a2.78,2.78,0,0,0-.85.75,4.38,4.38,0,0,0-.84,1.56,3.89,3.89,0,0,0-.19.71,1.43,1.43,0,0,1-1,1.31c-.56.16-.79.66-1,1.05a2.11,2.11,0,0,1-1.74,1.09.89.89,0,0,0-.81.49c-.12.22-.4.23-.67.14a2.51,2.51,0,0,1-1.05-.66c-.08-.1-.14-.21-.21-.31-.5-.76-1.21-1.4-1.23-2.42a14.37,14.37,0,0,1,0-2.63,16.11,16.11,0,0,1,2-5.44,12.31,12.31,0,0,1,.9-1.36A28.89,28.89,0,0,1,22.93,15c.58-.43,1.12-.9,1.68-1.35a30.93,30.93,0,0,1,4.17-3c.44-.06.62.57.73,1.09a10.32,10.32,0,0,1,.33,2.35,1.46,1.46,0,0,0,.43,1.26.44.44,0,0,1,.1.23,21.1,21.1,0,0,1,.13,2.51ZM20.08,25a2.8,2.8,0,0,1-.49,2.49,4.07,4.07,0,0,1-2,1.53,5.36,5.36,0,0,1,0-.71,2.63,2.63,0,0,1,.85-1.61,2.42,2.42,0,0,0,.74-1.56A6.54,6.54,0,0,1,20,22.65c.32-.59.92-1.78.92-1.78a2.27,2.27,0,0,1,.95-.88s.73-.42,1.05-.64c.17-.12,1.56-2,1.95-2.28a9.33,9.33,0,0,1-1.06,2.47,6.73,6.73,0,0,0-.54,1,1.56,1.56,0,0,1-1.32,1,1.59,1.59,0,0,0-.61.17,1.26,1.26,0,0,0-.78.93c-.1.58-.29,1.14-.43,1.71a1.11,1.11,0,0,0,0,.62Zm4.34-2.12a12.39,12.39,0,0,1-.63,1.32,22.44,22.44,0,0,1-1.36,2.47c0-.56,0-1.12,0-1.68a2.15,2.15,0,0,1,.27-.94l.31-.37c.42-.52.42-.52,1.42-.8Zm-5.26-6.59c.79-1,2.47-3,4.24-3.06.19.2-.3.49-.46.6-1.55,1.09-2.7,2.63-4.27,3.91-.24-.08.21-1.08.49-1.45ZM18.18,8c.52-.25,1-.56,1.53-.82.33-.17,1.94-.63,2.3-.75A22,22,0,0,1,24.69,6c1,.1,1.83-.54,2.8-.65s1.89-.39,2.84-.59a8.68,8.68,0,0,1,1.23-.26c.51,0,1.36.06,1.24.61A27.22,27.22,0,0,1,31.68,8a22.13,22.13,0,0,1-1.19,2.66c-.21.74-.32-.27-.46-.39l-.52-.43c.6-.66.82-1.56,1.54-2.14.15-.13.16-.46.21-.71s.12-.68,0-.72a1.3,1.3,0,0,0-.15.2,7.08,7.08,0,0,1-1.55,2.65,1.3,1.3,0,0,1-.58.46c-.26.1-.58,0-.84.12a5.46,5.46,0,0,0-.82.47c-.35.2.23-.73-.27-.47a8.72,8.72,0,0,0-.71.53,5.06,5.06,0,0,0-1.45,1.39,2.22,2.22,0,0,1-1.62,1.09,9.75,9.75,0,0,0-2.42,1.18,30.19,30.19,0,0,0-2.37,2.69.73.73,0,0,0-.12.34,1.29,1.29,0,0,1-.88,1c-.28.12-1.59.32-.8.48l1.43-.25c.35.12-.5,1.16-1.05,1.42a17,17,0,0,1-1.66.56c-.43.56.86-.11,1.29.09.08.33-.22.49-.37.72s-.3.4-.44.59c-.46.56-2.57-1-2.3-1.46A13.42,13.42,0,0,1,14,18.48a8.67,8.67,0,0,0,.46-1,2.34,2.34,0,0,1,.7-1,19.11,19.11,0,0,0,1.73-2,1.9,1.9,0,0,0,.3-1.2,2,2,0,0,1,.69-1.84c.48.07,1,.14,1.47.23a1.26,1.26,0,0,0,1.16-.36,20.55,20.55,0,0,1,3.8-2.8,2,2,0,0,1,1.07-.3c.9,0,2.44-.65,2.31-1l-.79-.13c-.26-.13.79-.95,1.36-.77,1.07.34,1.63-.34,2.26-.94,0,0,.11-.18-.05-.15a1.08,1.08,0,0,0-.31.07,4.38,4.38,0,0,1-.95.59,2.94,2.94,0,0,1-1-.1,1.26,1.26,0,0,0-.95.24,7.09,7.09,0,0,1-.75.45C25.7,7,24,6.54,24,6.55s-1.61.67-2.32,1.07c-.48.29-1.6.87-1.89,1a1.38,1.38,0,0,1-1.31,0,3.94,3.94,0,0,0-1-.08c-.23-.28.39-.41.72-.56ZM1.51,16.18a12.34,12.34,0,0,1,2.42-4.67,25.12,25.12,0,0,1,4.7-4.57,16.1,16.1,0,0,1,1.79-1.16,16.17,16.17,0,0,0,2.33-1.49,7.94,7.94,0,0,1,1.06-.68,3.79,3.79,0,0,0,1.37-1A7,7,0,0,1,17,1.29c.14-.09.58-.4.65,0,.11.76.28,1.5.36,2.13,0,.11-.58,2.44-.9,3.48A4.21,4.21,0,0,1,15.65,8.2a28.52,28.52,0,0,0-3.07,3.05S11.36,13.5,11.12,14a4.17,4.17,0,0,0-.43,2.19,4.54,4.54,0,0,1-1,3.4c-.16.2-.59,1.19-.16.73A7.27,7.27,0,0,0,11,18.21c.34.34,1.3,1.62,1.51,1.84.22.4-1.85,2.64-1.91,2.71a9.55,9.55,0,0,1-3.65,2,8.29,8.29,0,0,1-2.05-.15,6.19,6.19,0,0,1-2-1.23,3,3,0,0,1-1-1.41,7.18,7.18,0,0,1-.52-3.33,16.25,16.25,0,0,1,.23-2.5Zm6.75-5.51c-.11.11-.21.3-.35.34-.65.17-1.53.76-1.57,1a1.46,1.46,0,0,1-.61,1.34c-.3.23-.62.44-.91.69a2,2,0,0,0-.59.63,8,8,0,0,0-.7,3.16,5.59,5.59,0,0,1-.37,2.71,1.59,1.59,0,0,0-.15.86c.27,1.89.5,1,.5.35a3.36,3.36,0,0,1,.29-1.94c.16-.24.08-.66.06-1a12.18,12.18,0,0,1,.45-3.6,1.1,1.1,0,0,1,.53-.81,4.42,4.42,0,0,0,1.93-2.1,1.61,1.61,0,0,1,1.16-.9,1.89,1.89,0,0,0,1.3-.89,12.43,12.43,0,0,0,.9-1.37A2.84,2.84,0,0,1,11.3,7.9a2.5,2.5,0,0,0,.64-.58c.48-.49,1.48-1,1.47-.63a8.51,8.51,0,0,1-1.2,1.48,5,5,0,0,0-1.1,1.68,4.5,4.5,0,0,1-1.17,1.77,11.08,11.08,0,0,0-2.62,2.86c-.24.32.27.27.27.39,0,.59-.07,1.17,0,1.75a1.75,1.75,0,0,1-.17,1,4.46,4.46,0,0,0-.62,1.64c0,.17-.2.36-.35.49s-.55.39-.81.6c-.1.08-.49.65,0,.43.65-.42,1.4-.77,1.66-1.59A7.34,7.34,0,0,1,8,17.28a.44.44,0,0,0,.09-.35c-.28-.63,0-1.25-.05-1.88A2.18,2.18,0,0,1,8.94,13c.49-.4,1-.81,1.43-1.25A3.44,3.44,0,0,0,11.43,10a2.88,2.88,0,0,1,.89-1.49A12.08,12.08,0,0,0,14.2,6.32c.13-.26.48-.54.43.08a3.23,3.23,0,0,1-.8,1.95c-.27.3-1.19,1.57-1.24,1.66a10.76,10.76,0,0,1-2.19,2.65c-.41.26-.91.87-.88,1.22a39.53,39.53,0,0,1-.32,4.49A3.19,3.19,0,0,1,8.68,20c-.09.14-.42.84-.07.54a2.64,2.64,0,0,0,.82-1.64,9.63,9.63,0,0,1,.29-1.62,11.56,11.56,0,0,0,.19-2.87,3.34,3.34,0,0,1,1.46-2.27,9.77,9.77,0,0,0,1.19-1.46c.1-.3,2-2.49,2.2-3.29s.22-1.51.41-2.24.76-1.28.93-2c.35-.92-.24-.57-.35-.44A6.78,6.78,0,0,1,12.64,5a1.64,1.64,0,0,0-.54.32c-.21.2-.36.46-.56.68A4.52,4.52,0,0,1,11,6.5a7.14,7.14,0,0,1-.64.43c-.29.62,1.2-.38,1.59-.87a1.8,1.8,0,0,1,.74-.65c.54-.21,1.07-.47,1.64-.73.3-.1,0,.29,0,.38a2.9,2.9,0,0,1-1.39,1.22,3.18,3.18,0,0,0-1.35.91,2.29,2.29,0,0,1-.58.49A2.62,2.62,0,0,0,9.88,8.89a7.37,7.37,0,0,1-.43.78c-.18.28-.34.56-.74.62-.16,0-.3.24-.45.38Z"/></g></g></svg>