<svg xmlns="http://www.w3.org/2000/svg" viewBox="0 0 44.76 45.21"><defs><style>.cls-1{fill:#fff;}</style></defs><g id="Layer_2" data-name="Layer 2"><g id="Layer_1-2" data-name="Layer 1"><path class="cls-1" d="M23.77,12.43c-1-.06-1.95-.09-2.92-.2a4,4,0,0,0-3.61,1.32c-2.88,3.25-6.51,4-10.63,3.35a25.78,25.78,0,0,0-3.83-.15C.51,16.71-.49,15.28.23,13.1a11.49,11.49,0,0,1,10.88-8,11.18,11.18,0,0,0,7.71-2.5C23-.66,27.72-.6,32.46,1.37,34.33,2.15,34.93,4,34.14,6,32.31,10.47,29.09,12.47,23.77,12.43Zm-14,3.48c3-.25,4.34-.82,6-2.41,1-.93,1.85-2,3.26-2.23a.85.85,0,0,0,.71-1.09c-.16-.75-.77-.37-1.15-.24a15.59,15.59,0,0,0-1.82.82c-.4.2-.83.84-1.23.25s.36-.9.74-1.19a8,8,0,0,1,4.88-1.17c2.56,0,2.56-.07,2.63-2.52,0-.29-.07-.65.36-.72a.57.57,0,0,1,.67.47c.13.53.23,1.07.36,1.6.08.31-.08.87.49.75,2.7-.55,5.43-1.1,7.32-3.34.65-.76.75-1.65-.69-1.7-1.24,0-2.49,0-3.9,0a11.52,11.52,0,0,1,.5,1.44c.1.47.74,1.13-.09,1.38S28,5.36,27.9,4.93c-.34-1.46-1.18-1.65-2.42-1.19a17.72,17.72,0,0,0-2.57.9C22,5.19,20.15,5,20.68,7c.06.23-.45.56-.66.29-.72-.89-1.12-.12-1.61.23A12.86,12.86,0,0,1,14.7,9.47c-.38.11-.94.11-1,.61-.16,1.26-.54,1.09-1.13.25-.19-.28-.52-.26-.83-.25a34,34,0,0,0-6.38.48,5.79,5.79,0,0,0-4.05,2.86c-.65,1.26-.13,2.16,1.29,2.23,1,0,2,0,3.08,0-.35-1.05-.7-1.95-.93-2.88-.09-.39-.43-1.07.33-1.19.54-.08.58.5.71.9.22.69.45,1.38.71,2,.51,1.31,1.39.74,2.26.46,1.26-.42.29-1,.14-1.51s-.36-.79-.44-1.2-.36-1.1.27-1.25.6.56.79,1c.4.88.39,2.66,2.15,1.2a.41.41,0,0,1,.63.11.57.57,0,0,1-.15.81C11.5,14.65,10.84,15.13,9.79,15.91Zm3.8-7.23A11.72,11.72,0,0,0,18.3,6.24c.3-.26.77-.49.3-1s-.59-.72-1.2-.32a4.67,4.67,0,0,1-2.12,1C13.46,6,13.24,7,13.59,8.68ZM30.7,2a12,12,0,0,0-6.46-.6c-.49.09-1.27,0-1.12.77s.65,1,1.5.77A24.08,24.08,0,0,1,30.7,2ZM10.46,9c1.74.43,1.92-.53,2-1.88.06-1.07-.47-.92-1.16-1-1.83-.25-1.87.95-2,2.22S10.08,8.9,10.46,9Zm18-.29c-.9.18-1.66.38-2.42.48-1.07.14-1,1-.93,1.64.06.87.84.39,1.25.36C27.78,11.1,28.53,10.33,28.49,8.72ZM22.62,3.67c-.53-2-1.52-1.48-2.46-.75-.44.34-1.63.54-1,1.32C20.52,5.87,21.3,3.55,22.62,3.67Zm-17,5.67c2.8-.28,2.8-.28,2.55-2.65C6.84,7,5.45,7.32,5.66,9.34Zm17.2.25c-.62.44-2.17-.5-2,1.06.14,1.11,1.39.49,2.13.64,1,.2,1.11-.57,1.08-1.25C24.07,9,23.32,9.7,22.86,9.59Zm6.54.53A6.52,6.52,0,0,0,32,7.55C30.37,7.76,29.47,8.28,29.4,10.12Z"/><path class="cls-1" d="M37.76,30.78a8.23,8.23,0,0,1-3.38-.48,9.43,9.43,0,0,0-6.93-.25,9.68,9.68,0,0,1-10.7-3.6c-2.27-3.36-.92-6.92,3-7.88a9.65,9.65,0,0,1,8.78,1.73c1,.77,1.84.88,2.59-.3a1.54,1.54,0,0,1,.82-.68c3.46-.69,7-1.53,10.31.32,2,1.09,2.86,3.93,2.31,6.48a6.06,6.06,0,0,1-5.34,4.57C38.72,30.75,38.17,30.76,37.76,30.78Zm3.79-2.07a4,4,0,0,0,2-4.07c-1.4,1-2.56,1.95-2.23,3.78l-.15.35ZM20.24,23.23a.51.51,0,0,0-.78-.08l.59.3a7.58,7.58,0,0,0,6.64,1.49c1-.18,1.61-.54,1.83-1.46A2.37,2.37,0,0,0,27.78,21c-1.82-1.63-6.52-2.26-8.66-1.13-.57.29-.72.57-.26,1.07a5.13,5.13,0,0,0,2,1.28,11.44,11.44,0,0,0,4.32.47c.53,0,1.47-.39,1.46.5s-.95.5-1.5.56A13.62,13.62,0,0,1,20.24,23.23Zm22,1.08a1.76,1.76,0,0,0-1.35,0c-2.34.36-4.62.33-6.65-1.12-.35-.25-.77-.63-.5-1.06s.73-.16,1.07.13c1.6,1.34,3.52,1.23,5.4,1.07,1-.08,2.52-.3,2.61-1.28C43,20.8,41.56,20.29,40.4,20c-2.17-.58-4.35-.22-6.53,0-1.95.22-2.35.72-2,2.56.09.48.67,1.17-.15,1.37s-.7-.68-.9-1.15,0-.9-.64-.89-.41.57-.52.93c-.45,1.43.08,1.94,1.54,2,1.26.06,2.51.53,3.77.63C37.38,25.63,39.91,26.24,42.25,24.31ZM23,29.13c0-.31,0-.61.06-.9.05-.45-.19-1.15.5-1.19.93-.05.58.78.55,1.22-.05.93.34,1.11,1.18,1.07a10.89,10.89,0,0,0,3.53-.82c1.09-.43,1-1.48.82-2.34-.17-1-1-.4-1.47-.32-2.62.45-5.21.66-7.63-.73-.9-.52-1,0-1.12.68C19.14,27.77,19.9,28.5,23,29.13Zm12.46.33a6.9,6.9,0,0,0,3.23.16,2,2,0,0,0,1.56-2.35c-.1-1.29-1.16-.53-1.71-.53A27.42,27.42,0,0,1,32.23,26c-.45-.11-1.46-.69-1.43.59,0,.76-.66,1.93,1,1.89a5.83,5.83,0,0,1,1.77.37c.64.21,1.06.11,1.19-.6.1-.48.16-1.13.82-.89s.26.83.18,1.28A5.4,5.4,0,0,1,35.47,29.46ZM17.06,21.63a4.4,4.4,0,0,0,1.12,4.82C18.71,24.05,18.71,24.05,17.06,21.63Z"/><path class="cls-1" d="M9,45.21c-3.17-.16-5.7-1.05-7.66-3.21-1.49-1.65-1.29-3.37.47-4.7a10.55,10.55,0,0,1,13.76.41,2.62,2.62,0,0,1,.49,3.62A7.85,7.85,0,0,1,9,45.21ZM3,42c3.82,3.4,11.22,2.5,12.11-1.75-.63.07-1.23.12-1.83.2-.4.06-.78,0-.87-.41s.37-.56.71-.63c.66-.13,1.34-.23,2.11-.36-4.08-3.64-8.79-3.93-12.73-.89-.54.42-1.17.91-1,1.6s.91.71,1.49.91c1.58.55,3.14.16,4.7-.07.39-.06.92-.32,1,.33s-.49.64-.86.72A15.6,15.6,0,0,1,3,42Z"/><path class="cls-1" d="M21.76,33.64a9.06,9.06,0,0,1,7.11,4.23c1.24,1.79.8,3.36-1.2,4.3-3.8,1.77-8.1,1.35-10.1-3.44C15.84,34.59,16.31,33.67,21.76,33.64Zm-3,4.77c1.73,3.84,5.39,4.77,8.9,2.43-.39-.83-2.15-.67-1.78-1.66s1.26.28,2,.28a.94.94,0,0,0,.32-.11c-.86-3.51-7.46-6.19-10.27-4.15-.63.46-.54,1,.14,1.46a5.25,5.25,0,0,0,2.06.66c1.2.16,2.39.4,3.59.63.35.07.83.17.73.62s-.54.51-1,.39A13.57,13.57,0,0,0,18.72,38.41Z"/></g></g></svg>