<svg xmlns="http://www.w3.org/2000/svg" viewBox="0 0 39.34 50.28"><defs><style>.cls-1{fill:#fff;}</style></defs><g id="Layer_2" data-name="Layer 2"><g id="Layer_1-2" data-name="Layer 1"><path class="cls-1" d="M31.85,0a4.77,4.77,0,0,1,1.27,4c-.17,1.17.23,1.7,1.49,1.55a7.74,7.74,0,0,1,2.15,0c1.5.24,2.55,1,2.55,2.69q0,15,0,30c0,.58,0,1.36-.77,1.28-1-.09-.79-1-.79-1.71q0-14,0-28A2.78,2.78,0,0,0,33.6,7.2c-.59.25-.45.72-.48,1.14A2.5,2.5,0,0,1,30.52,11a2.38,2.38,0,0,1-2.64-2.52c0-1-.42-1.39-1.41-1.28a16,16,0,0,1-2,0c-1.17,0-2.27-.29-2.26,1.65A2.34,2.34,0,0,1,19.65,11a2.38,2.38,0,0,1-2.57-2.22C17,7.1,16.18,7.06,15,7.16a9,9,0,0,1-1.37,0c-1.25-.07-2.24-.11-2.24,1.72,0,1.4-1.2,2.14-2.6,2.08A2.29,2.29,0,0,1,6.31,8.68c0-2.54-1.89-1.29-3-1.47C2,7,1.48,7.77,1.58,9.09a25.23,25.23,0,0,1,0,2.75.77.77,0,0,1-.9.8c-.48,0-.64-.38-.64-.82A35.17,35.17,0,0,1,.1,7.71,2.53,2.53,0,0,1,2.59,5.6a10.86,10.86,0,0,1,2.35,0C6,5.68,6.36,5.23,6.23,4.23A5,5,0,0,1,7.5,0H9.86a3.56,3.56,0,0,1,1.65,2.46c.29,3.13.34,3.13,3.58,3.12a1.7,1.7,0,0,1,.39,0c1.19.2,1.69-.25,1.48-1.47A4.3,4.3,0,0,1,18.5,0h2.35c.72.88,1.55,1.62,1.57,2.94,0,2.64.11,2.64,2.81,2.64a3.87,3.87,0,0,1,.59,0c1.56.26,2.28-.28,2-2A3.35,3.35,0,0,1,29.49,0Zm-11,5.54h0c0-1,.06-2,0-2.93a1.05,1.05,0,0,0-1.18-1,1,1,0,0,0-1,1c-.06,1.89-.07,3.78,0,5.66a1.12,1.12,0,1,0,2.23,0C20.86,7.37,20.81,6.45,20.81,5.54Zm-13-.15c0,1,0,2,0,2.94a1,1,0,0,0,.93,1.05A1,1,0,0,0,9.9,8.31c0-1.89,0-3.78,0-5.68a1,1,0,0,0-.93-1A1,1,0,0,0,7.86,2.65C7.83,3.56,7.85,4.48,7.85,5.39Zm23.65.2c0-1,0-2,0-2.94a1,1,0,0,0-1.11-1.06.94.94,0,0,0-.94,1c0,1.89,0,3.79,0,5.68a1,1,0,1,0,2,0C31.51,7.42,31.5,6.5,31.5,5.59Z"/><path class="cls-1" d="M19.72,50.27H3.23C.9,50.26,0,49.41,0,47.09q0-15.3,0-30.62c0-.67-.32-1.73.65-1.78,1.15-.07.88,1.05.88,1.78,0,10,0,20,0,30,0,1.7.47,2.26,2.22,2.25q15.9-.1,31.8,0c1.74,0,2.36-.55,2.2-2.26-.11-1.23,0-2.48,0-3.73,0-.54.06-1.09.76-1.14s.79.52.79,1.06c0,1.7.09,3.41,0,5.1-.12,1.85-1.32,2.5-3.08,2.49C30.71,50.25,25.21,50.27,19.72,50.27Z"/><path class="cls-1" d="M23.9,22.15H16.65c-1.53,0-2.61-.7-2.67-2.23a2.34,2.34,0,0,1,2.61-2.53q7.45-.08,14.89,0c1.54,0,2.73.78,2.68,2.47s-1.24,2.3-2.82,2.29Zm0-1.61c2.41,0,4.82,0,7.23,0,.55,0,1.33.13,1.4-.67S31.9,19,31.3,19q-7.23,0-14.46,0c-.6,0-1.27.13-1.18.93s.74.61,1.24.61C19.24,20.55,21.58,20.54,23.93,20.54Z"/><path class="cls-1" d="M24,31.84c-2.48,0-5,0-7.44,0A2.21,2.21,0,0,1,14,29.71a2.24,2.24,0,0,1,2.37-2.54q7.73-.11,15.46,0a2.21,2.21,0,0,1,2.33,2.38c0,1.54-1,2.31-2.56,2.3C29.05,31.83,26.5,31.84,24,31.84Zm0-1.56h7.24c.57,0,1.32.07,1.32-.75s-.69-.83-1.31-.83H17c-.61,0-1.27,0-1.29.84s.74.73,1.28.73C19.29,30.29,21.64,30.28,24,30.28Z"/><path class="cls-1" d="M24.11,41.63c-2.48,0-5,0-7.44,0-1.67,0-2.84-1-2.69-2.4a2.36,2.36,0,0,1,2.63-2.3H31.47c1.62,0,2.71.77,2.67,2.42s-1.19,2.32-2.8,2.3C28.93,41.61,26.52,41.63,24.11,41.63ZM24,40.06h7c.65,0,1.47.11,1.47-.82,0-.76-.73-.76-1.34-.75H16.91c-.6,0-1.29,0-1.26.82s.75.75,1.32.75Z"/><path class="cls-1" d="M8.22,39.05c1.11-1.34,2.17-2.66,3.29-3.92.38-.43.71-1.33,1.53-.7s.13,1.16-.26,1.64c-1.2,1.47-2.44,2.9-3.62,4.39-.84,1.06-1.54,1.11-2.19-.15-.15-.29-.39-.54-.52-.83-.27-.6-1.09-1.26-.13-1.83s1,.44,1.45.9C7.88,38.69,8,38.82,8.22,39.05Z"/><path class="cls-1" d="M8.18,19.6c1.14-1.38,2.27-2.72,3.39-4.07.43-.52.92-1.13,1.59-.5s0,1.06-.36,1.5c-1.2,1.46-2.4,2.92-3.63,4.36-.45.52-1,1.38-1.69.54s-1.71-1.74-1.44-3c.1-.48.75-.49,1.13-.11A11.55,11.55,0,0,1,8.18,19.6Z"/><path class="cls-1" d="M13.36,25.44a9,9,0,0,1-.57.84c-1.2,1.46-2.44,2.89-3.62,4.37-.83,1-1.52,1.14-2.19-.12-.25-.46-.53-.89-.8-1.34s-.52-1,.11-1.33a.79.79,0,0,1,1.14.43c.68,1.42,1.15.59,1.7-.1C10,27.07,11,26,11.89,24.9c.24-.29.54-.62,1-.38A.84.84,0,0,1,13.36,25.44Z"/></g></g></svg>