<svg xmlns="http://www.w3.org/2000/svg" viewBox="0 0 56.99 43.07"><defs><style>.cls-1{fill:#fff;}</style></defs><g id="Layer_2" data-name="Layer 2"><g id="Layer_1-2" data-name="Layer 1"><path class="cls-1" d="M57,17.5c-.51.41-1,1.19-1.52,1.16-2.49-.15-2.24,1.66-2.53,3.17-.7,3.69-1.45,7.38-2.16,11.07-.14.74-.17,1.7-1.14,1.57-1.28-.17-.72-1.3-.6-2,.81-4.5,1.71-9,2.61-13.56H5.47c1.3,6.58,2.6,13.12,3.87,19.67.41,2.14,1.87,2.6,3.75,2.6,6.15,0,12.29,0,18.43,0,4.08,0,8.15-.07,12.22,0,2.36.06,3.85-.75,4.25-3.17.11-.67.26-1.51,1.13-1.3s.75,1.08.59,1.84C49.1,41.48,47.48,43,44.48,43q-15.88.1-31.76,0C9.53,43,8,41.58,7.36,38.23,6.23,32.52,5.18,26.79,4.09,21.07c-.23-1.19-.21-2.46-2.11-2.33a1.85,1.85,0,0,1-1.83-1.9c0-1.55-.72-3.37,1-4.5A4.8,4.8,0,0,1,5,12a.73.73,0,0,1,.52.87c-.12.81-.79.75-1.37.77-1.14,0-2.43-.34-2.34,1.66.06,1.31.34,1.87,1.75,1.78,1.84-.11,3.7-.08,5.55,0,1.36.05,2.53.08,2.13-1.87-.08-.38.19-.83.39-1.57-1,0-2,0-2.87,0a.92.92,0,0,1-1-.76c-.07-.65.44-.87,1-1a1.34,1.34,0,0,1,.66,0c3.57.81,5.75-1.19,7.85-3.66s4.28-4.51,6.38-6.79a3.42,3.42,0,0,1,4.18-1c.34.14.65.45,1,.23,2.48-1.43,4,.08,5.5,1.74,2.56,2.76,5.25,5.42,7.79,8.21a3.61,3.61,0,0,0,3.06,1.34c2.66-.09,5.33.05,8,0A5.43,5.43,0,0,1,57,13.05Zm-39.38-.57H39.48a6.21,6.21,0,0,0-6.62-3.34,45,45,0,0,1-8.61,0A6.21,6.21,0,0,0,17.61,16.93Zm-3.34.13c.6,0,1-.54,1.46-1q5.5-5.76,11-11.53c.59-.62,1.48-1.29.59-2.22s-1.7-.36-2.42.4Q22,5.76,19.1,8.79q-2.75,2.88-5.52,5.74a1.57,1.57,0,0,0-.5,1.79A1.26,1.26,0,0,0,14.27,17.06ZM30.83,1.86a1.19,1.19,0,0,0-1.27.69c-.35.75.12,1.25.59,1.74,3.76,3.94,7.52,7.9,11.29,11.84.61.64,1.3,1.44,2.23.59s.29-1.71-.4-2.43l-11-11.51C31.86,2.36,31.51,1.86,30.83,1.86Zm-8.42,9.77H34.69c-1.94-2-3.63-3.77-5.29-5.55-.53-.56-.93-.83-1.6-.1C26.12,7.82,24.37,9.59,22.41,11.63Zm23,2a6,6,0,0,1,.4,1.83c-.25,1.47.44,1.68,1.7,1.62,2.06-.1,4.12-.08,6.18,0,1.14,0,1.62-.32,1.53-1.5-.07-.95.18-2-1.34-1.95C51.14,13.68,48.36,13.65,45.45,13.65Z"/><path class="cls-1" d="M21.73,35.17c-.15,1.46-.74,2.45-2.07,2.72a2.32,2.32,0,0,1-2.95-1.73c-.76-3.45-1.35-6.94-1.88-10.43a2.39,2.39,0,0,1,2-2.77,2.23,2.23,0,0,1,2.89,1.74C20.52,28.22,21.1,31.78,21.73,35.17Zm-1.95-.45c-.49-2.89-1-5.95-1.54-9-.09-.51-.34-1.1-1-1s-.75.61-.64,1.22c.57,3,1.12,6.09,1.67,9.13.09.56.24,1.09.9,1S19.8,35.39,19.78,34.72Z"/><path class="cls-1" d="M42.31,25.63c-.63,3.49-1.18,7.06-2,10.58a2.3,2.3,0,0,1-3,1.67,2.39,2.39,0,0,1-2-2.81c.5-3.35,1.08-6.69,1.76-10a2.42,2.42,0,0,1,2.89-2.13A2.6,2.6,0,0,1,42.31,25.63Zm-5,9c0,.57-.31,1.32.51,1.47s.87-.54,1-1.15q.8-4.47,1.63-8.92c.12-.59,0-1.1-.59-1.25s-.91.43-1,.92C38.33,28.64,37.83,31.63,37.33,34.6Z"/><path class="cls-1" d="M31.16,30.73c0,1.47.06,2.95,0,4.42s-.81,2.73-2.53,2.76S26,36.77,26,35.09c-.06-3.09,0-6.18,0-9.28,0-1.71.88-2.91,2.63-2.89s2.56,1.25,2.59,2.95S31.16,29.11,31.16,30.73Zm-1.77-.22V26.08c0-.62-.09-1.31-.81-1.34s-.88.65-.88,1.27c0,3,0,5.91,0,8.87,0,.62.12,1.3.91,1.23s.77-.78.77-1.38Z"/></g></g></svg>