<svg xmlns="http://www.w3.org/2000/svg" viewBox="0 0 80.71 80.71"><defs><style>.cls-1{fill:#828662;}.cls-2{fill:#fff;}</style></defs><g id="Layer_2" data-name="Layer 2"><g id="Layer_1-2" data-name="Layer 1"><circle class="cls-1" cx="40.36" cy="40.36" r="40.36"/><path class="cls-2" d="M40,54c.11-1.42.73-1.6,1.73-.65S43.42,55,44.3,55.85c.54.5,1.17.89,1.87.24s.44-1.4-.15-2c-.79-.81-1.62-1.59-2.41-2.4-.41-.44-1.1-.9-.38-1.57s1.15.09,1.58.49c.79.71,1.52,1.48,2.28,2.23.58.58,1.23,1.1,2,.36s.41-1.41-.21-2l-2.41-2.39c-.41-.41-.9-.9-.42-1.44s1.15-.11,1.61.33c.82.78,1.62,1.59,2.42,2.39.56.55,1.23.87,1.88.29s.5-1.39-.13-2L47,43.52c-.45-.45-1.13-1-.57-1.58.71-.78,1.25,0,1.73.48,1.42,1.39,2.88,2.74,4.2,4.22.84.92,1.37.82,2.12,0A29.33,29.33,0,0,1,57.06,44c.51-.46,1-1.54,1.87-.65s-.23,1.24-.66,1.71c-.88.93-1.81,1.8-2.71,2.7-.74.74-1.61,1.38-1.67,2.59a1.12,1.12,0,0,1-.53.87c-2.16.59-2.79,2.85-4.46,4.07A14.5,14.5,0,0,0,45.24,59c-1.39,2.2-3.19,2.69-5,.87-1.19-1.22-1.93-1.8-3.37-.19s-3.31.81-4.51-.79a33.71,33.71,0,0,0-4.26-4.36c-1.43-1.32-2.55-3-4.18-4.1a1.19,1.19,0,0,1-.28-1.16c1.31-2.14-.31-4.06-.39-6.09a4.55,4.55,0,0,0-3.22-3.83c-2.48-.8-3.69-2.75-5.47-4.17-.33-.27-.45-1-1.13-.67V33.2c.72-.52,1.28-.28,1.83.32s1.29,1.3,2,1.95c1.15,1.12,2.2,2.9,3.86.52a.72.72,0,0,1,1.13,0,.71.71,0,0,1,0,1.11c-1.24,1-.27,1.55.37,2.14,1.47,1.35,2.89,2.64,2.49,5-.13.8.3,1.81,1.53.85a3.25,3.25,0,0,1,.37-.21c2.08-1.13,3,1.32,4.59,1.47,2,.18,3,.91,3.38,3a5.22,5.22,0,0,0,2.8,3.41A7.71,7.71,0,0,1,39.61,54c.11.54.46,1.16.3,1.61-.56,1.6.64,2.27,1.49,3.14.6.62,1.32.86,2,.13s.3-1.31-.24-1.84C42.14,56,41.06,55,40,54Zm-10.94-.87c1,.08,4.26-3.15,4.13-4-.18-1.14-1-1.45-1.84-.8a18.32,18.32,0,0,0-3,3C27.6,52.18,28.24,52.77,29.06,53.09Zm8.15,1.24c-1,0-3.4,2.39-3.38,3.26A1.1,1.1,0,0,0,35,58.77c.86,0,3.3-2.4,3.28-3.26A1.09,1.09,0,0,0,37.21,54.33Zm-2-1.56c-.12-.66-.59-1.21-1.29-1A4.74,4.74,0,0,0,31,54.6c-.29.73.33,1.2,1,1.32S35.24,53.65,35.21,52.77Zm-7-6.52c-.79-.06-2.85,1.84-2.92,2.7s.3,1.36,1,1.23a4,4,0,0,0,2.91-2.68C29.51,46.82,28.93,46.36,28.2,46.25Z"/><path class="cls-2" d="M68.15,37.44c-.52.48-1.21.87-1.51,1.46-1.19,2.29-4,1.62-5.59,3.21-.25.25-.73,0-.91-.29a.83.83,0,0,1,.29-1.12c1.26-.87.67-1.49-.17-2.25-2.2-2-4.38-4-6.48-6.15-.74-.73-1.23-.79-1.84,0-.17.23-.44.37-.6.6-1.41,2-2.87,2.06-5,.77C43.52,32,40.22,33,37.14,33c-1.53,0-2.23,1.8-3.35,2.75-.85.72-1.2,1.67-.33,2.57s1.66.41,2.48-.17c1.06-.75,1.88-1.71,3.37-2,3.09-.67,4.27,1.49,5.78,3.27a.73.73,0,0,1,0,1.12.71.71,0,0,1-1.11,0c-.63-.57-1.26-1.15-1.83-1.78-1.25-1.36-2.62-1.1-4-.28-.6.36-1.08.91-1.67,1.32a3.11,3.11,0,0,1-4.39-.44,3,3,0,0,1,.09-4.22,25.26,25.26,0,0,1,2.25-2.26c.84-.75,1-1.26-.22-1.76s-2.45-.73-3.37-1.73c-.55-.59-.86.07-1.18.37-1.42,1.39-2.79,2.82-4.24,4.18-.5.45-1,1.59-1.85.66s.33-1.35.8-1.83c1.62-1.69,3.26-3.36,5-4.94,1-.91.94-1.57-.05-2.39-.76-.63-1.42-1.38-2.12-2.09-.41-.41-.85-.9-.27-1.42s1.11-.11,1.46.34c1.34,1.69,4,2.59,3.4,5.45a.62.62,0,0,0,.3.51c2.22,1,4,2.89,6.56,3.1,1.77.15,3.56.05,5.34,0a5.58,5.58,0,0,1,2.85.7c2.32,1.25,4.29.08,4.57-2.66a2,2,0,0,1,.38-1.16c2-2.08,4.09-4.13,6.15-6.17a.88.88,0,0,1,1.33-.1c.51.49.13.93-.21,1.27-1.65,1.67-3.26,3.36-5,4.93-1,.87-1,1.38,0,2.3q4.35,3.92,8.49,8.05c.94.94,1.41.77,2.33,0s1.36-2.73,3.28-1.83Z"/></g></g></svg>