<svg xmlns="http://www.w3.org/2000/svg" viewBox="0 0 29.91 51.64"><defs><style>.cls-1{fill:#fff;}</style></defs><g id="Layer_2" data-name="Layer 2"><g id="Layer_1-2" data-name="Layer 1"><path class="cls-1" d="M27.45,0c1.91,1.34,2.47,3.16,2.46,5.48-.09,13.69,0,27.39-.05,41.08,0,3.81-1.26,5.07-5.05,5.07H4.68C1.44,51.62,0,50.23,0,47c0-14.1,0-28.2,0-42.3A5.37,5.37,0,0,1,2.44,0Zm.81,24.34c0-5-.08-9.94,0-14.91,0-1.59-.46-1.84-1.9-1.82-7.65.07-15.31.08-23,0C1.89,7.58,1.59,8,1.6,9.48q.1,14.82,0,29.62c0,1.39.16,2.2,1.8,1.94.49-.08,1.15,0,1.1.8a.82.82,0,0,1-1,.78C1.29,42.19,1.6,43.69,1.63,45c0,.67,0,1.34,0,2,0,2.27.74,3,3,3,6,0,12-.05,17.93,0s5.72,0,5.72-5.78c0-1.34-.38-1.65-1.67-1.64-6,.07-12.09,0-18.13,0a9,9,0,0,1-1.79-.17.66.66,0,0,1-.55-.73.7.7,0,0,1,.65-.65A14.35,14.35,0,0,1,8.41,41c6,0,12.08,0,18.13,0,1.44,0,1.77-.41,1.75-1.79C28.21,34.28,28.26,29.31,28.26,24.34ZM14.74,6.05H26.22c2.17,0,2.39-.23,2-2.38C28,2,26.87,1.57,25.32,1.57c-6.91,0-13.82,0-20.74,0a4.34,4.34,0,0,0-1.2.06c-1.85.57-1.86,2.1-1.73,3.61S3,6,3.66,6C7.35,6.09,11.05,6.05,14.74,6.05Z"/><path class="cls-1" d="M14.81,44a2.35,2.35,0,0,1,2.43,2.28A2.15,2.15,0,0,1,15,48.61a2.17,2.17,0,0,1-2.36-2.22A2.36,2.36,0,0,1,14.81,44Z"/><path class="cls-1" d="M16.54,4.58c-.44,0-.77,0-1.1,0-.53,0-1.18,0-1.23-.73s.65-.88,1.25-.94a4.1,4.1,0,0,1,1,0c.82.12,2.21-.42,2.13,1C18.52,5.06,17.18,4.37,16.54,4.58Z"/></g></g></svg>