<svg xmlns="http://www.w3.org/2000/svg" viewBox="0 0 50.77 36.49"><defs><style>.cls-1{fill:#fff;}</style></defs><g id="Layer_2" data-name="Layer 2"><g id="Layer_1-2" data-name="Layer 1"><path class="cls-1" d="M0,13.62A11.69,11.69,0,0,1,.58,9.5C1.44,6.93,3,6.33,5.34,6.69a21.41,21.41,0,0,1,8.56,3.74c.33.21.5.24.71-.14A15.44,15.44,0,0,1,22,3.58a14.56,14.56,0,0,0,4.7-3.3c.32-.34.55-.4.91,0a15.89,15.89,0,0,0,5.06,3.48A14.39,14.39,0,0,1,38.21,8a.59.59,0,0,0,.9.17,19.67,19.67,0,0,1,5.77-2.27A7.65,7.65,0,0,1,46,5.72a3.63,3.63,0,0,1,4.21,2.86,15.92,15.92,0,0,1,.56,6,35.22,35.22,0,0,1-2.66,11.16,20.13,20.13,0,0,1-4.72,7.17,8.57,8.57,0,0,1-6.17,2.65,9.16,9.16,0,0,1-3.76-.76,1.12,1.12,0,0,0-1,0A13.22,13.22,0,0,1,21,34.31a.93.93,0,0,0-1.09.07,12,12,0,0,1-4.56,1.95,8.63,8.63,0,0,1-7.87-2.48,21.63,21.63,0,0,1-5.19-8.37A33.44,33.44,0,0,1,0,13.62ZM5.19,8.48l-.07-.06,0,.05.09,0c0,.15.16.21.27.29.7.52,1.41,1,2.1,1.57a.82.82,0,0,1,.23,1.22.88.88,0,0,1-1.19.2c-.13-.07-.23-.22-.46-.15l6.1,9.24c0-1.25,0-2.47.18-3.68a1.18,1.18,0,0,0-.52-1.1c-.48-.37-.93-.76-1.4-1.14s-.58-.79-.29-1.14.67-.35,1.18,0,.9.73,1.39,1.13a23.65,23.65,0,0,1,.73-2.29c.12-.29-.06-.44-.27-.58A28.06,28.06,0,0,0,7,8.9,5.54,5.54,0,0,0,5.19,8.48ZM17.7,22.26a1.4,1.4,0,0,0-.24.06,2.09,2.09,0,0,0-1.62,2.08,1.88,1.88,0,0,0,1.56,2c.81.14.79.57.87,1.09a.07.07,0,0,0,0,.05A4.88,4.88,0,0,0,27.6,28.7l.18.33a4.85,4.85,0,0,0,8.34.41,5,5,0,0,0,.59-4,.57.57,0,0,1,.06-.52A2.24,2.24,0,0,0,36.7,22l.19-.05a2.11,2.11,0,0,0,1-3.61c-.32-.28-.16-.43.06-.64a2.09,2.09,0,0,0-.36-3.28A5.07,5.07,0,0,0,36.18,14a.67.67,0,0,1,.06-.15,2.18,2.18,0,0,0-2.05-3.43c-.5,0-1,0-1.55,0,.07-.1.08-.14.11-.16a2.3,2.3,0,0,0,.82-3,2.45,2.45,0,0,0-3-1.14c-1.15.46-2.35.75-3.52,1.13a.44.44,0,0,1-.34,0,30,30,0,0,0-3.67-1.16,2.29,2.29,0,0,0-2.75,1.24,2.56,2.56,0,0,0,.8,3c.13.1.35.2.38.05.09-.45.29-.13.38-.07a4.89,4.89,0,0,1,.52.5c.07.07.14.18.07.27s-.22.07-.3,0S22,10.9,22,11s-.4.22-.64.24c-1,.05-1.95,0-2.92,0a2.35,2.35,0,0,0-2.19,1,2.17,2.17,0,0,0,1.15,3.23c.24.06.31.14.18.39a2.16,2.16,0,0,0,.58,3.07A2.2,2.2,0,0,0,17.7,22.26ZM16,34.33a3.49,3.49,0,0,0-.34-.17,10.54,10.54,0,0,1-4.36-2.83A23.36,23.36,0,0,1,7.07,25a62.22,62.22,0,0,1-4.36-12.6c-.16-.67-.32-1.35-.49-2a1.55,1.55,0,0,0-.23.64A20.49,20.49,0,0,0,2,16.7,31.73,31.73,0,0,0,5.46,28.34a14.25,14.25,0,0,0,4.09,5A7,7,0,0,0,16,34.33ZM48.54,9.43c-.07.26-.11.46-.16.66a67.86,67.86,0,0,1-4.21,13,26.83,26.83,0,0,1-4.4,7,11.41,11.41,0,0,1-4.33,3.06c-.14.05-.35.08-.34.26s.24.18.37.22a6,6,0,0,0,1.74.18,7.24,7.24,0,0,0,4.61-1.9A17,17,0,0,0,46,26a32.57,32.57,0,0,0,2.77-10,21.19,21.19,0,0,0,.11-5A4.19,4.19,0,0,0,48.54,9.43Zm-43.93,3a1.52,1.52,0,0,0,0,.28A57.59,57.59,0,0,0,9,25a19.44,19.44,0,0,0,4,5.6,7.5,7.5,0,0,0,4.41,2.15c.14,0,.29.07.37-.08s-.06-.22-.12-.31a13.64,13.64,0,0,0-1.1-1.49A16.2,16.2,0,0,1,14.06,27a10.6,10.6,0,0,0-.8-1.44L7.59,17ZM45.68,7.59a.86.86,0,0,0-.23,0c-.12,0-.23,0-.35.06a20.09,20.09,0,0,0-5.17,2.11c-.32.17-.28.33-.12.61a18,18,0,0,1,1.75,4.32c0,.13,0,.31.21.4l2.82-4.31a.71.71,0,0,0-.45.14.81.81,0,0,1-1.14-.2.77.77,0,0,1,.12-1.14,3.47,3.47,0,0,1,.47-.39ZM41.45,24.43a54.65,54.65,0,0,0,4.73-12.55c-.22-.05-.25,0-.29.07l-3.6,5.46a1.07,1.07,0,0,0-.21.67A20.67,20.67,0,0,1,41.45,24.43Z"/><path class="cls-1" d="M17.7,22.26a2.2,2.2,0,0,1,.41-3.32,2.16,2.16,0,0,1-.58-3.07c.13-.25.06-.33-.18-.39a2.17,2.17,0,0,1-1.15-3.23,2.35,2.35,0,0,1,2.19-1c1,0,1.95,0,2.92,0,.24,0,.49,0,.64-.24s.13-.1.21,0,.19.17.3,0,0-.2-.07-.27a4.89,4.89,0,0,0-.52-.5c-.09-.06-.29-.38-.38.07,0,.15-.25,0-.38-.05a2.56,2.56,0,0,1-.8-3,2.29,2.29,0,0,1,2.75-1.24,30,30,0,0,1,3.67,1.16.44.44,0,0,0,.34,0c1.17-.38,2.37-.67,3.52-1.13a2.45,2.45,0,0,1,3,1.14,2.3,2.3,0,0,1-.82,3s0,.06-.11.16c.55,0,1,0,1.55,0a2.18,2.18,0,0,1,2.05,3.43.67.67,0,0,0-.06.15,5.07,5.07,0,0,1,1.42.43A2.09,2.09,0,0,1,38,17.73c-.22.21-.38.36-.06.64a2.11,2.11,0,0,1-1,3.61L36.7,22A2.24,2.24,0,0,1,36.77,25a.57.57,0,0,0-.06.52,5,5,0,0,1-.59,4A4.85,4.85,0,0,1,27.78,29l-.18-.33a4.88,4.88,0,0,1-9.32-1.13.07.07,0,0,1,0-.05c-.08-.52-.06-.95-.87-1.09a1.88,1.88,0,0,1-1.56-2,2.09,2.09,0,0,1,1.62-2.08A1.4,1.4,0,0,1,17.7,22.26ZM33.43,11.09a13.49,13.49,0,0,0-2.57.17,13.57,13.57,0,0,0-6,1.64c-.38.21-.69.4-.6.93a1,1,0,0,1-.13.59c-.23.36-.06.5.24.69A2.42,2.42,0,0,1,25,18.62a.42.42,0,0,0,0,.63,2.45,2.45,0,0,1-.74,3.6c-.31.18-.24.32-.15.56a2.39,2.39,0,0,1-1.66,3.26,10,10,0,0,1-3.13,0c-.44-.06-.53,0-.44.42a2.23,2.23,0,0,1,.05.36,4.25,4.25,0,0,0,8.34.31.68.68,0,0,1,.72-.63A7.69,7.69,0,0,0,31.85,26,4.15,4.15,0,0,1,35,25.05,1.42,1.42,0,0,0,36.59,24a1.53,1.53,0,0,0-.71-1.72c-.17-.12-.32-.23-.27-.45a.48.48,0,0,1,.44-.38l.46,0a1.53,1.53,0,0,0,1.43-1.32,1.51,1.51,0,0,0-1-1.55.68.68,0,0,1-.46-.51c0-.28.28-.23.43-.35s.12-.05.18-.09A1.55,1.55,0,0,0,37.94,16a1.52,1.52,0,0,0-1.31-1.26c-.29,0-.59,0-.88,0a.52.52,0,0,1-.52-.34.48.48,0,0,1,.13-.57l.15-.14a1.41,1.41,0,0,0,.42-1.54,1.44,1.44,0,0,0-1.28-1.05C34.23,11.06,33.8,11.09,33.43,11.09ZM19.73,22.91c-.69,0-1.26,0-1.82,0a1.49,1.49,0,0,0-.07,3,35.72,35.72,0,0,0,4,.2A1.69,1.69,0,0,0,23.46,25a1.78,1.78,0,0,0-.15-1.63c-.21-.37-.23-.67.22-.88a1.83,1.83,0,0,0,.65-3.13.58.58,0,0,1,0-.86,1.79,1.79,0,0,0-.7-3.06c-.46-.2-.52-.37-.25-.77a1.54,1.54,0,0,0,.31-1.07,1,1,0,0,1,.55-1,15.85,15.85,0,0,1,2-1,23.24,23.24,0,0,1,2.31-.71c-.34-.26-.31-.6-.35-.92a2.61,2.61,0,0,0-1.51-2,21.16,21.16,0,0,0-3.9-1.27,1.63,1.63,0,0,0-1.86,1.11,1.71,1.71,0,0,0,.83,2.1,2.75,2.75,0,0,1,.91.74c.27.29.26.51,0,.82a1.81,1.81,0,0,1-1.34.52l-3.3,0a1.37,1.37,0,0,0-1.13.61,1.47,1.47,0,0,0-.11,1.51,1.51,1.51,0,0,0,1.42.87,14.18,14.18,0,0,1,1.6.16l-1.07.65a1.48,1.48,0,0,0-.14,2.58,2.6,2.6,0,0,1,.33.25.42.42,0,0,1,0,.67,2.62,2.62,0,0,1-.34.24,1.46,1.46,0,0,0,.13,2.55A7.86,7.86,0,0,1,19.73,22.91Zm14.49,2.68a1.68,1.68,0,0,0-1.38.45,8.3,8.3,0,0,1-4.54,1.61c-.48,0-.43.2-.32.53a4.3,4.3,0,0,0,8.26-2.34c-.05-.2,0-.44-.37-.33A3.82,3.82,0,0,1,34.22,25.59Zm-6.6-17.8a3.12,3.12,0,0,1,1.09,1.94c.08.38.25.45.59.39a5.51,5.51,0,0,1,2-.12,1.49,1.49,0,0,0,1.57-.71,1.58,1.58,0,0,0,0-1.83,1.62,1.62,0,0,0-1.66-.79C30,7,28.85,7.41,27.62,7.79Zm3.22,2.8a1.8,1.8,0,0,0-1,.13A1.45,1.45,0,0,0,30.84,10.59Z"/><path class="cls-1" d="M5.18,8.5l-.09,0,0-.05.07.06Z"/><path class="cls-1" d="M30.84,10.59a1.45,1.45,0,0,1-1,.13A1.8,1.8,0,0,1,30.84,10.59Z"/></g></g></svg>