<svg xmlns="http://www.w3.org/2000/svg" viewBox="0 0 33.36 37.8"><defs><style>.cls-1{fill:#fff;}</style></defs><g id="Layer_2" data-name="Layer 2"><g id="Layer_1-2" data-name="Layer 1"><path class="cls-1" d="M9.79,2.27C14.58.18,16,.55,18.49,4.5a.68.68,0,0,0,.21-.1c2.07-1.95,2.2-1.93,3.07.76a24.23,24.23,0,0,1,.64,12.15,37.06,37.06,0,0,1,6.06.13c3.29.34,5.4,2.74,4.79,6-1,5-3,9.51-7.45,12.49-6.32,4.27-14.75.94-15.3-6.26-.19-2.47-.88-3.18-3.11-3.82-5-1.43-8-6.72-7.29-12A21.45,21.45,0,0,1,7.1,1C8.65-.46,8.86-.38,9.54,1.62,9.61,1.84,9.71,2.05,9.79,2.27ZM31.82,25c1.13-4.22-.28-6.19-4.38-6.51-.24,0-.48-.08-.72-.1-4-.25-7.93.25-11.32,2.73a8.91,8.91,0,0,0-3.6,9.81c1.56,5.06,7.39,7.29,12.33,4.69C28.54,33.28,30.51,29.2,31.82,25ZM8.29,1.53C4.13,4.72,1,11.09,1.15,15.79c.18,4.95,4,9.22,8.66,9.6.54,0,1,.15,1.31-.53,1.71-4.07,5-6.13,9.13-7.11a1.33,1.33,0,0,0,1.13-1.24,22,22,0,0,0-1-12,3.51,3.51,0,0,0-.48.36c-.59.64-1.19,1.27-1.74,1.94a50.25,50.25,0,0,0-7.65,13.91c-.16.4-.15,1.13-.87.88s-.35-.8-.29-1.26A51.37,51.37,0,0,0,9.65,8.17,24.68,24.68,0,0,0,8.29,1.53ZM10.93,16.2A62.12,62.12,0,0,1,16.55,7c1.2-1.55,1.13-2.36-.29-3.76S12.91,1.72,11,3a1.32,1.32,0,0,0-.71,1.63,31.87,31.87,0,0,1,.68,7C10.94,13.17,10.93,14.68,10.93,16.2Z"/><path class="cls-1" d="M26.08,29.89c.38.17.59.43.26.86a9.1,9.1,0,0,1-4.92,3.35c-.32.08-.71.07-.8-.38a.54.54,0,0,1,.44-.64,8.78,8.78,0,0,0,4.37-2.92A.62.62,0,0,1,26.08,29.89Z"/><path class="cls-1" d="M28.43,27.32c-.46.39-.21,1.61-1.29,1.35-.6-.14-.28-.79-.08-1.09.35-.48.24-1.52,1.24-1.28C28.75,26.41,28.68,26.9,28.43,27.32Z"/></g></g></svg>