<svg xmlns="http://www.w3.org/2000/svg" viewBox="0 0 91.72 91.72"><defs><style>.cls-1{fill:#a5a593;}.cls-2{fill:#fff;}</style></defs><g id="Layer_2" data-name="Layer 2"><g id="Layer_1-2" data-name="Layer 1"><circle class="cls-1" cx="45.86" cy="45.86" r="45.86"/><path class="cls-2" d="M15.37,25.39c2.19-2,4.81-.91,7.26-1a.83.83,0,0,1,.76.79.86.86,0,0,1-.64.9,6.4,6.4,0,0,1-1.64.18c-3.85.09-3.85.09-3.85,4,0,5.56,0,11.11,0,16.66,0,1.4.24,1.89,1.78,1.88q17.25-.1,34.51,0c1.37,0,1.91-.21,1.89-1.77q-.15-9.52,0-19c0-1.57-.54-1.78-1.91-1.77-8.48.05-17,0-25.46,0a12,12,0,0,1-1.9-.05c-.55-.1-1.07-.43-1-1.11s.52-.76,1-.8,1,0,1.43,0H53.56c3.34,0,3.7.38,3.71,3.67,0,.71,0,1.43,0,2.14-.11,1.32,0,2.37,1.78,2,.68-.12,1.38.16,1.41.92,0,1-.85,1-1.55,1-1.49-.19-1.66.59-1.65,1.82,0,7.46,0,14.91,0,22.37,0,.59-.47,1.56.72,1.64.94.06,1.73.13,2.21-1.16a6.05,6.05,0,0,1,6-4.2,6.34,6.34,0,0,1,6.11,4.12c.23.51.11,1.37,1.11,1.18s1-.89,1-1.64c0-3.72-.06-7.45,0-11.18,0-1.39-.59-1.51-1.71-1.49-3.09,0-6.18,0-9.28,0-2,0-2.95-.86-2.88-2.87,0-1,0-1.9,0-2.85,0-3.81.45-4.27,4.16-4.3h2C66.12,34,65,34,63.89,34c-.71,0-1.64.09-1.65-.85s.95-1,1.76-1.06a4.81,4.81,0,0,1,4.21,1.75q3.48,4.23,7,8.44a4.76,4.76,0,0,1,1.16,3.26q-.07,6.3,0,12.61c0,1.82-.6,3.12-2.47,3.49-.9.19-1.19.64-1.52,1.48a6.15,6.15,0,0,1-6,4.27,6.05,6.05,0,0,1-6.19-4.23,1.82,1.82,0,0,0-2.11-1.35c-3.09,0-6.19,0-9.28,0-.79,0-2,.32-2-1s1.27-.84,2.07-.94c.16,0,.32,0,.48,0,1.94-.16,5.13.81,5.58-.36.91-2.35.37-5.27.39-8,0-1-.83-.77-1.41-.77q-17.61,0-35.22,0c-.56,0-1.42-.3-1.43.72s.89.66,1.42.68c1.83.07,3.25.8,3.14,2.75-.09,1.78-1.44,2.5-3.21,2.39-.43,0-1.05-.23-1.27.28s.21,1.07.59,1.46c1.16,1.18,2.68.63,4.06.82S24.35,59.58,25,58c1-2.44,3.12-3.52,5.69-3.54s4.75,1,5.74,3.46a2.67,2.67,0,0,0,3.17,1.92,37.24,37.24,0,0,1,3.81,0c.72,0,1.57,0,1.54,1s-.94.88-1.63.93a10.22,10.22,0,0,1-1.66,0c-2.51-.23-4.29.09-5.79,2.84-2.38,4.35-8.92,3.6-10.93-1-.66-1.5-1.41-2-2.94-1.83a6.88,6.88,0,0,1-6.58-2.61ZM73.71,43.55l-4.48-5.44a2,2,0,0,0-1.13-.75c-4.57-1-5.84.12-5.65,4.75,0,1.16.39,1.48,1.51,1.46C67,43.51,70.12,43.55,73.71,43.55Zm-7.55,22A4.48,4.48,0,0,0,70.85,61a4.59,4.59,0,0,0-4.64-4.63,4.78,4.78,0,0,0-4.63,4.47A4.65,4.65,0,0,0,66.16,65.5Zm-35.37,0A4.6,4.6,0,0,0,35.36,61a4.68,4.68,0,0,0-4.72-4.65,4.58,4.58,0,0,0,.15,9.16Zm-12.31-10c.46-.15,1.37.24,1.36-.7,0-.62-.75-.68-1.31-.66s-1.19-.15-1.27.64S17.93,55.33,18.48,55.44Z"/></g></g></svg>