<svg xmlns="http://www.w3.org/2000/svg" viewBox="0 0 91.72 91.72"><defs><style>.cls-1{fill:#a5a593;}.cls-2{fill:#fff;}</style></defs><g id="Layer_2" data-name="Layer 2"><g id="Layer_1-2" data-name="Layer 1"><circle class="cls-1" cx="45.86" cy="45.86" r="45.86"/><path class="cls-2" d="M18.88,24.37a5,5,0,0,1,2.88-.89c3.44-.25,6.81.5,10.22.6A3.36,3.36,0,0,1,35.3,26.8c.23.87.51,1.74.67,2.63.29,1.59.6,3,2.8,2.58a.86.86,0,0,1,1.13.91c0,.76-.7.74-1.27.74H34.2c1.3,5.09,2.49,10,3.83,15,1.2,4.39.08,4.29,5.5,4.28,6.74,0,13.49,0,20.23,0,1.84,0,3.17-.3,3.39-2.45,0-.56.27-1.41,1.15-1.15s.66.84.5,1.54c-.64,2.91-1.62,3.76-4.62,3.77H38.48a17.23,17.23,0,0,0-1.9.06,1.32,1.32,0,0,0-1.28,1.39,1.42,1.42,0,0,0,1.31,1.61,11.89,11.89,0,0,0,1.69,0H67c.42,0,.84,0,1.26,0,1.55-.05,2.74.6,2.81,2.18s-1,2.35-2.58,2.39c-.69,0-1.4-.18-1.1,1a3.72,3.72,0,0,1-2,4.45,3.64,3.64,0,0,1-4-.17A3.91,3.91,0,0,1,59.76,63a2.7,2.7,0,0,0,0-.64h-16A13.21,13.21,0,0,1,44,64.52a3.94,3.94,0,0,1-4.28,3.7,3.78,3.78,0,0,1-3.56-4.32c.12-1.13.07-1.67-1.2-2a5.94,5.94,0,0,1,.14-11.41c1.29-.38,1.51-.76,1.15-2.08-1.6-5.79-3-11.62-4.54-17.44-.72-2.75-.76-2.65-3.49-2-2.54.64-5.16.27-7.75.18-.71,0-1-.67-1.57-1ZM51.09,60.61H67.47c.66,0,1.75.26,1.76-.6s-1.09-.57-1.75-.61-1.12,0-1.68,0q-14.32,0-28.63,0c-2.1,0-3.39-1-3.54-2.79A3.07,3.07,0,0,1,36.34,53c.36-.08,1.17.21.87-.7-.21-.64-.75-.52-1.23-.44a4.41,4.41,0,0,0,.5,8.74c1.29.21,2.54-.43,3.74-.24C44.07,60.92,47.92,60.38,51.09,60.61ZM37.77,64.38A2.07,2.07,0,0,0,40,66.53a2,2,0,0,0,2.23-2.24A2.08,2.08,0,0,0,40,62,2.15,2.15,0,0,0,37.77,64.38Zm28-.14A2.13,2.13,0,0,0,63.47,62a2.08,2.08,0,0,0-2.15,2.34,2,2,0,0,0,2.28,2.18A2.1,2.1,0,0,0,65.77,64.24Zm-41.7-39c-.76,0-1.53,0-2.29,0s-1.28.11-1.27,1.11.3,1.23,1.2,1.2c1.6,0,3.2,0,4.8,0,.9,0,1.22-.32,1.2-1.23s-.37-1.09-1.13-1.06S24.91,25.19,24.07,25.19Zm6.63.62c-.3.09-1.25-.41-1.28.54s1,.57,1.46.54c1.23-.07,1.77.41,1.95,1.62a27.68,27.68,0,0,0,.78,3c.12.45.45.48.81.42.54-.08.37-.41.27-.75A28.62,28.62,0,0,1,33.87,28C33.59,26.24,32.62,25.57,30.7,25.81Z"/><path class="cls-2" d="M56.86,32c4.28,0,8.55,0,12.83,0,2.62,0,3.6,1.26,3,3.76-.85,3.38-1.74,6.75-2.63,10.13-.17.65-.22,1.58-1.23,1.28s-.54-1.1-.37-1.76c.78-3.11,1.57-6.22,2.34-9.34.6-2.39.59-2.4-2-2.4H43.35c-.55,0-1.23.1-1.27-.71s.64-.95,1.31-.95H56.86Z"/><path class="cls-2" d="M40.18,38.38c-.06-.71.11-1.15.68-1.27s.8.27.91.67q1.2,4.63,2.33,9.29a.75.75,0,0,1-.61.94.8.8,0,0,1-1.06-.7C41.68,44.28,40.91,41.25,40.18,38.38Z"/><path class="cls-2" d="M61.46,46.74Q62.53,42.36,63.6,38c.12-.52.42-1,1-.89.72.12.79.75.66,1.32-.69,2.92-1.41,5.83-2.12,8.75-.16.63-.53,1-1.22.8S61.48,47.2,61.46,46.74Z"/><path class="cls-2" d="M48,38.89c0-.6-.33-1.66.74-1.75s.88,1,.95,1.72c.25,2.43.5,4.87.7,7.3.06.72.4,1.74-.74,1.84s-.88-1-1-1.69C48.41,43.88,48.23,41.44,48,38.89Z"/><path class="cls-2" d="M57.29,40.87c-.16,2-.33,3.89-.48,5.84-.05.65-.1,1.35-1,1.31s-.74-.86-.71-1.43c.17-2.64.35-5.29.58-7.92.06-.65.06-1.65,1-1.53s.8,1.09.7,1.85-.13,1.25-.2,1.88Z"/></g></g></svg>