<svg xmlns="http://www.w3.org/2000/svg" viewBox="0 0 91.72 91.72"><defs><style>.cls-1{fill:#a5a593;}.cls-2{fill:#fff;}</style></defs><g id="Layer_2" data-name="Layer 2"><g id="Layer_1-2" data-name="Layer 1"><circle class="cls-1" cx="45.86" cy="45.86" r="45.86"/><path class="cls-2" d="M44.39,69.31c-3.41-3.52-6.13-7.6-9.22-11.39-.33-.4-.83-.89-.21-1.39s1.08.16,1.42.59c2.35,3,4.67,5.93,7,8.9,2,2.59,2.92,2.58,5-.08C52,61.3,55.71,56.68,59.31,52c4.5-5.86,5.27-12.25,1.83-18.78S51.87,23.5,44.46,24a16.36,16.36,0,0,0-14.18,9.73,16.3,16.3,0,0,0,1.2,17c.7,1.07,1.54,2,2.31,3.06.3.4.62.85,0,1.24s-.89,0-1.24-.36C26.83,48.19,25.33,40.49,29,32.92a18.8,18.8,0,0,1,35.36,4.93,17.38,17.38,0,0,1-3.15,14c-4.06,5.4-8.29,10.68-12.46,16a16.75,16.75,0,0,1-1.45,1.47Z"/><path class="cls-2" d="M46.86,54.32c-8.15,0-14-5.62-14.48-12.75s5-13.31,12.57-14.15c6.52-.71,12.88,4.31,14.12,11.09a10.6,10.6,0,0,1,0,4.52c-.16.61,0,1.58-1,1.36s-.54-1.11-.42-1.71a10.55,10.55,0,0,0,0-3.8,11.86,11.86,0,0,0-12.07-10,11.93,11.93,0,0,0-2.18,23.62c5.11,1,9.16-.74,12.29-4.82.15-.19.27-.4.42-.6.36-.49.55-1.46,1.43-.84s.05,1.2-.27,1.7A12.91,12.91,0,0,1,46.86,54.32Z"/><path class="cls-2" d="M44.09,47.37a2.39,2.39,0,0,1-2-.77c-1.16-1.08-2.33-2.15-3.41-3.3a2.66,2.66,0,0,1,0-3.92,2.62,2.62,0,0,1,3.9,0c1.31,1.47,2,.81,2.9-.31,1.08-1.32,2.26-2.55,3.47-3.76A2.77,2.77,0,1,1,53,39c-2.22,2.51-4.52,5-6.8,7.4A2.55,2.55,0,0,1,44.09,47.37Zm8.37-10.21c-.27-.46-.3-.95-.84-1.18a1.37,1.37,0,0,0-1.65.36q-1.77,1.84-3.49,3.74c-2.2,2.39-2.2,2.4-4.73.43-.65-.5-1.3-.75-2-.11s-.48,1.42.17,2.05c.92.89,1.87,1.75,2.74,2.68s1.8,1,2.74,0c2-2.26,4.14-4.47,6.19-6.72A9.73,9.73,0,0,0,52.46,37.16Z"/></g></g></svg>