<svg xmlns="http://www.w3.org/2000/svg" viewBox="0 0 91.72 91.72"><defs><style>.cls-1{fill:#a5a593;}.cls-2{fill:#fff;}</style></defs><g id="Layer_2" data-name="Layer 2"><g id="Layer_1-2" data-name="Layer 1"><circle class="cls-1" cx="45.86" cy="45.86" r="45.86"/><path class="cls-2" d="M48.43,11.7a8.33,8.33,0,0,0,3.83,5.22c.91.51,1.75.81,1.47,2.09a.88.88,0,0,0,.46,1.12,1,1,0,0,0,1.25-.66c1-2.35,3.09-.91,4.67-1.23.15,0,.44.24.56.44,1,1.59-.22,5.5-1.88,6.36-2.27,1.17-4.68,2.21-5,5.26-.09.79-.76.55-1.24.57-.72,0-.83-.45-.88-1-.24-3.07,2.36-4.1,4.12-5.69a18.52,18.52,0,0,1,2.34-1.24,1.45,1.45,0,0,0,.28-2.11c-.53-.74-1,.09-1.44.45-2.4,1.92-3.93,1.27-5.57-1.45-1.23-2-3.23-3.61-4.54-5.68-.11-.17-.56-.35-.68-.27-1.57,1-3.35,1.28-5.09,1.79-2,.6-2.6,2.88-2.27,5.12a3.21,3.21,0,0,1-.14,2.08c-2.67,3.75-1.73,8-1.89,12.11,0,.86.28,1.85-.58,2.48-1.36,1-1.38,2.35-1.31,3.81,0,1.06,0,2.13,0,3.2,0,.74,0,1.4-1.06,1.43s-1.31-.44-1.19-1.29c.41-2.84-1.23-6.06,1.7-8.47.67-.55.25-1.69.27-2.56.09-3.77-.63-7.67,1.84-11a.73.73,0,0,0,.19-.48c-1.22-4.78,2.09-7.42,4.85-10.32Z"/><path class="cls-2" d="M37.83,67.57c-1.89-2.1-1-3.34.79-4.42A18.14,18.14,0,0,0,40.7,61.5c1.44-1.21,1.3-2.31-.17-3.43-.7-.53-2.13-.71-1.77-1.93s.91-3.17,1.92-3.65c2.88-1.36,4-2.72,2.13-5.84-1-1.66,1.44-3.88,3.27-4.23a29.78,29.78,0,0,0,7.46-2.75c.58-.29.45-2-.11-3a9.2,9.2,0,0,0-1-1.22c-.75-.87-1.3-2-.18-2.71s1.44.55,1.93,1.34c.67,1.09,1.79,1.8,1.8,3.39,0,4,.15,4.21-3.81,5-2.17.43-3.77,2.23-6.2,2.08a1.21,1.21,0,0,0-.25,2.33c1.62.87,1.36,1.84.42,2.9C44.71,51.38,44.68,54,42,54.61c-.91.21-.75,1.27.2,2,2.42,2,2.4,4.6-.08,6.46-1.75,1.31-3.33,2.45-2.28,5,.43,1.07-.08,1.88-1.49,1.7a15.13,15.13,0,0,0-2.13,0c-3.4,0-5.27-2-5.48-5.44-.24-4.16,2-7.88,2-12,0-.74.66-.67,1.19-.69.88,0,1,.52,1,1.2.06,2-.69,3.83-1.08,5.73a23.69,23.69,0,0,0-.92,4.67C32.88,67,33.72,67.81,37.83,67.57Z"/><path class="cls-2" d="M45.8,77.7c.54,2-.58,2.42-2.54,2.3-2.58-.15-6.42-2.93-6.56-5-.24-3.48-.19-3.53,3.29-3.42A6.56,6.56,0,0,1,45.8,77.7Zm-3.3.18c.65,0,1.09,0,1.18-.6.22-1.47-1.11-1.83-1.83-2.63a2.44,2.44,0,0,0-2.61-.78A.72.72,0,0,0,38.88,75,8.54,8.54,0,0,0,42.5,77.88Z"/></g></g></svg>