<svg xmlns="http://www.w3.org/2000/svg" viewBox="0 0 44.51 40.08"><defs><style>.cls-1{fill:#828662;}</style></defs><g id="Layer_2" data-name="Layer 2"><g id="Layer_1-2" data-name="Layer 1"><path class="cls-1" d="M17,17.45c.12.15.27.29.43.11,3-3.55,6.69-3,10.53-2,.69.17,1.33.69,2.26.42a5,5,0,0,0-4.4-2.55c-4.12-.31-6.74-3.13-6.59-7.14C19.4,2.62,22.42,0,26.37,0A18.53,18.53,0,0,1,44.51,18.43a6.26,6.26,0,0,1-3.73,6.08c-1.13.53-1,1-.61,1.88a16.58,16.58,0,0,1,1.38,7.2A6.7,6.7,0,0,1,28.17,34c-.29-3.88-1.89-5.47-5.79-5.78A6.76,6.76,0,0,1,16.73,19c.19-.48,1-.87.36-1.56ZM40,32.81A17.2,17.2,0,0,0,23.6,16.36a5.32,5.32,0,0,0-5.78,5,5.3,5.3,0,0,0,5.05,5.36c4.37.43,6.41,2.46,6.81,6.77A5.18,5.18,0,1,0,40,32.81Zm-4.5-13.28C34.77,13.43,31.16,9.75,25.28,9c-.6-.08-1.58.24-1.51-.83s1-.69,1.62-.67c6.53.12,12,6.33,11.58,13-.09,1.3,1,2,1.76,2.8.56.59,1.4-.11,2-.51a5.49,5.49,0,0,0,2.22-5.53A17.08,17.08,0,0,0,27.33,1.58c-3.5-.41-6.21,1.55-6.53,4.72-.29,3,2,5.31,5.58,5.58a5.93,5.93,0,0,1,5.5,3.73C32.58,17.46,33.89,18.45,35.51,19.53Z"/><path class="cls-1" d="M17.09,17.4c-1.85,1.69-3.59,3.41-2.69,6.29a4.51,4.51,0,0,0,1.26,2A6.39,6.39,0,0,1,16,35a7.52,7.52,0,0,1-9.94.57C-2,29-2,15.55,6.07,9a7.56,7.56,0,0,1,9.11-.16c2.57,1.91,3.23,4.71,1.92,8.07a2.35,2.35,0,0,0-.06.54ZM10.75,8.91A6.73,6.73,0,0,0,7,10.34c-7.2,5.79-7.16,18.23.08,24a5.89,5.89,0,0,0,7.89-.52c1.91-2.09,1.77-4.44-.42-6.92-2.68-3-2.68-6.18.09-9.24,1.51-1.66,2.17-3.46,1.19-5.56S12.92,9.13,10.75,8.91Z"/><path class="cls-1" d="M34.11,34.12c-.07.51.27,1.35-.61,1.46-1.07.13-.83-.81-.92-1.43-.8-6-4.38-9.55-10.49-10.36-.59-.08-1.4.08-1.3-.87s.91-.64,1.48-.64C28.21,22.27,34.06,28.11,34.11,34.12Z"/><path class="cls-1" d="M8.49,22.78A12.29,12.29,0,0,1,11.87,14c.42-.46.94-1,1.56-.51s.05,1.07-.34,1.53C9,19.9,9,24.51,13.16,29.6c.36.43.88.88.34,1.41s-1.13.08-1.56-.38A11.52,11.52,0,0,1,8.49,22.78Z"/></g></g></svg>