<svg xmlns="http://www.w3.org/2000/svg" viewBox="0 0 49.57 46.91"><defs><style>.cls-1{fill:#a5a593;}</style></defs><g id="Layer_2" data-name="Layer 2"><g id="Layer_1-2" data-name="Layer 1"><path class="cls-1" d="M39.23,34.86c-3.45-4.33-11.84-4.65-13.49-4.68a4.27,4.27,0,0,1-2.39-.66C7.62,18.66.24,28.13.16,28.23l-.07,0,0,.11c0,.26-1,6.47,5.46,11.3,4.09,3.09,7.68,3.22,10.59,3.31a9.84,9.84,0,0,1,4.15.76,30.66,30.66,0,0,0,11.19,3.14,11.17,11.17,0,0,0,5.11-.82,6.79,6.79,0,0,0,3.84-5,7.57,7.57,0,0,0-.28-4.56,6.83,6.83,0,0,0-.9-1.63Zm.58,5.22a.2.2,0,0,1-.12.15.23.23,0,0,1-.2,0c-.31-.11-.7-.24-1.17-.38h0a.26.26,0,0,1-.16-.13.26.26,0,0,1,0-.21,3.16,3.16,0,0,0,.25-1.66,3.09,3.09,0,0,1-1,1.67.33.33,0,0,1-.3.07,21.37,21.37,0,0,0-3.37-.48,17.54,17.54,0,0,1,5.66,2,.21.21,0,0,1,.11.25,5.81,5.81,0,0,1-3.26,4,10.39,10.39,0,0,1-4.74.73l0,0c-3.24-.58-7-3.32-7-3.36h0A25.65,25.65,0,0,0,27,44.86a.23.23,0,0,1,.07.29.24.24,0,0,1-.27.14A29,29,0,0,1,20.68,43l-.18-.07c-.1,0,0-.22,0-.22h0a8.55,8.55,0,0,0,.77-1.88,4.84,4.84,0,0,1-1.47,1.74.2.2,0,0,1-.17,0,14.57,14.57,0,0,0-3.48-.39,16.85,16.85,0,0,1-8.43-2L7.6,40c0-.05,0-.1.09,0l.12,0h0a11.88,11.88,0,0,0,2.76.63,13.78,13.78,0,0,1-7-4.36.55.55,0,0,0-.18-.2c-.22-.25-.41-.49-.55-.66a10.34,10.34,0,0,1-1-1.69A11.15,11.15,0,0,1,1,30.62a.22.22,0,0,1,.13-.24.23.23,0,0,1,.28.06A24.62,24.62,0,0,0,6.71,35.7a.25.25,0,0,1,.09.2,2.5,2.5,0,0,1-.42,1.35,2.09,2.09,0,0,0,.92-.87.25.25,0,0,1,.32-.07,13.81,13.81,0,0,0,7.69,2.24.22.22,0,0,1,.17.05.24.24,0,0,1,.07.16,3.29,3.29,0,0,1-.31,1.66,3.27,3.27,0,0,0,1-1.82.19.19,0,0,1,.18-.13c4.58-.54,6,.26,7.91,1.42a19.86,19.86,0,0,0,3.42,1.71.25.25,0,0,1,.14.29A1.7,1.7,0,0,1,27,43,3.24,3.24,0,0,0,28.46,42a.26.26,0,0,1,.25-.11,25.34,25.34,0,0,0,3.77.83.28.28,0,0,1,.21.2,3.63,3.63,0,0,1-.06,1.85,3.58,3.58,0,0,0,.81-1.67.23.23,0,0,1,.25-.18c.86.11,1.78.19,2.85.24-6.71-1.26-9.74-2.81-11.75-4s-3.59-2.14-8.44-1.58a12,12,0,0,1-6.26-1,.24.24,0,0,1-.14-.17.24.24,0,0,1,.07-.21,2.53,2.53,0,0,0,.7-1.23,4,4,0,0,1-1.52,1,.37.37,0,0,1-.18,0l-.06,0a19.61,19.61,0,0,1-4.49-3.4.24.24,0,0,1-.07-.18.28.28,0,0,1,.07-.17,2.78,2.78,0,0,0,1-1.45,4.47,4.47,0,0,1-1.52,1,.23.23,0,0,1-.26-.06,26.77,26.77,0,0,1-2.42-3.09.35.35,0,0,1,.05-.42c1.26-1.34,5.87-5.21,14.49-2h0a.23.23,0,0,1,.18.28.24.24,0,0,1-.29.17,17.43,17.43,0,0,0-5.49,0,.21.21,0,0,1-.24-.14,2.41,2.41,0,0,0-.79-1.14,2.2,2.2,0,0,1,.06,1.39.19.19,0,0,1-.15.14,14.25,14.25,0,0,0-2.09.7,19.3,19.3,0,0,1,6.9-.35.47.47,0,0,1,.29.31,5.36,5.36,0,0,1,.35,1.67,3.35,3.35,0,0,0,.3-1.59.26.26,0,0,1,.09-.18.29.29,0,0,1,.2-.05A26.87,26.87,0,0,1,23,30.26a5.12,5.12,0,0,0,2.82.81c.31,0,1.38,0,2.82.17a.26.26,0,0,1,.23.27,2.8,2.8,0,0,1-.52,1.32,2.48,2.48,0,0,0,1.15-1.3.23.23,0,0,1,.25-.12,18.82,18.82,0,0,1,6.93,2.28h-.1a8.1,8.1,0,0,0-4.11-.41,10,10,0,0,1,6.89,3.38,1.88,1.88,0,0,1,.27.42,6.43,6.43,0,0,1,.1,3Z"/><path class="cls-1" d="M30.7,35.75l0,0a0,0,0,0,1,0,0,3.17,3.17,0,0,0-.43-1.43,3.71,3.71,0,0,1-.14,1.44.06.06,0,0,1-.08,0H29c-2.44,0-4.55,0-6.26-1.35a5.27,5.27,0,0,0-.46-.31h0a.21.21,0,0,1-.1-.22A2.73,2.73,0,0,0,22,32a6.13,6.13,0,0,1-.38,1.53l0,0a.06.06,0,0,1-.06,0,16.51,16.51,0,0,0-3.93-1.31.07.07,0,0,1-.05,0s0,0,0-.06a3.22,3.22,0,0,0,.43-2.1,3.52,3.52,0,0,1-1.21,2,.17.17,0,0,1-.15.07,44.44,44.44,0,0,0-6.81-.62s1.39.13,3.22.44h0A.09.09,0,0,1,13,32a5.38,5.38,0,0,1-.33,2.64,4.61,4.61,0,0,0,1.11-2.54.08.08,0,0,1,.09,0c1,.19,2.13.43,3.21.73h0a18.45,18.45,0,0,1,4,1.54s0,0,0,0a.06.06,0,0,1,0,.06A3.62,3.62,0,0,1,20,35.69a4,4,0,0,0,1.52-.81.39.39,0,0,1,.49,0c0,.06.13.09.18.14,1.93,1.58,4.3,1.55,6.8,1.53l.63,0a.06.06,0,0,1,0,.1h0a6.71,6.71,0,0,1-1.16,1.63,3.83,3.83,0,0,0,1.94-1.72s0,0,.07,0a15.23,15.23,0,0,1,5.17.2,12.44,12.44,0,0,0-5-1Z"/><path class="cls-1" d="M25.63,16.27a4.91,4.91,0,0,0,2.74-5.34C27.59,7.28,23.94,1.68,15.67.05h0a2.78,2.78,0,0,0-2,.36A2.81,2.81,0,0,0,12.47,2a2.44,2.44,0,0,0-.07,1.2C13,6.9,16,14.4,22.25,16.47a4.55,4.55,0,0,0,3.38-.2Zm-12.39-13a2.13,2.13,0,0,1,.56-1.94A1.86,1.86,0,0,1,14.32,1,1.89,1.89,0,0,1,15.49.87c7.83,1.55,11.37,6.8,12,10.24a4,4,0,0,1-.14,2.05,3.8,3.8,0,0,1-1.14,1.7,3.76,3.76,0,0,1-1.77.94,3.92,3.92,0,0,1-2-.1c-5.71-1.91-8.62-8.83-9.23-12.4Z"/><path class="cls-1" d="M20.85,13.32l.09.06a.31.31,0,0,0-.09-.07Z"/><path class="cls-1" d="M20.85,13.32c-.82-1.93-3.51-3.86-3.54-3.9A16,16,0,0,0,20.85,13.32Z"/><path class="cls-1" d="M48.19,9.46a4.61,4.61,0,0,0-1.68-1.77A4.69,4.69,0,0,0,44.18,7a4.75,4.75,0,0,0-4.25,2.23c-2,3.17-3,7.14,1.84,14a2.83,2.83,0,0,0,4.6-.06c2.12-3.11,4.92-7.93,1.82-13.75ZM45.75,22.6a2.15,2.15,0,0,1-1.73,1,1.91,1.91,0,0,1-1.59-.8c-4.6-6.53-3.67-10.19-1.81-13.13h0a3.82,3.82,0,0,1,1.66-1.47,4.05,4.05,0,0,1,1.85-.36,3.73,3.73,0,0,1,1.92.56,3.84,3.84,0,0,1,1.38,1.45c2.89,5.37.36,9.74-1.68,12.74Z"/><path class="cls-1" d="M47,12.61a18.54,18.54,0,0,1-.93,5.22C47.48,16.36,47.48,14.79,47,12.61Z"/><path class="cls-1" d="M46.68,11.43A1.84,1.84,0,0,0,46,10,2.47,2.47,0,0,0,46.68,11.43Z"/></g></g></svg>