<?xml version="1.0" encoding="utf-8"?>
<!-- Generator: Adobe Illustrator 25.0.1, SVG Export Plug-In . SVG Version: 6.00 Build 0)  -->
<svg version="1.1" id="Layer_1" xmlns="http://www.w3.org/2000/svg" xmlns:xlink="http://www.w3.org/1999/xlink" x="0px" y="0px"
	 viewBox="0 0 512 512" style="enable-background:new 0 0 512 512;" xml:space="preserve">
<style type="text/css">
	.st0{opacity:0.986;fill-rule:evenodd;clip-rule:evenodd;fill:#D8D2D2;enable-background:new    ;}
</style>
<g>
	<path class="st0" d="M511.5,248.5c0,4.7,0,9.3,0,14c-1.5,2.3-3,4.6-4.5,7c-36.1,35.1-72,70.6-107.5,106.5
		c-11,5.8-20.9,4.3-29.5-4.5c-4.7-8-4.7-16,0-24c23.8-23.8,47.7-47.7,71.5-71.5c-143-0.3-286-0.7-429-1c-6.2-2.4-10.5-6.5-13-12.5
		c0-4.7,0-9.3,0-14c2.5-6,6.8-10.1,13-12.5c143-0.3,286-0.7,429-1c-23.8-23.8-47.7-47.7-71.5-71.5c-6.5-12.4-4-22.6,7.5-30.5
		c7.7-2.5,15-1.8,22,2c35.5,35.9,71.4,71.4,107.5,106.5C508.5,243.9,510,246.2,511.5,248.5z"/>
</g>
</svg>
