<svg xmlns="http://www.w3.org/2000/svg" viewBox="0 0 29.81 29.81"><defs><style>.cls-1{fill:#fff;}.cls-2{fill:#272f39;}</style></defs><g id="Layer_2" data-name="Layer 2"><g id="Layer_1-2" data-name="Layer 1"><circle class="cls-1" cx="14.9" cy="14.9" r="14.9"/><path class="cls-2" d="M18.54,6.81c.31.05.62.08.92.15a8.23,8.23,0,0,1,5.18,3.19,8.19,8.19,0,0,1,1.42,3.78,7.66,7.66,0,0,1-.88,4.79,7.78,7.78,0,0,1-5.77,4.15A7.77,7.77,0,0,1,12.76,21a.71.71,0,0,0-.79-.15,6.26,6.26,0,0,1-8.12-4.47c-.06-.25-.09-.5-.13-.76,0,0,0-.07,0-.09V14.3A.71.71,0,0,0,3.75,14,6.16,6.16,0,0,1,7.42,9.17,6,6,0,0,1,12.11,9a.46.46,0,0,0,.54-.1l.18-.14a8.5,8.5,0,0,1,3.69-1.83,4.78,4.78,0,0,0,.74-.13Zm-7.69,8.1h.58c.26,0,.33,0,.35.3a6.36,6.36,0,0,0,.08.75,6.27,6.27,0,1,0,4.43-7.08,6.18,6.18,0,0,0-2,1c-.19.14-.2.22,0,.39l.19.19a6,6,0,0,1,1.83,4.16c0,.21-.05.29-.25.28a11.28,11.28,0,0,0-1.3,0c-.19,0-.25-.06-.26-.26a3.57,3.57,0,0,0,0-.47,4.49,4.49,0,0,0-5.14-3.71,4.26,4.26,0,0,0-3.53,3,4.2,4.2,0,0,0,1,4.55,4.28,4.28,0,0,0,3.94,1.31c.5-.08.5-.09.27-.5a8.24,8.24,0,0,1-1-3.62c0-.26,0-.32.29-.31Z"/></g></g></svg>