<svg xmlns="http://www.w3.org/2000/svg" width="195.147" height="205.909" viewBox="0 0 195.147 205.909">
  <g id="gluten-free" transform="translate(-7.836 -20.718)">
    <g id="Layer_1" data-name="Layer 1">
      <text id="G" transform="matrix(0.466, -0.885, 0.885, 0.466, 23.76, 97.6)" fill="#798265" font-size="18.3" font-family="Montserrat-Bold, Montserrat" font-weight="700"><tspan x="0" y="0">G</tspan></text>
      <text id="L" transform="matrix(0.571, -0.821, 0.821, 0.571, 30.22, 85.49)" fill="#798265" font-size="18" font-family="Montserrat-Bold, Montserrat" font-weight="700"><tspan x="0" y="0">L</tspan></text>
      <text id="U" transform="translate(36.12 76.79) rotate(-47.842)" fill="#798265" font-size="18" font-family="Montserrat-Bold, Montserrat" font-weight="700"><tspan x="0" y="0">U</tspan></text>
      <text id="T" transform="matrix(0.757, -0.653, 0.653, 0.757, 45.43, 66.57)" fill="#798265" font-size="18.3" font-family="Montserrat-Bold, Montserrat" font-weight="700"><tspan x="0" y="0">T</tspan></text>
      <text id="E" transform="translate(53.69 59.43) rotate(-34.65)" fill="#798265" font-size="18.3" font-family="Montserrat-Bold, Montserrat" font-weight="700"><tspan x="0" y="0">E</tspan></text>
      <text id="N" transform="matrix(0.892, -0.451, 0.451, 0.892, 63.45, 52.61)" fill="#798265" font-size="18" font-family="Montserrat-Bold, Montserrat" font-weight="700"><tspan x="0" y="0">N</tspan></text>
      <text id="F" transform="translate(81.02 44.41) rotate(-16.26)" fill="#798265" font-size="18.3" font-family="Montserrat-Bold, Montserrat" font-weight="700"><tspan x="0" y="0">F</tspan></text>
      <text id="R" transform="translate(91.87 41.17) rotate(-9.09)" fill="#798265" font-size="18.3" font-family="Montserrat-Bold, Montserrat" font-weight="700"><tspan x="0" y="0">R</tspan></text>
      <text id="E-2" data-name="E" transform="translate(104.78 39.12) rotate(-1.81)" fill="#798265" font-size="18.3" font-family="Montserrat-Bold, Montserrat" font-weight="700"><tspan x="0" y="0">E</tspan></text>
      <text id="E-3" data-name="E" transform="translate(116.67 38.72) rotate(5.08)" fill="#798265" font-size="18.3" font-family="Montserrat-Bold, Montserrat" font-weight="700"><tspan x="0" y="0">E</tspan></text>
      <path id="circle" d="M62.68,69.65a85.64,85.64,0,1,1-10.19,9.06" fill="none" stroke="#425656" stroke-linecap="round" stroke-miterlimit="10" stroke-width="6"/>
      <g id="Group_1" data-name="Group 1">
        <path id="Path_3" data-name="Path 3" d="M81.48,177c.21.46.41.92.59,1.38h0c.73,0,1.5.63,2.46,2.15,4.06,6.41,10.42,9.48,17.9,9.65,4.57.1,6.48,1.63,5.89,6.38a69.59,69.59,0,0,0,0,9.58,2.69,2.69,0,0,0,2.34,2.9,2.517,2.517,0,0,0,3-2.89c-2.6-12.23,2.89-17.52,14.71-17.84a6.51,6.51,0,0,0,3.55-1.93c2.21-2,6.87-3.67,4.49-7.15-2.89-4.21-4.64,1.2-6.88,2.3-3.05,1.5-6,3.29-11.12,1.36h0c2.09-1.49,4.22-2.92,6.24-4.49,1.61-1.25,2.42-2.94.9-4.69-2.15-2.48-4,.39-5.71,1.49a17.659,17.659,0,0,0-4.46,4l-.06.08h0c-.19.52-.24,1.38-1,.88-.23-.14,0-1.11.1-1.7,1-8.54,5.49-13.67,14.21-14.93,3.73-.54,8-2.68,7.54,4.22-.1,1.52,1.46,2.29,2.94,2.21,1.64-.1,2-1.36,2.33-2.83,1.61-7.48-.46-10-8.29-9.87a29.09,29.09,0,0,0-18.23,6.58h0c-1.93-7.33-1.92-7.33,5.22-8.39,15.41-2.27,25.06-14.46,20.74-29.22a28.84,28.84,0,0,0-2.13-5.11,4.86,4.86,0,0,0-7.13-1.63,53.71,53.71,0,0,1-17.58,8.66h0c-1.24-3.45.92-5.83,3.35-8.51,11.26-12.38,10.1-26.21-2.58-37.06-2.93-2.51-4.83-2.19-7.55.19-12.62,11-13.53,24.64-2.27,37.11,3.54,3.93,3.55,3.94,2.46,9h0c-6.21-5.5-13.6-7.06-21.58-6.74-3.59.14-5.09,1.72-5.18,5.51-.29,12.42,3.17,22.5,16.36,27h0c-3.16,4.44-7.12,2.06-10.41,2.43s-5.54.68-5.68,4.84c-.15,4.41.15,12.6.15,12.6m37.84-25.67c0-.1-.29-.29-.45-.43h0l1,.82c-.74.53-.89.41-.71-.34Zm-4.44-6.13h0c2.23-10.32,7-14.22,17.19-14.85,3.18-.2,4.39.28,4.38,3.84,0,11.27-7.55,18.6-17.55,16.68h0l6.46-5.77c1.32-1.18,2-2.76.85-4.15-1.49-1.84-3.22-.89-4.69.38-1.87,1.61-3.71,3.25-5.55,4.87h0c-.27.5-.47,1.36-1.2.76-.4-.17-.11-1.1-.05-1.71Zm-28.28-13c.66-2.4,2.1-1.83,3.61-1.84,10.13-.07,15.7,4.56,17.91,14.86h0c.06.6.39,1.52.13,1.73-.72.6-.92-.25-1.19-.75h0c-2-1.78-4-3.62-6.11-5.31-1.35-1.09-3-1.51-4.21.09a2.68,2.68,0,0,0,.52,3.67c2.31,2.11,4,4.92,7,6.29h0c-10.82,1.95-20.58-8.54-17.82-18.7Zm17.64,18.76-.9,1c0-.12-.11-.32-.07-.35a10.649,10.649,0,0,1,1-.62Zm4,31.6c-.77.51-.85-.35-1.06-.85h0l-5.1-4.42c-1.52-1.33-3.09-3.35-5.1-1-1.86,2.14,0,3.74,1.47,5.16,1.6,1.57,3.31,3,5.51,5h0c-11.4.38-19.54-9.32-17.41-19.12.62-2.89,2.39-2.16,4.07-2.05,10.57.69,15.29,4.89,17.6,15.57h0c-.11.63.15,1.63-.1,1.75Zm-.31-14.42h0c-1.46-4.43-6.76-3.63-5.6-7.77.55-2,3.38-3.36,5.09-2.09,2.79,2.2,1.09,5.33.39,9.9Zm3.62-65.81c-2.3-.08-2.8,1.82-2.79,3.81v11.73h0c-7.61-10.9-7.22-18.45,0-26,1.51-1.59,2.67-3,4.86-.65,5.83,6.25,10.34,16.6.58,25.51h0V103.86c-.11-1.95-.5-3.86-2.77-3.97Z" fill="#425656" stroke="#fff" stroke-miterlimit="10" stroke-width="1"/>
        <line id="Line_1" data-name="Line 1" y1="121.76" x2="121.07" transform="translate(52.63 77.07)" fill="none" stroke="#425656" stroke-miterlimit="10" stroke-width="5"/>
      </g>
    </g>
  </g>
</svg>
