<?xml version="1.0" encoding="utf-8"?>
<!-- Generator: Adobe Illustrator 25.0.1, SVG Export Plug-In . SVG Version: 6.00 Build 0)  -->
<svg version="1.1" id="Layer_1" xmlns="http://www.w3.org/2000/svg" xmlns:xlink="http://www.w3.org/1999/xlink" x="0px" y="0px"
	 viewBox="0 0 69.8 50.3" style="enable-background:new 0 0 69.8 50.3;" xml:space="preserve">
<style type="text/css">
	.st0{fill:#FFFFFF;}
</style>
<g id="Layer_2_1_">
	<g id="Layer_1-2">
		<path class="st0" d="M0.2,18.8c-0.1-1.9,0.2-3.8,0.8-5.6c1.2-3.5,3.3-4.3,6.5-3.8c4.3,0.7,8.1,2.7,11.7,5.1c0.4,0.3,0.7,0.3,1-0.2
			c2.3-4.1,5.8-7.3,10.1-9.2c2.4-1.1,4.6-2.6,6.4-4.5c0.5-0.5,0.8-0.6,1.3,0c2,2,4.4,3.6,7,4.7c2.9,1.3,5.5,3.3,7.5,5.8
			c0.2,0.4,0.7,0.5,1.1,0.3c0,0,0.1-0.1,0.1-0.1c2.4-1.5,5.1-2.5,7.9-3.1C62.1,8.1,62.6,8,63.1,8c3.1-0.2,4.8,0.9,5.8,3.9
			c0.8,2.7,1,5.5,0.8,8.2C69.3,25.4,68,30.6,66,35.4c-1.4,3.7-3.6,7.1-6.5,9.8c-2.2,2.3-5.3,3.6-8.5,3.6c-1.8,0-3.5-0.3-5.1-1
			c-0.4-0.2-0.9-0.2-1.3,0c-5.1,2.2-10.9,1.9-15.7-0.7c-0.5-0.3-1.1-0.3-1.5,0.1c-1.9,1.3-4,2.2-6.2,2.7c-3.9,0.8-8-0.5-10.8-3.4
			c-3.2-3.2-5.7-7.2-7.1-11.5C1.2,29.9,0.2,24.4,0.2,18.8z M7.3,11.8L7.3,11.8L7.3,11.8L7.3,11.8c0,0.2,0.3,0.3,0.4,0.4
			c1,0.7,1.9,1.4,2.9,2.2c0.5,0.3,0.7,1,0.4,1.5c0,0-0.1,0.1-0.1,0.1c-0.4,0.5-1.1,0.6-1.6,0.3C9,16.2,8.9,16,8.6,16.1l8.3,12.7
			c0-1.7,0.1-3.4,0.2-5c0.1-0.6-0.2-1.2-0.7-1.5c-0.6-0.5-1.3-1-1.9-1.6s-0.8-1.1-0.4-1.5s0.9-0.5,1.6,0c0.7,0.5,1.2,1,1.9,1.5
			c0.3-1.1,0.6-2.1,1-3.1c0.2-0.4-0.1-0.6-0.4-0.8c-2.6-1.8-5.5-3.3-8.5-4.4C9,12,8.1,11.8,7.3,11.8L7.3,11.8z M24.4,30.6l-0.3,0.1
			c-1.6,0.6-2.2,1.5-2.2,2.9c-0.1,1.3,0.8,2.6,2.2,2.8c1.1,0.2,1.1,0.8,1.2,1.5v0.1c0.6,3.7,4.1,6.1,7.7,5.5
			c0.6-0.1,1.2-0.3,1.7-0.5c1.5-0.7,2.7-1.9,3.4-3.4c0.1,0.2,0.2,0.3,0.2,0.5c1.7,3.2,5.7,4.5,9,2.8c1-0.5,1.8-1.3,2.4-2.2
			c1-1.6,1.3-3.6,0.8-5.4c-0.1-0.2,0-0.5,0.1-0.7c1-1.2,0.9-2.9-0.1-4l0.3-0.1c1.6-0.3,2.6-1.8,2.2-3.4c-0.1-0.6-0.4-1.1-0.9-1.5
			c-0.4-0.4-0.2-0.6,0.1-0.9c1.1-1.1,1.2-2.9,0.1-4c-0.2-0.2-0.4-0.3-0.6-0.5c-0.6-0.3-1.3-0.5-2-0.6c0-0.1,0-0.1,0.1-0.2
			c1-1.3,0.7-3.2-0.7-4.2c-0.6-0.5-1.4-0.7-2.2-0.5c-0.7,0.1-1.4,0-2.1,0c0.1-0.1,0.1-0.2,0.2-0.2c1.4-0.9,1.9-2.6,1.1-4.1
			c-0.8-1.5-2.5-2.1-4.1-1.6c-1.6,0.6-3.2,1-4.8,1.5c-0.2,0-0.3,0-0.5-0.1c-1.6-0.6-3.3-1.2-5-1.6C30.3,8,28.6,8.7,28,10.2
			c-0.6,1.5-0.2,3.1,1.1,4.1c0.2,0.1,0.5,0.3,0.5,0.1c0.1-0.6,0.4-0.2,0.5-0.1c0.3,0.2,0.5,0.4,0.7,0.7c0.1,0.1,0.2,0.2,0.1,0.4
			s-0.3,0.1-0.4-0.1s-0.2-0.2-0.3,0c-0.2,0.3-0.5,0.3-0.9,0.3c-1.3,0.1-2.7,0-4,0c-1.2-0.1-2.3,0.4-3,1.3c-0.9,1.4-0.4,3.3,1,4.1
			c0.2,0.1,0.4,0.2,0.6,0.3c0.3,0.1,0.4,0.2,0.2,0.5c-0.9,1.7-0.7,2.9,0.8,4.2C23.4,27.5,23.2,28.9,24.4,30.6z M22.1,47.2
			c-0.2-0.1-0.3-0.2-0.5-0.2c-2.3-0.8-4.4-2.1-6-3.9c-2.4-2.5-4.3-5.4-5.8-8.6c-2.6-5.5-4.6-11.3-6-17.3c-0.2-0.9-0.4-1.8-0.7-2.8
			C3,14.7,2.9,15,2.8,15.3c-0.4,2.6-0.4,5.2,0,7.7C3.4,28.6,5,34,7.6,39c1.3,2.7,3.2,5,5.6,6.8C15.8,47.7,19.1,48.2,22.1,47.2z
			 M66.6,13.1c-0.1,0.4-0.1,0.6-0.2,0.9c-1.3,6.1-3.3,12.1-5.8,17.8c-1.5,3.5-3.5,6.7-6,9.6c-1.6,1.8-3.7,3.3-5.9,4.2
			c-0.2,0.1-0.5,0.1-0.5,0.4s0.3,0.2,0.5,0.3c0.8,0.2,1.6,0.3,2.4,0.2c2.3-0.1,4.6-1,6.3-2.6c2.5-2.3,4.4-5,5.8-8.1
			c2-4.3,3.3-9,3.8-13.7c0.3-2.3,0.4-4.5,0.2-6.8C67.1,14.5,67,13.7,66.6,13.1z M6.5,17.2c0,0.1,0,0.3,0,0.4
			c1.4,5.8,3.4,11.4,6,16.8c1.4,2.9,3.2,5.5,5.5,7.7c1.6,1.6,3.7,2.7,6,3c0.2,0,0.4,0.1,0.5-0.1s-0.1-0.3-0.2-0.4
			c-0.5-0.7-1-1.4-1.5-2c-1.4-1.6-2.6-3.4-3.5-5.3c-0.3-0.7-0.7-1.4-1.1-2l-7.7-11.8L6.5,17.2z M62.7,10.5c-0.1,0-0.2,0-0.3,0
			l-0.5,0.1c-2.5,0.6-4.9,1.6-7.1,2.9c-0.4,0.2-0.4,0.5-0.2,0.8c1.1,1.9,1.9,3.9,2.4,5.9c0,0.2,0,0.4,0.3,0.6l3.9-5.9
			c-0.2,0-0.4,0.1-0.6,0.2c-0.5,0.4-1.2,0.2-1.6-0.3c-0.4-0.4-0.3-1.1,0.1-1.5c0,0,0,0,0.1,0c0.2-0.2,0.4-0.4,0.7-0.5L62.7,10.5z
			 M56.9,33.6c2.9-5.4,5-11.2,6.5-17.2c-0.3-0.1-0.3,0-0.4,0.1L58.1,24c-0.2,0.3-0.3,0.6-0.3,0.9C58,27.9,57.7,30.8,56.9,33.6z"/>
		<path class="st0" d="M24.4,30.6c-1.2-1.8-1-3.2,0.6-4.6c-1.5-1.4-1.7-2.5-0.8-4.2c0.2-0.3,0.1-0.5-0.2-0.5
			c-1.6-0.5-2.4-2.3-1.9-3.8c0.1-0.2,0.2-0.4,0.3-0.6c0.7-1,1.8-1.5,3-1.3c1.3,0,2.7,0.1,4,0c0.3,0,0.7,0,0.9-0.3
			c0.1-0.2,0.2-0.1,0.3,0s0.3,0.2,0.4,0.1s0-0.3-0.1-0.4c-0.2-0.3-0.5-0.5-0.7-0.7c-0.1-0.1-0.4-0.5-0.5,0.1c0,0.2-0.4,0.1-0.5-0.1
			c-1.2-1-1.7-2.7-1.1-4.1c0.6-1.4,2.3-2.2,3.8-1.7c1.7,0.4,3.4,1,5,1.6c0.1,0.1,0.3,0.1,0.5,0.1c1.6-0.5,3.2-0.9,4.8-1.5
			c1.6-0.6,3.3,0.1,4.1,1.6c0.7,1.4,0.2,3.2-1.1,4.1c0,0-0.1,0.1-0.2,0.2c0.8,0,1.4,0,2.1,0c1.6-0.2,3.1,1,3.3,2.6
			c0.1,0.7-0.1,1.5-0.5,2.1c0,0.1-0.1,0.1-0.1,0.2c0.7,0.1,1.3,0.3,2,0.6c1.3,0.8,1.8,2.6,0.9,3.9c-0.1,0.2-0.3,0.4-0.5,0.6
			c-0.3,0.3-0.5,0.5-0.1,0.9c1.2,1.1,1.2,2.9,0.2,4.1c-0.4,0.4-0.9,0.7-1.5,0.9l-0.3,0.1c1,1.1,1.1,2.8,0.1,4
			c-0.1,0.2-0.2,0.5-0.1,0.7c0.5,1.8,0.2,3.8-0.8,5.4c-2,3.1-6.1,3.9-9.2,1.9c-0.9-0.6-1.7-1.5-2.2-2.4c-0.1-0.1-0.1-0.2-0.2-0.5
			c-0.7,1.5-1.8,2.7-3.3,3.5c-3.4,1.6-7.4,0.1-8.9-3.3c-0.3-0.5-0.4-1.1-0.5-1.7v-0.1c-0.1-0.7-0.1-1.3-1.2-1.5
			c-1.3-0.2-2.3-1.4-2.1-2.8c0-1.4,0.7-2.2,2.2-2.9L24.4,30.6z M45.9,15.3c-1.2,0-2.4,0-3.5,0.2c-2.9,0.1-5.7,0.9-8.3,2.2
			c-0.5,0.3-1,0.5-0.8,1.3c0,0.3,0,0.6-0.2,0.8c-0.3,0.5-0.1,0.7,0.3,1c1.5,1,2,3,1,4.6c-0.1,0.1-0.1,0.2-0.2,0.2
			c-0.3,0.4-0.2,0.5,0,0.9c1.1,1.5,0.8,3.6-0.7,4.7c-0.1,0.1-0.2,0.2-0.3,0.2c-0.4,0.2-0.3,0.4-0.2,0.8c0.7,1.7-0.1,3.6-1.7,4.3
			c-0.2,0.1-0.4,0.1-0.6,0.2c-1.4,0.2-2.9,0.2-4.3,0c-0.6-0.1-0.7,0-0.6,0.6c0,0.2,0.1,0.3,0.1,0.5c0.5,3.2,3.4,5.4,6.6,4.9
			c2.4-0.3,4.3-2.1,4.8-4.5c0-0.5,0.5-0.9,1-0.9c0,0,0,0,0,0c1.9,0,3.7-0.6,5.3-1.6c1.2-1,2.8-1.5,4.3-1.3c1,0.1,1.9-0.5,2.1-1.5
			c0.2-0.9-0.2-1.9-1-2.4c-0.2-0.2-0.4-0.3-0.4-0.6c0.1-0.3,0.3-0.5,0.6-0.5l0.6-0.1c1.1,0,2-0.8,2.1-1.9c0-0.9-0.6-1.8-1.4-2
			c-0.3-0.1-0.6-0.4-0.6-0.7c0-0.4,0.4-0.3,0.6-0.5c0.1,0,0.2-0.1,0.2-0.1c0.8-0.4,1.2-1.2,1.1-2.1c-0.1-0.9-0.9-1.6-1.8-1.7
			c-0.4,0-0.8,0-1.2,0c-0.3,0-0.6-0.2-0.7-0.5c-0.1-0.3-0.1-0.6,0.2-0.8l0.2-0.2c0.6-0.5,0.8-1.4,0.6-2.1c-0.2-0.8-0.9-1.4-1.8-1.4
			C47,15.4,46.5,15.3,45.9,15.3z M27.2,31.5c-1,0-1.7,0-2.5,0c-1.1,0.1-2,1-2,2.1c0,1,0.8,1.9,1.9,2c1.8,0.2,3.6,0.3,5.5,0.3
			c1,0,1.9-0.6,2.2-1.5c0.3-0.7,0.2-1.6-0.2-2.2c-0.3-0.5-0.3-0.9,0.3-1.2c1.9-1,2.3-2.6,0.9-4.3c-0.3-0.3-0.4-0.8-0.1-1.1
			c0,0,0,0,0.1-0.1c1.4-1.5,1-3.4-1-4.2c-0.6-0.3-0.7-0.5-0.4-1.1c0.3-0.4,0.5-0.9,0.4-1.5c-0.1-0.6,0.2-1.1,0.8-1.4
			c0.9-0.5,1.9-1,2.9-1.3c1-0.4,2.1-0.7,3.2-1c-0.5-0.4-0.4-0.8-0.5-1.3c-0.2-1.2-1-2.2-2.1-2.7c-1.7-0.7-3.5-1.3-5.3-1.7
			C30.1,9,29,9.7,28.7,10.8c-0.4,1.1,0.1,2.3,1.1,2.9c0.5,0.2,0.9,0.6,1.2,1c0.4,0.4,0.4,0.7-0.1,1.1c-0.5,0.5-1.2,0.7-1.8,0.7
			c-1.5,0-3,0-4.5,0c-0.6,0-1.2,0.3-1.6,0.8c-0.4,0.6-0.5,1.5-0.1,2.1c0.3,0.8,1.1,1.2,1.9,1.2c0.7,0,1.5,0.1,2.2,0.2l-1.5,0.9
			c-1,0.5-1.4,1.6-1,2.7c0.2,0.4,0.5,0.7,0.8,0.9c0.2,0.1,0.3,0.2,0.5,0.3c0.3,0.2,0.3,0.5,0.1,0.8c0,0-0.1,0.1-0.1,0.1
			c-0.1,0.1-0.3,0.2-0.5,0.3c-0.9,0.6-1.2,1.8-0.6,2.8c0.2,0.3,0.5,0.6,0.8,0.7C26.2,30.7,26.7,31.1,27.2,31.5z M47,35.2
			c-0.7-0.1-1.4,0.1-1.9,0.6c-1.8,1.3-4,2.1-6.2,2.2c-0.7,0-0.6,0.3-0.4,0.7c1,3.1,4.3,4.8,7.4,3.8c2.9-0.9,4.6-4,3.9-7
			c-0.1-0.3-0.1-0.6-0.5-0.5C48.5,35.3,47.8,35.3,47,35.2z M38,10.8c0.8,0.7,1.3,1.6,1.5,2.7c0.1,0.5,0.3,0.6,0.8,0.5
			c0.9-0.2,1.8-0.3,2.7-0.2c0.9,0.2,1.7-0.2,2.2-1c0.6-0.7,0.6-1.7,0.1-2.5c-0.5-0.8-1.4-1.2-2.3-1.1C41.3,9.8,39.7,10.3,38,10.8z
			 M42.4,14.7c-0.5-0.1-0.9,0-1.4,0.2C41.5,14.9,42,14.9,42.4,14.7L42.4,14.7z"/>
		<path class="st0" d="M7.2,11.8H7.1v-0.1L7.2,11.8L7.2,11.8z"/>
		<path class="st0" d="M42.4,14.7c-0.4,0.2-0.9,0.3-1.4,0.2C41.5,14.6,41.9,14.6,42.4,14.7z"/>
	</g>
</g>
</svg>
