<svg id="Layer_1" data-name="Layer 1" xmlns="http://www.w3.org/2000/svg" viewBox="0 0 69.59 49.95"><defs><style>.cls-1{fill:#1f394b;}</style></defs><g id="Layer_2" data-name="Layer 2"><g id="Layer_1-2" data-name="Layer 1-2"><path class="cls-1" d="M.2,18.8A15.22,15.22,0,0,1,1,13.2C2.2,9.7,4.3,8.9,7.5,9.4a29.89,29.89,0,0,1,11.7,5.1c.4.3.7.3,1-.2A21.48,21.48,0,0,1,30.3,5.1,20.6,20.6,0,0,0,36.7.6c.5-.5.8-.6,1.3,0a22.11,22.11,0,0,0,7,4.7,20.26,20.26,0,0,1,7.5,5.8.8.8,0,0,0,1.1.3l.1-.1a24.58,24.58,0,0,1,7.9-3.1A7.72,7.72,0,0,1,63.1,8c3.1-.2,4.8.9,5.8,3.9a22.92,22.92,0,0,1,.8,8.2A49.69,49.69,0,0,1,66,35.4a25.91,25.91,0,0,1-6.5,9.8A11.8,11.8,0,0,1,51,48.8a12.55,12.55,0,0,1-5.1-1,1.48,1.48,0,0,0-1.3,0,18,18,0,0,1-15.7-.7,1.2,1.2,0,0,0-1.5.1,18,18,0,0,1-6.2,2.7,11.8,11.8,0,0,1-10.8-3.4A29.26,29.26,0,0,1,3.3,35,42.45,42.45,0,0,1,.2,18.8Zm7.1-7h0c0,.2.3.3.4.4,1,.7,1.9,1.4,2.9,2.2a1.13,1.13,0,0,1,.4,1.5l-.1.1a1.25,1.25,0,0,1-1.6.3c-.3-.1-.4-.3-.7-.2l8.3,12.7c0-1.7.1-3.4.2-5a1.49,1.49,0,0,0-.7-1.5c-.6-.5-1.3-1-1.9-1.6s-.8-1.1-.4-1.5.9-.5,1.6,0,1.2,1,1.9,1.5a28.11,28.11,0,0,1,1-3.1c.2-.4-.1-.6-.4-.8a38.06,38.06,0,0,0-8.5-4.4,5,5,0,0,0-2.4-.6ZM24.4,30.6l-.3.1a2.83,2.83,0,0,0-2.2,2.9,2.62,2.62,0,0,0,2.2,2.8c1.1.2,1.1.8,1.2,1.5V38A6.68,6.68,0,0,0,33,43.5a8.45,8.45,0,0,0,1.7-.5,7,7,0,0,0,3.4-3.4c.1.2.2.3.2.5a6.71,6.71,0,0,0,9,2.8,6.36,6.36,0,0,0,2.4-2.2,6.85,6.85,0,0,0,.8-5.4.88.88,0,0,1,.1-.7,3,3,0,0,0-.1-4l.3-.1A2.74,2.74,0,0,0,53,27.1a2.37,2.37,0,0,0-.9-1.5c-.4-.4-.2-.6.1-.9a2.84,2.84,0,0,0,.1-4c-.2-.2-.4-.3-.6-.5a6.64,6.64,0,0,0-2-.6c0-.1,0-.1.1-.2a3,3,0,0,0-.7-4.2,2.47,2.47,0,0,0-2.2-.5,14.72,14.72,0,0,1-2.1,0c.1-.1.1-.2.2-.2a3.06,3.06,0,0,0,1.1-4.1A3.4,3.4,0,0,0,42,8.8c-1.6.6-3.2,1-4.8,1.5a.9.9,0,0,1-.5-.1,41.62,41.62,0,0,0-5-1.6A2.83,2.83,0,0,0,28,10.2a3.43,3.43,0,0,0,1.1,4.1c.2.1.5.3.5.1.1-.6.4-.2.5-.1a2.34,2.34,0,0,1,.7.7c.1.1.2.2.1.4s-.3.1-.4-.1-.2-.2-.3,0-.5.3-.9.3c-1.3.1-2.7,0-4,0a3.4,3.4,0,0,0-3,1.3,2.94,2.94,0,0,0,1,4.1l.6.3c.3.1.4.2.2.5a3,3,0,0,0,.8,4.2C23.4,27.5,23.2,28.9,24.4,30.6ZM22.1,47.2c-.2-.1-.3-.2-.5-.2a14.22,14.22,0,0,1-6-3.9,31.74,31.74,0,0,1-5.8-8.6,86.37,86.37,0,0,1-6-17.3c-.2-.9-.4-1.8-.7-2.8l-.3.9a24.85,24.85,0,0,0,0,7.7A44.94,44.94,0,0,0,7.6,39a18.47,18.47,0,0,0,5.6,6.8A9.79,9.79,0,0,0,22.1,47.2ZM66.6,13.1c-.1.4-.1.6-.2.9a92.6,92.6,0,0,1-5.8,17.8,36.86,36.86,0,0,1-6,9.6,16.37,16.37,0,0,1-5.9,4.2c-.2.1-.5.1-.5.4s.3.2.5.3a6.52,6.52,0,0,0,2.4.2,9.89,9.89,0,0,0,6.3-2.6,24.58,24.58,0,0,0,5.8-8.1A43.69,43.69,0,0,0,67,22.1a31,31,0,0,0,.2-6.8A5.12,5.12,0,0,0,66.6,13.1ZM6.5,17.2v.4a84.12,84.12,0,0,0,6,16.8A26.41,26.41,0,0,0,18,42.1a10.44,10.44,0,0,0,6,3c.2,0,.4.1.5-.1s-.1-.3-.2-.4c-.5-.7-1-1.4-1.5-2a23.19,23.19,0,0,1-3.5-5.3,12.81,12.81,0,0,0-1.1-2L10.5,23.5Zm56.2-6.7h-.3l-.5.1a25.89,25.89,0,0,0-7.1,2.9.49.49,0,0,0-.2.8A22.89,22.89,0,0,1,57,20.2a.6.6,0,0,0,.3.6l3.9-5.9a1.42,1.42,0,0,0-.6.2,1.15,1.15,0,0,1-1.6-.3,1.09,1.09,0,0,1,.1-1.5h.1a1.79,1.79,0,0,1,.7-.5ZM56.9,33.6a74.34,74.34,0,0,0,6.5-17.2c-.3-.1-.3,0-.4.1L58.1,24a1.61,1.61,0,0,0-.3.9A25.31,25.31,0,0,1,56.9,33.6Z" transform="translate(-0.18 -0.19)"/><path class="cls-1" d="M24.4,30.6c-1.2-1.8-1-3.2.6-4.6-1.5-1.4-1.7-2.5-.8-4.2.2-.3.1-.5-.2-.5a3,3,0,0,1-1.9-3.8l.3-.6a3,3,0,0,1,3-1.3c1.3,0,2.7.1,4,0,.3,0,.7,0,.9-.3s.2-.1.3,0,.3.2.4.1,0-.3-.1-.4a4.62,4.62,0,0,0-.7-.7c-.1-.1-.4-.5-.5.1,0,.2-.4.1-.5-.1a3.61,3.61,0,0,1-1.1-4.1,3.14,3.14,0,0,1,3.8-1.7,41.62,41.62,0,0,1,5,1.6.75.75,0,0,0,.5.1c1.6-.5,3.2-.9,4.8-1.5a3.24,3.24,0,0,1,3,5.7l-.2.2h2.1a3,3,0,0,1,3.3,2.6,3.14,3.14,0,0,1-.5,2.1c0,.1-.1.1-.1.2a7.62,7.62,0,0,1,2,.6,2.79,2.79,0,0,1,.9,3.9,2.65,2.65,0,0,1-.5.6c-.3.3-.5.5-.1.9a3,3,0,0,1,.2,4.1,3.77,3.77,0,0,1-1.5.9l-.3.1a3,3,0,0,1,.1,4,.88.88,0,0,0-.1.7,6.85,6.85,0,0,1-.8,5.4,6.62,6.62,0,0,1-9.2,1.9,7.19,7.19,0,0,1-2.2-2.4c-.1-.1-.1-.2-.2-.5a7.46,7.46,0,0,1-3.3,3.5,6.62,6.62,0,0,1-8.9-3.3,4.8,4.8,0,0,1-.5-1.7v-.1c-.1-.7-.1-1.3-1.2-1.5a2.49,2.49,0,0,1-2.1-2.8c0-1.4.7-2.2,2.2-2.9ZM45.9,15.3a20,20,0,0,0-3.5.2,20.1,20.1,0,0,0-8.3,2.2c-.5.3-1,.5-.8,1.3a1.08,1.08,0,0,1-.2.8c-.3.5-.1.7.3,1a3.36,3.36,0,0,1,1,4.6c-.1.1-.1.2-.2.2-.3.4-.2.5,0,.9a3.35,3.35,0,0,1-.7,4.7c-.1.1-.2.2-.3.2-.4.2-.3.4-.2.8a3.31,3.31,0,0,1-1.7,4.3c-.2.1-.4.1-.6.2a15.48,15.48,0,0,1-4.3,0c-.6-.1-.7,0-.6.6,0,.2.1.3.1.5a5.78,5.78,0,0,0,6.6,4.9,5.63,5.63,0,0,0,4.8-4.5,1,1,0,0,1,1-.9h0a10,10,0,0,0,5.3-1.6,5.68,5.68,0,0,1,4.3-1.3A1.89,1.89,0,0,0,50,32.9a2.29,2.29,0,0,0-1-2.4c-.2-.2-.4-.3-.4-.6a.63.63,0,0,1,.6-.5l.6-.1a2,2,0,0,0,.7-3.9.86.86,0,0,1-.6-.7c0-.4.4-.3.6-.5a.35.35,0,0,0,.2-.1,2,2,0,0,0-.7-3.8H48.8a.75.75,0,0,1-.7-.5.63.63,0,0,1,.2-.8l.2-.2a2.08,2.08,0,0,0,.6-2.1,1.83,1.83,0,0,0-1.8-1.4A6.38,6.38,0,0,1,45.9,15.3ZM27.2,31.5H24.7a2.16,2.16,0,0,0-2,2.1,2.05,2.05,0,0,0,1.9,2,49.33,49.33,0,0,0,5.5.3,2.29,2.29,0,0,0,2.2-1.5,2.44,2.44,0,0,0-.2-2.2c-.3-.5-.3-.9.3-1.2,1.9-1,2.3-2.6.9-4.3a.79.79,0,0,1-.1-1.1l.1-.1a2.44,2.44,0,0,0-1-4.2c-.6-.3-.7-.5-.4-1.1a1.91,1.91,0,0,0,.4-1.5,1.29,1.29,0,0,1,.8-1.4A15.11,15.11,0,0,1,36,16a29.92,29.92,0,0,1,3.2-1c-.5-.4-.4-.8-.5-1.3A3.63,3.63,0,0,0,36.6,11a32.72,32.72,0,0,0-5.3-1.7,2.12,2.12,0,0,0-2.6,1.5,2.44,2.44,0,0,0,1.1,2.9,2.94,2.94,0,0,1,1.2,1c.4.4.4.7-.1,1.1a2.57,2.57,0,0,1-1.8.7H24.6a2.09,2.09,0,0,0-1.6.8,2,2,0,0,0-.1,2.1,2,2,0,0,0,1.9,1.2,16.35,16.35,0,0,1,2.2.2l-1.5.9a2.1,2.1,0,0,0-1,2.7,2.36,2.36,0,0,0,.8.9c.2.1.3.2.5.3a.52.52,0,0,1,.1.8l-.1.1a2.19,2.19,0,0,1-.5.3,2.05,2.05,0,0,0-.6,2.8,1.78,1.78,0,0,0,.8.7A12.49,12.49,0,0,1,27.2,31.5ZM47,35.2a2.21,2.21,0,0,0-1.9.6A11.64,11.64,0,0,1,38.9,38c-.7,0-.6.3-.4.7a5.88,5.88,0,0,0,11.3-3.2c-.1-.3-.1-.6-.5-.5A4.53,4.53,0,0,1,47,35.2ZM38,10.8a4.56,4.56,0,0,1,1.5,2.7c.1.5.3.6.8.5a8.22,8.22,0,0,1,2.7-.2,2,2,0,0,0,2.2-1,2.1,2.1,0,0,0,.1-2.5A2.39,2.39,0,0,0,43,9.2C41.3,9.8,39.7,10.3,38,10.8Zm4.4,3.9a2.3,2.3,0,0,0-1.4.2,3.18,3.18,0,0,0,1.4-.2Z" transform="translate(-0.18 -0.19)"/><path class="cls-1" d="M7.2,11.8H7.1v-.1l.1.1Z" transform="translate(-0.18 -0.19)"/><path class="cls-1" d="M42.4,14.7a2.2,2.2,0,0,1-1.4.2A1.76,1.76,0,0,1,42.4,14.7Z" transform="translate(-0.18 -0.19)"/></g></g></svg>