<svg xmlns="http://www.w3.org/2000/svg" viewBox="0 0 34.97 34.36"><defs><style>.cls-1{fill:#828662;}</style></defs><g id="Layer_2" data-name="Layer 2"><g id="Layer_1-2" data-name="Layer 1"><path class="cls-1" d="M8.44,14.87A13.16,13.16,0,0,1,2.31,6.23C1.89,4.58,1.35,3,.79,1.34.44.31.71-.13,1.8,0,4.38.44,7,.74,9.53,1.3a12,12,0,0,1,8.35,6.78,10.32,10.32,0,0,1,6.65-3,2.59,2.59,0,0,0,2.23-1.32c.18-.33.34-.72.83-.64s.44.63.52,1A2.58,2.58,0,0,0,29.4,6c4.84,2.4,6.53,8.34,5.06,13.7-1.3,4.7-3.84,8.24-9,9.14-.53.09-.62.53-.86.85-4.44,5.95-15.35,6.21-20,.48A7.86,7.86,0,0,1,3,27.65c-.44-1.4-.93-2.64-2.56-3.12-.66-.2-.57-.87.13-1.08a3.44,3.44,0,0,0,2.3-2.65C3.75,18.06,5.72,16.28,8.44,14.87ZM25.87,27.44A1.53,1.53,0,0,0,27,27.28c3.22-1.26,5-3.77,6.06-6.92C34.87,15,33.18,9,28.63,7c-1-2-2.53-1-4-.77A10,10,0,0,0,16.24,13c-.08.26-.3.48,0,.74a1.88,1.88,0,0,0,2.63-.65q.42-.9.9-1.77c.2-.37.53-.63.93-.39s.29.66.11,1c-.32.63-.66,1.25-1,1.89-.2.42-.24.81.33,1a14.46,14.46,0,0,1,3.62,2.37c.28-1.14.52-2.15.76-3.16.11-.46.15-1.06.82-.89s.42.79.34,1.21c-.21,1.07-.5,2.12-.74,3.19a2.06,2.06,0,0,0,.15,1.64,3.79,3.79,0,0,1,.13,4.41.69.69,0,0,0,.21,1c.48.37.58-.23.8-.44a8.85,8.85,0,0,0,.7-.89c.29-.35.62-.66,1.07-.28s.16.69-.08,1c-.48.6-1,1.19-1.45,1.77A1.85,1.85,0,0,0,25.87,27.44ZM8.31,19.78c1.19.29,2.32.44,3.18-.59.26-.32.63-.49,1-.12s.12.69-.17,1a3,3,0,0,1-2.2,1.14c-.81,0-1.62.07-2.42.13A1.92,1.92,0,0,0,6,22.5c-.36.7-.25,1,.62,1,4.85,0,9.7,0,14.55,0,1,0,1.13-.51,1.12-1.22s-.25-1.15-1.11-1.09-1.9,0-2.85,0a2.46,2.46,0,0,1-2.12-1.22.62.62,0,0,1,0-.9.53.53,0,0,1,.86.1c.8,1.17,1.94.86,3.42.82a11.45,11.45,0,0,0-6.48-2.64C12,17.06,10.09,18.58,8.31,19.78ZM20.42,28c-1.36,0-2.53-.32-3.31.89a.53.53,0,0,1-.87.07.65.65,0,0,1,0-.9,2.49,2.49,0,0,1,2.13-1.21c.91,0,1.82-.07,2.71,0s1.23-.3,1.25-1.1S22,24.56,21,24.57c-4.66.05-9.32,0-14,0-.41,0-1.08-.35-1.21.28a1.6,1.6,0,0,0,.68,1.35c.93.79,2.08.53,3.15.58a3.33,3.33,0,0,1,2.53,1.07c.29.33.65.67.23,1.09s-.79.09-1.08-.23c-.89-1-1.95-.81-3.14-.61C11.06,31.25,17.31,31.25,20.42,28Zm3.17-4.46a2.28,2.28,0,0,0,.85-3,7.69,7.69,0,0,0-2.72-3.4A12.82,12.82,0,0,0,10.29,15.5c-4,1.14-6.09,4-7.06,7.88.94.31,1.44,0,1.57-1C5,21,6.45,20.71,7,19.6A4.35,4.35,0,0,1,9.5,17.46c2.57-1.06,5.13-2.46,7.83-.32.07.05.19,0,.28,0A6.71,6.71,0,0,1,23.59,23.57ZM3.12,24.66c.26.63.52,1.14.69,1.67a9,9,0,0,0,5.85,6,13.3,13.3,0,0,0,9.62-.06,8.67,8.67,0,0,0,5.18-4.8,1.91,1.91,0,0,0-1-2.81,4,4,0,0,1-.91,3.47c-2.23,2.18-5.13,3.05-8,3.87a4,4,0,0,1-3.14-.63,4.34,4.34,0,0,0-1.27-.59c-2.76-.67-4-3.06-5.29-5.15C4.32,24.76,4,24.45,3.12,24.66ZM12.45,4c-.19,6.46-.41,5.36,1.2,6.39,0-.08.11-.15.11-.22,0-1.47,0-2.94.06-4.41C13.88,4.73,13.49,4.22,12.45,4ZM6,11.21c1.12,1.34,4.25,1.33,6.58.12a1.88,1.88,0,0,0-2.29-.84A41.68,41.68,0,0,1,6,11.21Zm9,.76c2.14-2.61,2.11-4.06,0-5.66ZM11.22,8.29c0-1.7,0-3.16,0-4.62,0-.54-.29-.74-.76-.83-.25-.06-.52-.06-.55.24a32.3,32.3,0,0,0-.19,3.81C9.75,7.5,10.47,7.77,11.22,8.29Zm-1,.94C8.29,6.92,6.45,9,4.63,8.83,4.94,10.44,5,10.22,10.18,9.23Zm-1.5,4.26a2.19,2.19,0,0,0,2.33.59,20.86,20.86,0,0,1,2.65-.36c.4-.06,1.12.31,1.08-.45,0-.56-.61-.77-1.21-.66ZM7.53,7c-1-1.43-2.08-.61-3.1-.49-.34,0-.82,0-.6.61.16.47.38.68.93.52C5.61,7.39,6.49,7.24,7.53,7ZM8.66,3.63a4.41,4.41,0,0,1,0-.53c0-.45.05-.83-.6-.84s-.55.49-.57.87,0,1,0,1.55a.88.88,0,0,0,.76,1c.48,0,.3-.58.36-.92A10.52,10.52,0,0,0,8.66,3.63ZM5.47,5a17.09,17.09,0,0,0-2.8-2.19C3.14,5.51,3.14,5.51,5.47,5Zm.81-.9c.12-2.38-.2-2.63-2.73-2.31Z"/><path class="cls-1" d="M30.58,17.71a15.91,15.91,0,0,1-1.25,4c-.21.44-.46.76-1,.52s-.34-.62-.17-1a13.45,13.45,0,0,0,1.13-3.77c.06-.42.23-.89.82-.73S30.67,17.3,30.58,17.71Z"/><path class="cls-1" d="M24.69,7.52a2.36,2.36,0,0,1-.33.52c-.67.67-1.37,1.31-2.06,2-.3.28-.63.48-1,.11a.63.63,0,0,1,.06-.9c.78-.76,1.55-1.53,2.39-2.22C24.18,6.67,24.58,6.84,24.69,7.52Z"/><path class="cls-1" d="M27,9c-.19.8-.39,1.67-.6,2.54a.58.58,0,0,1-.73.49c-.41-.08-.47-.44-.4-.78.17-.87.37-1.74.56-2.61.08-.37.28-.62.68-.57S26.94,8.51,27,9Z"/><path class="cls-1" d="M29.29,11.44c-.47-.08-.62-.5-.67-.92-.11-.83-1.47-1.92-.3-2.37s1,1.27,1.42,2S29.9,11.47,29.29,11.44Z"/><path class="cls-1" d="M30.64,14.36c0,.26.33,1-.47,1.05s-.63-.65-.67-1.15l-.06-.56c0-.59-.66-1.5.36-1.62s.72.9.83,1.51A4.41,4.41,0,0,1,30.64,14.36Z"/><path class="cls-1" d="M14.34,20.59a3.26,3.26,0,0,1,2.52,1.08c.28.28.52.61.21,1s-.67.25-1-.05a2.2,2.2,0,0,0-3.46,0c-.3.29-.66.45-1,.08s-.1-.7.19-1A3.26,3.26,0,0,1,14.34,20.59Z"/><path class="cls-1" d="M14.29,27.45a3.29,3.29,0,0,1-2.5-1.14c-.29-.29-.46-.63-.11-1a.56.56,0,0,1,.87.06,2.25,2.25,0,0,0,3.58,0,.58.58,0,0,1,.88-.08c.36.34.2.69-.09,1A3.32,3.32,0,0,1,14.29,27.45Z"/></g></g></svg>