<svg xmlns="http://www.w3.org/2000/svg" width="196.931" height="201.738" viewBox="0 0 196.931 201.738">
  <g id="organico" transform="translate(-9.548 -10.914)">
    <path id="circle" d="M66.29,55.92A85.53,85.53,0,1,1,56.1,65" fill="none" stroke="#425656" stroke-linecap="round" stroke-miterlimit="10" stroke-width="6"/>
    <path id="Path_5" data-name="Path 5" d="M118.72,100.84c6.65-10.72-4.32-22.48-15.42-24.52a24.7,24.7,0,0,0-2.73-.18c-11.71-.7-11.74-.65-7.19,9.38a34.3,34.3,0,0,1,1.39,3.83c.54,1.71.3,3.27-1.49,4-2.06.86-3.1-.8-3.56-2.21A28.22,28.22,0,0,0,81,78.37c-2.07-1.79-1.53-3.37.7-4.89,13.68-9.34,38.8-1,43.8,14.81,1.73,5.42,1.39,10.8-2.09,15.65-4.88,6.8-4.88,6.8-4,15.51a5.11,5.11,0,0,0,4-4.6c2-12.16,9.41-17.54,21.1-15.07,8.43,1.78,14.82,6.83,19.27,14.2,2,3.33,2.42,6-2.95,6.26-3.78.19-6.54,2.92-9.5,5.05-9.28,6.66-15.59,6.55-24.5-.77-1.73-1.41-2.37-1.48-3.67.07-3.1,3.7-4.16,8-4.19,12.69,0,2.59,1.59,2.25,3.2,2.14,4.63-.33,8.44,1.65,11.82,4.5a21.64,21.64,0,0,0,9.14,4.36c3.15.76,6.16,1.93,8.26,4.5a13.57,13.57,0,0,0,7.41,5.1c6.19,1.71,7.94,8.92,3.62,13.71a61.528,61.528,0,0,1-8.36,7c-1.33,1-3.13,1.43-4.27-.19s-.44-3,1-4.14c2.15-1.68,4.32-3.35,6.38-5.14,1.63-1.4,3.06-3.11,1.17-5.22-2.09-2.34-3.62-.38-5.09,1-11.19,10.58-24.68,14-39.69,12.8-2.42-.2-5.9.3-5.9-3.06,0-3.88,3.59-2.33,5.83-2.39,4.11-.11,8.22.05,12.33-.11,2.14-.08,4.32-.92,4.28-3.48-.06-3.14-2.58-2.56-4.57-2.28-7.66,1.09-14.42-1.07-20.55-5.59-1.87-1.37-3.84-2.77-6.24-2.3-6.94,1.35-13.2,4.9-20.8,4.76-2.76-.05-.75,6.77-1.3,10.42-.42,2.81,1.7,2.79,3.55,2.59,6.1-.67,11.43,1.45,17,3.67,12.45,4.94,25.37,4.81,38.28,1.49,2.52-.65,5.85-2.8,6.85.94,1.05,3.9-3.39,3.74-5.64,4.37-14.47,4.06-29,3.9-42.76-2.27a34.12,34.12,0,0,0-16.55-2.67c-4.65.29-6.83-1.14-6.4-6.12a107.61,107.61,0,0,0,0-11.64c0-3.48-.54-7.14,4.84-7,2,.06,2.08-2.14,2.87-3.43,5.67-9.17,12.35-12.23,23.06-10.52,1.12.18,2.28.19,3.39.45,6.18,1.48,9-.42,8.16-7.22-.53-4.28-.1-8.67-.15-13-.09-6.54,2.26-14.71-9.44-13.22-1.6.21-3.58-1.75-5.23-2.93a2.32,2.32,0,0,1-.57-3.58c.92-1.13,2.14-1.68,3.57-.7,3.37,2.31,8.19,4.3,10.49,1.22,2.11-2.82-1.2-7.21-3.45-10.39-1.21-1.7-3-3.45-.68-5.2,2.66-2,4.24.56,5.38,2.33A106.418,106.418,0,0,1,118.72,100.84Zm12,11.44c3.39-.35,6.5-2.11,10-1.79,1.75.16,3.23.45,3.42,2.49s-1,2.83-2.9,2.93a9.82,9.82,0,0,0-3.38.3c-2.53,1.14-7.44.74-7.1,3.66.46,3.92,4.89,4.67,8.78,4.58a10.57,10.57,0,0,0,5.78-1.76c4-2.69,8.06-5.43,12.13-8.18a22.83,22.83,0,0,0-9.12-7.64c-8.08-4-14.43-2.46-18.86,4.34l-.19,1.66ZM83.58,156.64a7.22,7.22,0,0,0,2.12.53,5.58,5.58,0,0,0,2.52-.76c7.63-5.22,14.74-4.37,21.93,1.16A17.82,17.82,0,0,0,125,160.83c5.25-1.09,9.28.68,10.57,5.88.83,3.36,2.34,1.78,3.64,1.21a25.38,25.38,0,0,0,5.26-3.11c1.88-1.46,5.22-2.33,4.76-5.14-.48-3-3.15-4.81-6.24-5.58a36.93,36.93,0,0,1-14.42-7.31c-2.52-2-5.76-2.89-8.9-.8-6.14,4.07-12.7,3.81-19.64,2.6S87.1,149.51,83.58,156.64Z" fill="#425656"/>
    <text id="O" transform="matrix(0.467, -0.884, 0.884, 0.467, 24.58, 86.41)" fill="#798265" font-size="18" font-family="Montserrat-Bold, Montserrat" font-weight="700"><tspan x="0" y="0">O</tspan></text>
    <text id="R" transform="translate(31.72 72.97) rotate(-53.471)" fill="#798265" font-size="18" font-family="Montserrat-Bold, Montserrat" font-weight="700"><tspan x="0" y="0">R</tspan></text>
    <text id="G" transform="matrix(0.698, -0.716, 0.716, 0.698, 39.51, 62.24)" fill="#798265" font-size="18" font-family="Montserrat-Bold, Montserrat" font-weight="700"><tspan x="0" y="0">G</tspan></text>
    <text id="Á" transform="translate(49.2 52.26) rotate(-36.983)" fill="#798265" font-size="18" font-family="Montserrat-Bold, Montserrat" font-weight="700"><tspan x="0" y="0">Á</tspan></text>
    <text id="N" transform="matrix(0.872, -0.49, 0.49, 0.872, 60.09, 43.81)" fill="#798265" font-size="18" font-family="Montserrat-Bold, Montserrat" font-weight="700"><tspan x="0" y="0">N</tspan></text>
    <text id="I" transform="matrix(0.919, -0.395, 0.395, 0.919, 73.02, 36.79)" fill="#798265" font-size="18" font-family="Montserrat-Bold, Montserrat" font-weight="700"><tspan x="0" y="0">I</tspan></text>
    <text id="C" transform="matrix(0.955, -0.295, 0.295, 0.955, 78.27, 34.31)" fill="#798265" font-size="18" font-family="Montserrat-Bold, Montserrat" font-weight="700"><tspan x="0" y="0">C</tspan></text>
    <text id="O-2" data-name="O" transform="matrix(0.987, -0.163, 0.163, 0.987, 90.55, 30.29)" fill="#798265" font-size="18" font-family="Montserrat-Bold, Montserrat" font-weight="700"><tspan x="0" y="0">O</tspan></text>
  </g>
</svg>
