<svg xmlns="http://www.w3.org/2000/svg" viewBox="0 0 91.72 91.72"><defs><style>.cls-1{fill:#a5a593;}.cls-2{fill:#fff;}</style></defs><g id="Layer_2" data-name="Layer 2"><g id="Layer_1-2" data-name="Layer 1"><circle class="cls-1" cx="45.86" cy="45.86" r="45.86"/><path class="cls-2" d="M73.49,58.77a4.2,4.2,0,0,1-2.74.89q-24.9-.06-49.8,0C19,59.66,18.21,59,18.23,57q.09-11.2,0-22.41c0-1.79.58-2.68,2.48-2.62,2.66.07,5.32,0,8,0,.67,0,1.44,0,1.51.81.09,1-.76,1.05-1.5,1.06-2.37,0-4.74,0-7.11,0-1.11,0-1.5.31-1.5,1.46,0,7,0,13.94,0,20.91,0,.84,0,1.54,1.19,1.53,5.72,0,11.45,0,17.79,0-4-3.35-6.17-7.12-6.16-11.91s2-8.54,5.87-11.64c-1.55-.57-3-.19-4.31-.31-.64-.06-1.45,0-1.49-.87-.06-1,.78-1,1.52-1Q53,32,71.4,32c.9,0,1.41.56,2.09.89ZM52.56,33.89c4.15,3.38,6.22,7.15,6.24,11.92s-2.15,8.58-6.16,12c6.37,0,12.17,0,18,0,.92,0,1-.52,1-1.25q0-10.68,0-21.35c0-.87-.21-1.31-1.2-1.31C64.71,33.9,59,33.89,52.56,33.89ZM34.93,45.81c0,6.81,5.27,12.32,11.4,11.91S57.05,52,56.79,45.31c-.24-6.46-5.16-11.52-11.06-11.39C39.67,34.05,34.94,39.25,34.93,45.81Z"/><path class="cls-2" d="M25.94,69.8a2,2,0,0,1-2-1.34c-.66-1.88-1.24-3.8-1.89-5.68-.21-.62-.23-1.18.44-1.43s1.18.16,1.41.88c.37,1.16.91,2.27,1.16,3.45.37,1.71.94,2.21,2.82,1.52,5.36-2,10.82-3.67,16.24-5.48a10,10,0,0,1,1-.34c.62-.13,1.36-.38,1.58.53s-.42,1.14-1.06,1.35c-3,1-6,2-8.94,3s-6.08,2-9.13,3.06C27.05,69.48,26.5,69.63,25.94,69.8Z"/><path class="cls-2" d="M46.18,30.41c-.56,0-1,0-1.15-.58a.93.93,0,0,1,.58-1.22c.39-.16.8-.3,1.21-.44L64.08,22.4c2.76-.92,3.25-.68,4.19,2.12.41,1.21.89,2.41,1.2,3.65.18.72,1,1.78-.35,2.15s-1.26-.93-1.55-1.63a23.36,23.36,0,0,1-1.11-3.47c-.28-1.15-.84-1.32-1.91-.95C58.87,26.2,53.18,28.08,47.49,30Z"/><path class="cls-2" d="M21.83,38.09c.09-.62-.42-1.83.66-2.25a7.06,7.06,0,0,1,4.43,0,.78.78,0,0,1,.47,1.06.94.94,0,0,1-1.15.73c-2-.33-2.71.46-2.4,2.4a.94.94,0,0,1-.94,1.18c-.72,0-1-.5-1.06-1.11S21.83,38.93,21.83,38.09Z"/><path class="cls-2" d="M24.73,56.06c-2.62,0-4-2.54-2.77-5a1,1,0,0,1,1-.62,1,1,0,0,1,.88,1.26c-.29,1.81.28,2.68,2.25,2.32a1,1,0,0,1,1.33,1c0,.69-.57.94-1.19,1S25.23,56.06,24.73,56.06Z"/><path class="cls-2" d="M67.28,35.6c.78.12,2.09-.45,2.47.83a7.7,7.7,0,0,1,0,4.23.81.81,0,0,1-1,.5A.94.94,0,0,1,67.91,40c.29-1.88-.35-2.76-2.37-2.41a1,1,0,0,1-1.21-.91c0-.85.6-1.05,1.29-1.1C66.12,35.57,66.62,35.6,67.28,35.6Z"/><path class="cls-2" d="M69.92,53.21a3.25,3.25,0,0,1-5,2.69.93.93,0,0,1-.56-1,1,1,0,0,1,1.3-.81c1.94.36,2.56-.47,2.27-2.3-.1-.61.12-1.19.85-1.26s1.09.53,1.15,1.22C70,52.2,69.92,52.71,69.92,53.21Z"/><path class="cls-2" d="M46.8,40.67c0,1,.05,1.9,0,2.75A1.62,1.62,0,0,0,48,45.35a3.95,3.95,0,0,1-.13,7.43c-.9.28-1.38,2-2.44,1.1-1.46-1.22-3.69-1.73-4.09-4.07-.12-.72-.1-1.37.61-1.63s1.18.35,1.31,1a2.28,2.28,0,0,0,1.66,1.86c-.13-2,1-3.82-1.69-5.16a3.7,3.7,0,0,1-.08-6.54c1-.62,2.08-2.27,3.14-1.56,1.48,1,3.61,1.52,4.09,3.75.19.86.4,1.65-.58,2-.8.25-1.1-.47-1.25-1.13A1.94,1.94,0,0,0,46.8,40.67Zm-1.9-.05a2,2,0,0,0-1.65,2.17,1.74,1.74,0,0,0,1.65,1.73Zm2,10.41a2,2,0,0,0,1.65-2.16,1.74,1.74,0,0,0-1.65-1.73Z"/></g></g></svg>