<svg xmlns="http://www.w3.org/2000/svg" viewBox="0 0 91.72 91.72"><defs><style>.cls-1{fill:#a5a593;}.cls-2{fill:#fff;}</style></defs><g id="Layer_2" data-name="Layer 2"><g id="Layer_1-2" data-name="Layer 1"><circle class="cls-1" cx="45.86" cy="45.86" r="45.86"/><path class="cls-2" d="M35.82,17.91c.2,1.15-.11,1.82-1.45,1.74-1.16-.07-2.33,0-3.49,0-3.2,0-4.19,1-4.19,4.13q0,12.1,0,24.21V71.3c.64.45,1.21,0,1.59-.26a7.8,7.8,0,0,1,8.74.12,4,4,0,0,0,4.46-.06,8,8,0,0,1,8.75,0,3.9,3.9,0,0,0,4.45.07c3.45-2.33,6.82-1.32,10.35.63,0-4.1,0-7.85,0-11.6,0-.73-.34-1.91.74-2,1.27-.07,1,1.17,1,2,0,3.92,0,7.85,0,11.77,0,1.58-.49,2.25-2.08,1.44a6.4,6.4,0,0,1-.62-.2,8.59,8.59,0,0,0-9.52-.14,3.72,3.72,0,0,1-4.1,0,8.3,8.3,0,0,0-9.13,0A3.87,3.87,0,0,1,37,73c-3-1.83-5.86-1.57-9-.08s-3.13,1.28-3.13-2.18c0-15.35.06-30.69-.05-46,0-2.88.58-5.2,3.08-6.82Z"/><path class="cls-2" d="M63.75,17.91c2.45,1.63,3.12,3.92,3.07,6.81-.13,9.58,0,19.16,0,28.74a16.86,16.86,0,0,1-.06,1.74.81.81,0,0,1-.91.74c-.54,0-.74-.37-.75-.85s0-1,0-1.53V24.82c0-4.54-.63-5.19-5.07-5.19q-10,0-20,0c-1.12,0-2.49.15-1.49-1.72Z"/><path class="cls-2" d="M33.16,41.65c.4-1.56.44-2.45-1-3.24-1.87-1-1.68-4.47.17-5.52.49-.28,1.1-.32,1.28-1,0-.17.32-.43.44-.4,1.26.27,2,1.39,3,2a1.62,1.62,0,0,1,.47,2c-.34.88-1,.59-2.15-1-.21,1.31-.34,2.24,1.11,3,1.88,1,1.64,4.44-.25,5.49a3.06,3.06,0,0,0-1.26,1c-.46.73-1,.57-1.48-.15-.87-1.18-3.51-1.58-2.21-3.65C32.07,39.05,32.55,40.85,33.16,41.65Z"/><path class="cls-2" d="M33.22,61.69c.23-1.33.53-2.25-1-3-1.8-.85-1.78-4.23-.17-5.43.56-.42,1.15-.89,1.68-1.21,1.64-1,2.12,1.15,3.28,1.67A1.42,1.42,0,0,1,37.31,56c-1.14,1-1.14-.82-1.9-1-.3,1.21-.33,2.07,1.09,2.81,1.76.91,1.63,4.31,0,5.41-.47.32-1,.43-1.38,1-.53.89-1,.71-1.62,0-1-1.1-3.34-1.59-2.24-3.54C32,59.25,32.51,61.11,33.22,61.69Z"/><path class="cls-2" d="M46,26.32c-2.68,0-5.37,0-8.06,0-.65,0-1.68.31-1.69-.79s1-1,1.8-1c5.15,0,10.31,0,15.46,0,.75,0,1.84-.27,1.9.87.08,1.31-1.09.88-1.78.89C51.11,26.35,48.57,26.32,46,26.32Z"/><path class="cls-2" d="M53.08,56H59c.7,0,1.48.15,1.51.9.05.94-.8,1.06-1.56,1.06-3.85,0-7.7,0-11.54,0-.74,0-1.65,0-1.63-1s.94-1,1.67-1C49.3,56,51.19,56,53.08,56Z"/><path class="cls-2" d="M53.23,31.41h5.88c.59,0,1.3,0,1.34.73s-.62,1-1.36,1h-12c-.72,0-1.38-.16-1.32-1s.78-.71,1.34-.71Q50.18,31.39,53.23,31.41Z"/><path class="cls-2" d="M53,37.56c-1.89,0-3.78,0-5.67,0-.61,0-1.45.21-1.49-.77s.7-1,1.39-1c4,0,8,0,12,0,.64,0,1.24.11,1.28.84,0,1-.74.89-1.39.89Z"/><path class="cls-2" d="M52.84,53.3c-1.88,0-3.77,0-5.66,0-.61,0-1.44.16-1.39-.87,0-.76.65-.86,1.27-.86h12.2c.67,0,1.2.27,1.19,1s-.69.78-1.29.78Z"/><path class="cls-2" d="M50.64,42.08c-1.22,0-2.45,0-3.67,0-.62,0-1.22-.11-1.22-.88a.94.94,0,0,1,1-.9q4,0,8,0c.6,0,1.16.25,1.09,1s-.62.73-1.13.74C53.38,42.09,52,42.08,50.64,42.08Z"/><path class="cls-2" d="M50.88,60.65H54.8c.53,0,1.05.1,1.07.78a.86.86,0,0,1-1,.93c-2.69,0-5.37,0-8.06,0-.56,0-1-.23-1.05-.85-.07-.87.58-.86,1.17-.87Z"/></g></g></svg>