<svg xmlns="http://www.w3.org/2000/svg" viewBox="0 0 91.72 91.72"><defs><style>.cls-1{fill:#a5a593;}.cls-2{fill:#fff;}</style></defs><g id="Layer_2" data-name="Layer 2"><g id="Layer_1-2" data-name="Layer 1"><circle class="cls-1" cx="45.86" cy="45.86" r="45.86"/><path class="cls-2" d="M72.18,56.37l-.47.44s-.07.06-.09.09l-.5.45,0,0-.59.48s0,0,0,0l-.56.43a.81.81,0,0,0-.1.09l-.54.39-.07.05c-.22.15-.43.31-.66.45h0c-.22.15-.43.27-.65.41,0,0-.09.06-.12.09a5.82,5.82,0,0,1-.58.34.35.35,0,0,0-.1.08L65.66,61a.46.46,0,0,0-.14.07c-.2.1-.4.19-.59.3l-.15.07c-.48.24-1,.47-1.5.68a1.11,1.11,0,0,1-.16.07c-.2.09-.41.18-.63.26l-.18.07-.77.28h0c-.27.11-.54.2-.83.29l-.18.05-.64.22-.22.07-.71.21-.11,0c-.29.09-.56.16-.84.23l-.18.06a6.24,6.24,0,0,0-.68.18l-.25,0-.7.16-.18,0c-.29.07-.59.12-.88.18l-.18,0c-.23.06-.46.09-.71.13l-.27,0-.68.11a1.43,1.43,0,0,1-.23,0c-.31.06-.61.09-.92.13l-.16,0-.77.09a2.66,2.66,0,0,0-.28,0c-.24,0-.47.06-.68.07l-.27,0c-.31,0-.63.06-.93.07h-.11c-.29,0-.56,0-.84,0a1.42,1.42,0,0,0-.29,0c-.23,0-.46,0-.7,0H44.59l-.72,0a1.37,1.37,0,0,1-.28,0l-1,0h-.07c-.31,0-.59,0-.9-.08h-.28c-.24,0-.47,0-.7-.08l-.27,0L39.47,65l-.11,0-.82-.1a1.26,1.26,0,0,0-.27,0l-.68-.11a.91.91,0,0,0-.23,0l-.9-.16-.14,0-.75-.16-.27-.05-.67-.17-.21-.05-.86-.21a.47.47,0,0,0-.16,0l-.7-.2-.25-.07c-.21-.07-.43-.12-.64-.2l-.2-.05-.81-.27L30.64,63,30,62.78a1.7,1.7,0,0,0-.24-.09l-.62-.25a.48.48,0,0,1-.16-.08L28.21,62,28.05,62l-.59-.27-.22-.11c-.2-.09-.39-.19-.61-.28l-.14-.07c-.23-.13-.49-.24-.72-.36a1.29,1.29,0,0,0-.16-.09c-.18-.09-.36-.2-.54-.31l-.19-.1L24.3,60,24.2,60c-.22-.12-.43-.27-.65-.41l-.16-.11-.48-.32L22.73,59c-.18-.13-.36-.25-.54-.4l-.07,0c-.2-.15-.39-.31-.59-.45L21.39,58c-.15-.12-.29-.23-.43-.36a1.77,1.77,0,0,1-.17-.12c-.17-.14-.34-.29-.5-.45l0,0-.52-.49c-.06,0-.09-.09-.13-.12l-.37-.38-.15-.14L19,55.86c.16-.32.27-.43.45-.5.43-.16.66-.12,1.57.09a29.24,29.24,0,0,0,3.08.56c5.55.73,8,1,17.57.09a4.47,4.47,0,0,0,3.72-1.9,3,3,0,0,0,.18-.36,2,2,0,0,0,.18.36c.64,1.11,1.9,1.74,3.72,1.9,9.62.86,12,.64,17.57-.09a29.53,29.53,0,0,0,3.07-.56c.92-.21,1.13-.25,1.58-.09.25.09.34.25.61.86l-.09.09S72.2,56.35,72.18,56.37ZM73,35.44l.16.18c.16.19.34.37.5.57a.84.84,0,0,1,.15.18l.25.32a2.43,2.43,0,0,1,.14.2c.07.1.16.21.23.32a1.43,1.43,0,0,1,.14.2c.26.37.51.75.74,1.14a2,2,0,0,0,.11.2c.07.11.12.23.18.34l.1.21a3.65,3.65,0,0,0,.18.34l.09.2c.11.23.22.47.31.7a.46.46,0,0,0,0,.14c0,.11.09.24.12.34a1,1,0,0,1,.08.24l.1.34c0,.07.06.16.08.23a2.09,2.09,0,0,1,.08.34l.06.23c0,.22.09.41.12.63s0,.18.06.25,0,.21,0,.34,0,.18,0,.27a3.07,3.07,0,0,1,0,.34v0c-2.84-.42-7.37-.45-13.82,1.32A60,60,0,0,0,57,47.68a33.31,33.31,0,0,0,.34-7.55,15.7,15.7,0,0,1,1.4-6.72l.11-.26a1.59,1.59,0,0,1,.26-.52l.33,0q.35.06.69.09a7.58,7.58,0,0,0,3.28-.93,4.65,4.65,0,0,1,1.09-.36,6.66,6.66,0,0,0,1-.3A3.72,3.72,0,0,1,66.2,31a7.6,7.6,0,0,0,1.09-.19A25,25,0,0,1,73,35.44ZM62.15,23.64c.29-.23,1.06.11,1.94.86a5.27,5.27,0,0,0,.62.43c.59.36,1.79,1.09,1.92,1.66a.3.3,0,0,1-.07.27l0,.05a3.83,3.83,0,0,1-.7.92.86.86,0,0,0-.19.19c-.45.42-1,.86-1.24.81-.57-.12-1-.21-1.56-.38.29-1.25.74-1,1.49-.46a3,3,0,0,1-.07-.47l.64-.27-.73-.08c-.06-.49-.09-.94-.13-1.38a3.84,3.84,0,0,0-.28.8,2.7,2.7,0,0,1-.45.56c-.15-.13-.27-.27-.43-.4s-.47-.35-.7-.53a.55.55,0,0,0-.09.14c.68,1,.7,1.22-.12,2.17-.69.77-1.46,1.45-2.17,2.14.55.31,1.13.15,1.84-.66.88-1,.88-1,2.13-.54l.24.09c.53.22.8-.07,1.36-.34a6.32,6.32,0,0,1,1-.34h.08c.7-.15,1.13-.15,1.28,0s0,.09,0,.2c0,.48-.41.68-1.76.85a3.63,3.63,0,0,0-1,.2,4.1,4.1,0,0,1-.81.23,5.23,5.23,0,0,0-1.36.47,6.43,6.43,0,0,1-2.68.81,5,5,0,0,1-.54-.08c-.71-.12-1.36-.12-1.88,1.19l-.11.26a17.29,17.29,0,0,0-1.48,7.22c.21,3-.07,6.91-.59,8.25l-.52,1.31,1.29-.57c.12-.06,11.76-5.25,20.84-3.76v.41c-.09.8-.25,2-.5,3.24a16.19,16.19,0,0,1-3.59,6.27,1.8,1.8,0,0,0-1.07-1,2.48,2.48,0,0,0-.88-.16h0a5.74,5.74,0,0,0-1.34.21,29.81,29.81,0,0,1-3,.54c-5.46.71-7.83.93-17.31.09a3.36,3.36,0,0,1-2.83-1.35c-1-1.77.5-5.15,1.73-7.87.33-.72.65-1.4.88-2,1.49-3.74,3.06-7.11,4-9.13l.18-.37a21,21,0,0,1,3.58-5.57C58.75,26.91,61.44,24.23,62.15,23.64ZM45.82,25.45A47,47,0,0,1,57.3,26.83l-1,1.07a22,22,0,0,0-3.78,5.87l-.18.36c-1,2-2.52,5.42-4,9.18-.23.58-.53,1.24-.85,2a31.28,31.28,0,0,0-1.87,4.79,31,31,0,0,0-1.86-4.79c-.32-.7-.63-1.38-.86-2-1.5-3.76-3.08-7.16-4-9.18l-.18-.38a21.77,21.77,0,0,0-3.77-5.87c-.27-.3-.59-.63-.93-1A48.51,48.51,0,0,1,45.82,25.45Zm-22.45,3.4c.15-.13.58-.13,1.27,0l.17,0a4.37,4.37,0,0,1,1,.34c.56.27.83.56,1.36.34.07,0,.16,0,.24-.09,1.25-.44,1.25-.44,2.13.54.71.81,1.29,1,1.84.66-.7-.7-1.49-1.38-2.17-2.15-.82-.94-.8-1.18-.12-2.16l-.11-.15c-.23.18-.46.34-.68.54l-.43.4a2.18,2.18,0,0,1-.45-.56,3.13,3.13,0,0,0-.28-.81c0,.45-.09.9-.13,1.38l-.73.09.64.27-.05.43c.75-.5,1.2-.79,1.48.47-.55.16-1,.25-1.55.37-.25.06-.83-.43-1.29-.86a.71.71,0,0,0-.13-.12,2.3,2.3,0,0,0-.28-.27,5.55,5.55,0,0,1-.45-.66l0-.06a.3.3,0,0,1-.07-.27c.11-.55,1.31-1.28,1.9-1.64A6.38,6.38,0,0,0,27,24.5c.85-.74,1.64-1.09,1.93-.86.72.59,3.42,3.27,5.07,5a21.25,21.25,0,0,1,3.58,5.57l.18.37c.93,2,2.5,5.41,4,9.13.23.61.55,1.29.88,2,1.23,2.72,2.77,6.1,1.73,7.88A3.37,3.37,0,0,1,41.56,55c-9.49.84-11.85.63-17.31-.09a27.19,27.19,0,0,1-3-.54,3.53,3.53,0,0,0-2.22-.05,1.65,1.65,0,0,0-.86.68,15,15,0,0,1-3.69-8.13c0-.54,0-1,0-1.29,9.06-1.54,20.09,3.58,20.21,3.64l1.31.61-.52-1.35c-.52-1.34-.81-5.26-.59-8.25A17,17,0,0,0,33.45,33l-.1-.26c-.52-1.33-1.17-1.33-1.88-1.19a5,5,0,0,1-.54.08,6.23,6.23,0,0,1-2.69-.81,5.1,5.1,0,0,0-1.36-.47,6,6,0,0,1-.8-.23,3.79,3.79,0,0,0-1-.2c-1.34-.17-1.77-.37-1.77-.85C23.32,28.94,23.34,28.87,23.37,28.85Zm.86,2.08A6.88,6.88,0,0,0,25,31a3.14,3.14,0,0,1,.68.13,6.53,6.53,0,0,0,1,.3,4.58,4.58,0,0,1,1.1.36,7.48,7.48,0,0,0,3.27.93,4.19,4.19,0,0,0,.7-.09l.32,0s.11.07.29.52l.11.26a15.87,15.87,0,0,1,1.39,6.72,33.72,33.72,0,0,0,.34,7.53c-3.06-1.28-11.87-4.52-19.64-3.25a13.45,13.45,0,0,1,.41-2.35s0-.05,0-.07.06-.2.09-.29l.11-.32s0-.05,0-.09a13.11,13.11,0,0,1,.8-1.91.83.83,0,0,1,.07-.13l.06-.11c.05-.1.12-.21.18-.32h0A21.34,21.34,0,0,1,24.23,30.93Zm44.42-.81A1.57,1.57,0,0,0,69,29.06,1.38,1.38,0,0,0,68.54,28a1.68,1.68,0,0,0-1-.34.26.26,0,0,1,0-.09,1.37,1.37,0,0,0,.25-1.14c-.22-1.06-1.54-1.88-2.44-2.42a3.85,3.85,0,0,1-.48-.32c-1.81-1.54-2.85-1.33-3.4-.88s-1.78,1.64-3,2.92a48.87,48.87,0,0,0-25.59.11c-1.29-1.3-2.62-2.6-3.14-3s-1.59-.68-3.4.88l-.49.32c-.89.54-2.22,1.36-2.43,2.42a1.53,1.53,0,0,0,.25,1.14.26.26,0,0,1,.05.09,1.87,1.87,0,0,0-1,.34,1.26,1.26,0,0,0-.46,1.09,1.64,1.64,0,0,0,.55,1.26c-5.91,3.87-9.57,9.21-9.57,15.1v1.25c0,12.49,12.78,22.6,32.67,22.6s32.67-10.11,32.67-22.6V45.42C78.53,39.43,74.74,34,68.65,30.12Z"/></g></g></svg>