<svg xmlns="http://www.w3.org/2000/svg" viewBox="0 0 318.41 326.09"><defs><style>.cls-1{fill:#fff;}</style></defs><g id="Layer_2" data-name="Layer 2"><g id="Layer_1-2" data-name="Layer 1"><path class="cls-1" d="M287.53,326l-121.47,0c-15.5-1.08-23.37-14.7-35.06-22-4.13-2.58-1.9-8.84,4.71-9.74,6.31-.86,10.67,2.31,14.07,7.19,5.9,8.45,14.07,12,24.25,12q52.82-.15,105.65,0c8.66,0,15.71-2.24,16-12.41.29-9.79-5.73-13.65-14.82-13.74-4.75-.05-10.69.45-10.61-6.11.1-7.08,6.32-6.83,11.58-6.81,1.72,0,3.44,0,5.16,0,8.78.12,14.16-4.16,14.22-12.94.06-8.12-5.15-12.23-13.1-13-5.17-.51-13.16,1.91-12.92-6.31.25-8.8,8.58-6.46,14.17-6.46,9,0,15.61-3.23,15.66-12.91s-6.31-13.43-15.41-13.14c-4.61.14-9.38-.43-9.56-6-.21-6.5,5.05-7,10.06-6.85,9.28.2,15.29-4.07,14.9-13.56s-7.2-12.59-16.15-12.42c-14.6.28-29.2.31-43.8.18-18.36-.16-26.35-8.17-26.84-26.83-.31-11.6-.4-23.2-.42-34.8,0-6.7-1.61-12.78-6.29-17.72-6-6.31-14-7.23-21.5-5.38-7.88,2-3.16,9.36-3.63,14.27-.75,7.67-.25,15.46-.7,23.17C185.05,135,181,144,170.58,150.37c-12.47,7.61-20,19.58-25,33.3-4.43,12.17-10.24,22.8-26.16,21.92-7.93-.44-5.2,6.45-5.23,10.47-.21,30.07-.09,60.14-.12,90.21,0,16.16-.4,16.51-16.67,16.54-13.31,0-27.26,2.52-39.79-.61a207.43,207.43,0,0,0-52-6.3C2,315.93,0,313.44,0,310c0-4.17,2.77-6.26,6.6-6.37,9-.25,18-.43,27-.14,5.94.19,8.36-1.64,8.3-8q-.4-44.46,0-88.92c.08-6.73-2.8-7.86-8.45-7.64-8.15.31-16.32,0-24.48.1-4.86,0-9-1.45-9-6.82.06-5.73,4.73-6.2,9.34-6.14q11,.15,21.9,0c4.5,0,8.89,1,11.93-4.77,2.11-4,64.56-4.83,68-1.54,1.4,1.36,2.09,3.68,2.63,5.69.81,3-.77,7.2,4.74,7.42,4.62.18,8.71-.71,11.08-4.89A75.61,75.61,0,0,0,135,176.35c5.43-15,14.55-27.47,27.82-36,8-5.18,10.48-11.87,10.54-20.41.07-9.88.46-19.79-.09-29.64-.58-10.27,4.69-15,13.83-16.81,24.19-4.8,42.78,9.83,43.67,34.54.42,11.59.86,23.22.38,34.79-.5,11.94,4.76,16,16.23,15.53,14.15-.64,28.34-.38,42.51-.22,24.08.28,35.53,19.55,23.77,40.47-2.24,4-2.9,6.39.18,9.85a22.12,22.12,0,0,1,3.58,6.76c4.88,12.57-9,22.31-7.35,31.3,2.22,12,5.59,22.16-2.84,32.24-2.72,3.26-3.77,5.09-1.79,9.66C313.28,306.56,307.06,319,287.53,326Zm-232.9-75.9c0,8.14-.27,16.3.07,24.43.46,11.43-4.94,26.44,2.18,33.3s22.05,1,33.45,2.19c9.64,1.05,11.18-3.19,11-11.67-.51-23.56.1-47.15-.25-70.72-.17-11.85,5.32-28-2.3-34.36C91.55,187.32,75.89,192,64,191c-8.61-.74-9.75,3-9.54,10.31C55,217.56,54.63,233.85,54.63,250.14Z"/><path class="cls-1" d="M169.8,49.75c-.43,3.86-1.1,6.36-3.94,7.35-3.26,1.13-6,.17-7.67-2.84-6-10.85-12-21.71-17.79-32.68-1.48-2.79-1.39-6,1.34-8.2,2.08-1.69,4.94-2.79,6.94-.35C158,24.37,163.29,38,169.8,49.75Z"/><path class="cls-1" d="M256,21.45c-5.63,9.93-12.43,22.18-19.54,34.25-1.43,2.42-4.5,2.51-6.93,1.18-2.83-1.56-4.85-4.37-3.22-7.44q9.6-18,19.91-35.67c1.34-2.3,4.09-2.82,6.78-1.25C255.44,13.93,256.85,15.81,256,21.45Z"/><path class="cls-1" d="M202.74,25.12c0,5.95,0,11.91,0,17.86.05,4.46-1.56,7.7-6.42,7.61-4-.08-6.21-3-6.28-6.71-.2-12.33-.25-24.67,0-37,.08-4.28,2.45-7.25,7.32-6.83,4.39.37,5.39,3.45,5.38,7.21C202.73,13.21,202.74,19.16,202.74,25.12Z"/><path class="cls-1" d="M143.62,74.72c0,5.27-3.21,8.46-7.23,6.4-11.31-5.8-22.13-12.58-33-19.27-2.36-1.45-2.36-4.51-1.28-7s3.88-4.21,6.24-3.24c12.22,5,23.13,12.44,33.9,20C143.15,72.19,143.28,73.85,143.62,74.72Z"/><path class="cls-1" d="M294.6,57.25a20.17,20.17,0,0,1-.63,2.64c-1.18,3.13-32.05,22.21-35.64,22a6.51,6.51,0,0,1-6-4.11A5.23,5.23,0,0,1,254.43,71c10.08-6.42,20.19-12.84,30.64-18.61C289.64,49.86,293.21,52.28,294.6,57.25Z"/><path class="cls-1" d="M78.54,300.23c-4.24.13-6.93-1.82-7.19-5.76S74,288,77.66,287.82a5.66,5.66,0,0,1,6.12,5.29C84.27,297.24,82.36,299.55,78.54,300.23Z"/></g></g></svg>