<svg xmlns="http://www.w3.org/2000/svg" viewBox="0 0 53.21 51.05"><defs><style>.cls-1{fill:#fff;}</style></defs><g id="Layer_2" data-name="Layer 2"><g id="Layer_1-2" data-name="Layer 1"><path class="cls-1" d="M34.4,42c-1.31-5.39-8.79-9.2-10.29-9.91a4.45,4.45,0,0,1-1.89-1.6C12.5,14,1.83,19.53,1.72,19.59H1.64l-.06.09c-.15.22-3.62,5.46.22,12.55,2.41,4.52,5.61,6.14,8.22,7.45a9.59,9.59,0,0,1,3.45,2.43,30.37,30.37,0,0,0,8.84,7.54,11.12,11.12,0,0,0,5,1.4,6.77,6.77,0,0,0,5.59-2.94,7.51,7.51,0,0,0,1.66-4.25A6.76,6.76,0,0,0,34.4,42Zm-1.66,5a.22.22,0,0,1-.36,0l-.9-.83h0a.21.21,0,0,1-.09-.18.25.25,0,0,1,.09-.19,3.45,3.45,0,0,0,.93-1.41,3.11,3.11,0,0,1-1.61,1.1.32.32,0,0,1-.3-.06,21.49,21.49,0,0,0-2.86-1.85A17.35,17.35,0,0,1,32,47.7.24.24,0,0,1,32,48a5.79,5.79,0,0,1-4.64,2.25,10.36,10.36,0,0,1-4.61-1.32h0c-2.7-1.89-5-6-5-6h0A25.81,25.81,0,0,0,19.14,46a.24.24,0,0,1-.06.3.24.24,0,0,1-.3,0,29.7,29.7,0,0,1-4.62-4.69.64.64,0,0,0-.13-.15c-.08-.08.1-.19.1-.19h0a8.11,8.11,0,0,0,1.49-1.38,4.82,4.82,0,0,1-2.06,1,.22.22,0,0,1-.17-.05,14.71,14.71,0,0,0-3-1.81,16.83,16.83,0,0,1-6.8-5.39l-.08-.15s0-.1.1,0l.1.09h0A11.7,11.7,0,0,0,6,35.22a13.75,13.75,0,0,1-4.57-6.91.58.58,0,0,0-.08-.26l-.23-.83a10.77,10.77,0,0,1-.2-2,11.36,11.36,0,0,1,.57-3.16.23.23,0,0,1,.22-.17.24.24,0,0,1,.23.17,24.78,24.78,0,0,0,2.62,7,.2.2,0,0,1,0,.21,2.42,2.42,0,0,1-.94,1.06,2.16,2.16,0,0,0,1.2-.4.23.23,0,0,1,.32.07,13.74,13.74,0,0,0,6,5.25.25.25,0,0,1,.13.12.25.25,0,0,1,0,.17,3.24,3.24,0,0,1-1,1.38A3.25,3.25,0,0,0,12,35.74a.19.19,0,0,1,.21-.05c4.39,1.44,5.32,2.75,6.59,4.62a18.48,18.48,0,0,0,2.39,3,.29.29,0,0,1,0,.33,1.66,1.66,0,0,1-1.26.61A3.34,3.34,0,0,0,21.62,44a.21.21,0,0,1,.26,0A28,28,0,0,0,25,46.34a.24.24,0,0,1,.11.26,3.68,3.68,0,0,1-.83,1.66,3.57,3.57,0,0,0,1.43-1.18A.22.22,0,0,1,26,47c.74.46,1.54.92,2.49,1.41-5.56-4-7.66-6.63-9-8.55s-2.36-3.45-7-5a12.18,12.18,0,0,1-5.28-3.5.24.24,0,0,1,.1-.38,2.43,2.43,0,0,0,1.15-.83,3.79,3.79,0,0,1-1.82.31.3.3,0,0,1-.16-.05H6.39a19.64,19.64,0,0,1-2.65-5,.25.25,0,0,1,0-.19.24.24,0,0,1,.14-.12,2.89,2.89,0,0,0,1.5-.91,4.52,4.52,0,0,1-1.82.29.23.23,0,0,1-.21-.17,26.32,26.32,0,0,1-.89-3.81.36.36,0,0,1,.21-.37c1.71-.69,7.52-2.26,14,4.28h0a.24.24,0,0,1,0,.33.23.23,0,0,1-.32,0,17.43,17.43,0,0,0-5-2.33.22.22,0,0,1-.16-.24A2.41,2.41,0,0,0,11,20.92a2.15,2.15,0,0,1-.53,1.3.17.17,0,0,1-.19.06A13.34,13.34,0,0,0,8.09,22a19.41,19.41,0,0,1,6.41,2.58.45.45,0,0,1,.13.4,5.29,5.29,0,0,1-.39,1.66,3.26,3.26,0,0,0,.95-1.31.26.26,0,0,1,.16-.13.24.24,0,0,1,.2,0A26.57,26.57,0,0,1,21.63,31,5.07,5.07,0,0,0,23.86,33c.28.13,1.23.61,2.48,1.34a.26.26,0,0,1,.1.34,2.74,2.74,0,0,1-1,1A2.48,2.48,0,0,0,27,34.92a.21.21,0,0,1,.28,0,18.58,18.58,0,0,1,5.33,5l-.08-.06A8.19,8.19,0,0,0,29,37.74a10.1,10.1,0,0,1,4.85,6,1.67,1.67,0,0,1,.06.5A6.64,6.64,0,0,1,32.71,47Z"/><path class="cls-1" d="M26.29,39.23a0,0,0,0,1,0,0s0,0,0,0a3.13,3.13,0,0,0,.21-1.48,3.69,3.69,0,0,1-.73,1.24.07.07,0,0,1-.09,0l-.94-.43c-2.23-1-4.14-1.86-5.11-3.85l-.29-.47h0a.21.21,0,0,1,0-.24,2.75,2.75,0,0,0,.56-1.72,6.45,6.45,0,0,1-1,1.22l-.06,0a.05.05,0,0,1-.05,0,16.2,16.2,0,0,0-3-2.83.07.07,0,0,1,0-.06s0,0,0-.05a3.34,3.34,0,0,0,1.27-1.73A3.59,3.59,0,0,1,15.13,30,.15.15,0,0,1,15,30,45.37,45.37,0,0,0,9,26.6s1.21.7,2.74,1.76h0a0,0,0,0,1,0,.06,5.35,5.35,0,0,1-1.41,2.26,4.65,4.65,0,0,0,2.08-1.84.06.06,0,0,1,.09,0c.83.59,1.75,1.28,2.62,2h0a19,19,0,0,1,3,3.08.07.07,0,0,1,0,.1,3.55,3.55,0,0,1-1.58.65,4,4,0,0,0,1.73-.1.39.39,0,0,1,.43.23c0,.06.08.13.11.2,1.08,2.24,3.25,3.21,5.53,4.24l.58.24a.07.07,0,0,1,0,.11h0a7,7,0,0,1-1.74,1,3.84,3.84,0,0,0,2.49-.75.09.09,0,0,1,.07,0,15.37,15.37,0,0,1,4.61,2.36,12.54,12.54,0,0,0-4.1-3Z"/><path class="cls-1" d="M29.85,19.42a4.88,4.88,0,0,0,3-1,4.93,4.93,0,0,0,1.73-2.66c.83-3.64-.13-10.25-7-15.21h0A2.83,2.83,0,0,0,25.68,0,2.79,2.79,0,0,0,23.9.94,2.63,2.63,0,0,0,23.33,2c-1,3.62-1.47,11.68,3.37,16.19a4.55,4.55,0,0,0,3.15,1.24Zm-5.8-17A2.13,2.13,0,0,1,25.37.93a1.87,1.87,0,0,1,1.75.26c6.46,4.69,7.46,10.94,6.63,14.35a3.88,3.88,0,0,1-1,1.8A3.84,3.84,0,0,1,31,18.41a3.82,3.82,0,0,1-3.78-.83C22.85,13.45,23.12,6,24.06,2.46Z"/><path class="cls-1" d="M26.76,14.74l.06.09-.06-.1Z"/><path class="cls-1" d="M26.76,14.74c.06-2.1-1.58-5-1.59-5A16.22,16.22,0,0,0,26.76,14.74Z"/><path class="cls-1" d="M53.19,22.71a4.65,4.65,0,0,0-.78-2.31A4.83,4.83,0,0,0,45.79,19c-3.12,2-5.74,5.22-4.22,13.52a2.78,2.78,0,0,0,1.62,2,2.83,2.83,0,0,0,2.58-.14c3.22-1.94,7.79-5.14,7.42-11.72Zm-7.73,10.9a2.13,2.13,0,0,1-2,.19,1.89,1.89,0,0,1-1.11-1.4c-1.44-7.85.94-10.78,3.86-12.67h0a3.91,3.91,0,0,1,2.13-.64,4.06,4.06,0,0,1,1.83.45,3.85,3.85,0,0,1,1.51,1.32,3.89,3.89,0,0,1,.65,1.9c.37,6.08-3.77,9-6.88,10.85Z"/><path class="cls-1" d="M50.78,25.06a18.75,18.75,0,0,1-3,4.35C49.66,28.67,50.31,27.25,50.78,25.06Z"/><path class="cls-1" d="M51,23.86a1.8,1.8,0,0,0,0-1.57A2.48,2.48,0,0,0,51,23.86Z"/></g></g></svg>