<svg xmlns="http://www.w3.org/2000/svg" viewBox="0 0 382.16 312.17"><defs><style>.cls-1{fill:#fff;}</style></defs><g id="Layer_2" data-name="Layer 2"><g id="Layer_1-2" data-name="Layer 1"><path class="cls-1" d="M236.08,297.15C178.65,239.7,125.5,186.57,72.4,133.39c-22.84-22.87-22.8-31.66.14-54.67,22.41-22.48,44.77-45,67.4-67.24,5-4.92,9.05-13.68,17.65-11,9.26,2.91,11.95,12.4,14.61,20.83,1.08,3.42.93,7.3,1,11,.39,38.59,30.22,61.19,67.52,49.15,14.91-4.81,20.63-1.54,26,12.38,12,30.84,26.31,60.76,38.45,91.53,5.17,13.11,12,19.75,26.78,21.42,41.73,4.73,56.7,40,47.67,79-3.78,16.34-16.94,26-34.47,26.05q-130.62.45-261.25.21c-5.44,0-13.13,1.62-13-7.58s7.77-7.22,13.18-7.24C132.61,297.08,181.11,297.15,236.08,297.15ZM152.69,21.56c-4.61,4.37-9,9.34-14.19,13.3-12.76,9.76-14.32,17.62-1.58,30.5,15.19,15.35,17.54,36.36,7.32,55.51-6.07,11.38-2.6,16.59,4.95,23.93,23.83,23.17,49.43,45,70,70.87,32.42,40.6,71.55,59.57,123.17,50.57,8-1.39,20,5.4,23.12-4.9,2.9-9.59-2.87-20.11-10.64-27.79S338,221.94,327.05,222c-12.77.08-23.51-5-29.54-16.16-4.73-8.76-7.18-18-20.13-10.56-3.39,2-7.26-.57-8.43-4.73-1.5-5.29,1.85-8.32,6-10.26,5.76-2.67,9.92-4.73,5.89-12.81-3.54-7.09-6.79-8.39-13.42-4.7-4.11,2.29-8.51,2.38-11.38-2.58-2.95-5.13.16-8.19,3.79-11,4-3.1,12-2.27,8.18-12-4.07-10.32-9.47-8.61-17.07-5.25-3.66,1.62-7-.86-8.86-4.6-1.53-3.12-.52-5.78,1.83-7.85,5.28-4.68,16.48-5.91,8.83-17.53-6-9.13-13.4-2.8-19.79-2.15-44.31,4.53-75.43-23.54-75.07-68.31A10.81,10.81,0,0,0,152.69,21.56ZM362.34,281.61c-20,0-38.4-1-56.69.22-28.59,1.86-50.72-8-70.68-28.88-44.4-46.36-90.49-91.1-135.89-136.5-5.22-5.22-10.32-10.56-15.68-15.63-2.64-2.49-5.68-5-9.28-1.11-2.72,2.92-4.45,6.51-2,9.9a113,113,0,0,0,11.71,13.16c46.91,47,97,91.35,139.9,141.76,36.2,42.5,80.26,31.81,124.09,31.63C353.6,296.13,360.66,292.63,362.34,281.61ZM124.87,124.84C135,106.16,136,92.89,128.36,79.76c-3.94-6.8-9.51-16.93-16.2-15.52-7.31,1.55-14.55,9.92-19,17.08C87.84,90.07,99,92.9,102.91,98.2,108.94,106.38,115.81,114,124.87,124.84Z"/><path class="cls-1" d="M101.94,244.65c-11.8,0-23.61.06-35.41,0-4.59,0-9.23-.72-9.84-6.49-.72-6.84,4-9.21,9.6-9.26q36.52-.36,73,0c5,0,11.07.59,11,7.85,0,6.95-5.31,7.92-10.8,7.95C127,244.68,114.49,244.65,101.94,244.65Z"/><path class="cls-1" d="M43,161.07c-8.84-4.36-25.52,5.9-26-7.93-.46-14.76,16.28-7.84,25.05-7.73,9.65.12,27.42-6.78,27.61,6.91C69.93,167.89,51.9,156.19,43,161.07Z"/><path class="cls-1" d="M54.09,16.89c9.4,4.94,28.17-7.35,28.2,9.28,0,12.43-18.41,6.65-27.9,5.93C43.75,31.28,24.13,41.25,24,24.45,23.85,11.13,43.64,21.2,54.09,16.89Z"/><path class="cls-1" d="M16.89,228.57c7.45,2.05,18.58-3,18.38,8.08-.23,12.71-12.07,7.16-18.94,7.46-6.22.28-17.22,4.1-16.27-8C.93,225,11.94,231.6,16.89,228.57Z"/></g></g></svg>