<svg xmlns="http://www.w3.org/2000/svg" viewBox="0 0 431.97 310.46"><defs><style>.cls-1{fill:#fff;}</style></defs><g id="Layer_2" data-name="Layer 2"><g id="Layer_1-2" data-name="Layer 1"><path class="cls-1" d="M209.67,255.33c.89-11.27,5.75-12.63,13.65-5.15,6.91,6.54,13.39,13.53,20.34,20,4.26,4,9.19,7.07,14.75,1.91,6.11-5.66,3.43-11-1.22-15.84-6.21-6.45-12.78-12.55-19-19-3.3-3.44-8.76-7.1-3-12.36s9.07.7,12.48,3.83c6.18,5.67,12,11.74,18,17.64,4.64,4.6,9.77,8.71,15.83,2.81,5.68-5.52,3.2-11.11-1.67-16-6.32-6.32-12.72-12.58-19.06-18.89-3.23-3.21-7.05-7.13-3.29-11.38,4.77-5.38,9.09-.89,12.73,2.6,6.46,6.2,12.76,12.56,19.13,18.86,4.39,4.34,9.66,6.88,14.83,2.32,5.86-5.16,4-11-1-16q-19-19-38-37.92c-3.52-3.51-8.91-7.58-4.43-12.51,5.59-6.16,9.83.12,13.65,3.87,11.18,11,22.71,21.64,33.18,33.25,6.57,7.29,10.81,6.53,16.74-.37A220.47,220.47,0,0,1,344.42,177c4.05-3.63,7.93-12.16,14.73-5.11,5.81,6-1.78,9.75-5.23,13.44-6.87,7.35-14.24,14.24-21.36,21.37-5.85,5.84-12.72,10.9-13.16,20.41-.11,2.44-2.23,6.37-4.18,6.9-17.07,4.67-22,22.52-35.22,32.16-10,7.32-21.68,17.17-28.93,28.63-11,17.37-25.23,21.26-39.31,6.9-9.46-9.66-15.25-14.19-26.68-1.5-10.59,11.77-26.08,6.36-35.59-6.23s-21.81-23.56-33.61-34.45C104.54,249,95.71,236.11,82.8,227.15c-2-1.41-3.42-7.23-2.19-9.24,10.38-16.84-2.46-32-3-48-.56-15.7-14.68-26.78-25.49-30.26-19.54-6.29-29.14-21.7-43.16-33-2.62-2.1-3.6-7.54-8.93-5.22v-10c5.69-4.13,10.1-2.23,14.43,2.5,4.88,5.35,10.21,10.29,15.4,15.37,9.08,8.89,17.36,23,30.5,4.15,2-2.87,6-3.12,8.89-.28s2.65,6.63-.18,8.83c-9.85,7.65-2.18,12.21,2.86,16.84,11.65,10.68,22.89,20.87,19.74,39.41-1.08,6.35,2.35,14.35,12,6.76a21.28,21.28,0,0,1,2.91-1.66c16.48-9,23.88,10.42,36.26,11.56,16,1.46,23.85,7.19,26.69,23.39,2.07,11.84,11.55,21,22.11,27,5.36,3,10.7,5.71,15,10.19.9,4.27,3.62,9.18,2.38,12.71-4.44,12.62,5.05,17.94,11.72,24.77,4.8,4.92,10.46,6.8,16,1.06,5.06-5.3,2.38-10.35-1.86-14.55C226.56,271.23,218.06,263.34,209.67,255.33Zm-86.4-6.87c7.74.59,33.63-24.88,32.58-31.69-1.38-9-7.9-11.47-14.48-6.36a147.09,147.09,0,0,0-23.68,23.51C111.76,241.22,116.81,245.92,123.27,248.46Zm64.38,9.78c-7.6-.06-26.83,18.89-26.69,25.7.12,5.93,3.35,9.19,9.35,9.33,6.86.15,26.06-18.9,25.93-25.69C196.12,261.59,192.81,258.58,187.65,258.24Zm-15.8-12.34c-1-5.2-4.7-9.56-10.2-7.79-11,3.55-18.76,11.83-23,22.29-2.34,5.74,2.61,9.43,8,10.41C152.83,271.94,172.11,252.85,171.85,245.9ZM116.5,194.39C110.27,194,93.94,209,93.44,215.76c-.42,5.79,2.33,10.75,8.23,9.71,11.72-2.08,18.78-10.9,22.93-21.15C126.8,198.9,122.25,195.32,116.5,194.39Z"/><path class="cls-1" d="M432,124.86c-4.06,3.8-9.53,6.88-11.93,11.53-9.33,18.07-31.8,12.8-44.13,25.32-1.94,2-5.77.33-7.2-2.25-1.83-3.3-.68-6.77,2.35-8.87,9.92-6.89,5.24-11.77-1.4-17.8C352.27,117,335.1,100.88,318.47,84.26c-5.8-5.79-9.65-6.26-14.5.17-1.34,1.76-3.48,2.93-4.76,4.72-11.13,15.51-22.68,16.29-39.49,6.08-22.25-13.51-48.32-5.38-72.6-5.48-12.08,0-17.68,14.26-26.51,21.72-6.73,5.69-9.49,13.22-2.62,20.32,6.33,6.55,13.11,3.22,19.58-1.34,8.43-5.93,14.9-13.54,26.63-16.06,24.42-5.26,33.72,11.76,45.71,25.83,2.38,2.79,3.12,5.75.07,8.84s-6.11,2.28-8.8-.19c-5-4.54-9.91-9.11-14.44-14-9.88-10.75-20.68-8.75-31.51-2.27-4.77,2.85-8.57,7.24-13.17,10.41-12.24,8.42-26.06,7.25-34.73-3.46-8.94-11-8.7-22.6.76-33.33a209.2,209.2,0,0,1,17.75-17.86c6.63-5.88,8-9.92-1.76-13.87-9.23-3.73-19.35-5.78-26.63-13.65-4.29-4.64-6.78.54-9.26,3C117,74.69,106.1,86,94.65,96.69c-3.88,3.63-7.84,12.6-14.6,5.24-6.44-7,2.65-10.62,6.33-14.46,12.77-13.34,25.74-26.54,39.36-39,7.83-7.18,7.39-12.35-.41-18.83-6-5-11.23-10.91-16.73-16.5-3.23-3.27-6.73-7.15-2.12-11.28C110.87-2.1,115.19,1,118,4.58c10.52,13.31,31.21,20.46,26.79,43-.23,1.2,1.18,3.53,2.39,4.06C164.76,59.29,179,74.43,199,76.14c13.95,1.18,28.09.35,42.15.18a45,45,0,0,1,22.55,5.54c18.32,9.89,33.89.61,36.06-21,.32-3.17,1-7.08,3-9.18,16-16.46,32.29-32.62,48.61-48.75,3.05-3,6.91-4.17,10.45-.77,4,3.87,1.08,7.31-1.63,10.06-13,13.13-25.78,26.52-39.45,38.94-7.5,6.81-8.25,10.84-.15,18.12q34.35,30.9,67.05,63.57c7.46,7.45,11.13,6.13,18.41-.27s10.73-21.55,25.9-14.44Z"/></g></g></svg>