<svg xmlns="http://www.w3.org/2000/svg" viewBox="0 0 80.71 80.71"><defs><style>.cls-1{fill:#828662;}.cls-2{fill:#fff;}</style></defs><g id="Layer_2" data-name="Layer 2"><g id="Layer_1-2" data-name="Layer 1"><circle class="cls-1" cx="40.36" cy="40.36" r="40.36"/><path class="cls-2" d="M45.62,55.39C38.9,48.68,32.69,42.47,26.49,36.26c-2.67-2.68-2.66-3.7,0-6.39s5.23-5.26,7.87-7.86c.59-.57,1.06-1.6,2.06-1.28s1.4,1.45,1.71,2.43a4.25,4.25,0,0,1,.11,1.29c.05,4.5,3.54,7.15,7.89,5.74,1.75-.56,2.41-.18,3.05,1.45,1.4,3.6,3.07,7.09,4.49,10.69a3.38,3.38,0,0,0,3.13,2.5c4.87.56,6.62,4.67,5.57,9.24a3.89,3.89,0,0,1-4,3q-15.26.06-30.53,0c-.63,0-1.53.19-1.51-.88s.91-.85,1.54-.85C33.52,55.38,39.19,55.39,45.62,55.39Zm-9.75-32.2a20.41,20.41,0,0,1-1.66,1.55c-1.49,1.14-1.67,2.06-.18,3.57a5.31,5.31,0,0,1,.85,6.48c-.71,1.33-.3,1.94.58,2.8a92.71,92.71,0,0,1,8.19,8.28c3.78,4.75,8.36,7,14.39,5.91.93-.16,2.34.63,2.7-.57A3.49,3.49,0,0,0,59.5,48a4.41,4.41,0,0,0-3.25-1.35,3.66,3.66,0,0,1-3.46-1.89c-.55-1-.84-2.1-2.35-1.23-.4.23-.85-.07-1-.55s.21-1,.7-1.2c.67-.31,1.16-.56.69-1.5s-.79-1-1.57-.55a.88.88,0,0,1-1.33-.3c-.34-.6,0-1,.44-1.29s1.41-.26,1-1.4-1.11-1-2-.62c-.43.19-.83-.1-1-.53a.72.72,0,0,1,.21-.92c.62-.55,1.93-.69,1-2.05-.71-1.07-1.57-.33-2.32-.25-5.17.53-8.81-2.75-8.77-8A1.26,1.26,0,0,0,35.87,23.19Zm24.5,30.39c-2.34,0-4.49-.12-6.63,0a9.87,9.87,0,0,1-8.25-3.37C40.3,44.81,34.91,39.58,29.61,34.28,29,33.67,28.4,33,27.77,32.45c-.3-.29-.66-.58-1.08-.13s-.52.76-.23,1.16A13.24,13.24,0,0,0,27.83,35c5.48,5.49,11.33,10.67,16.34,16.56,4.23,5,9.38,3.72,14.5,3.7A1.75,1.75,0,0,0,60.37,53.58ZM32.62,35.26c1.19-2.19,1.29-3.74.41-5.27-.46-.8-1.11-2-1.9-1.81a4.27,4.27,0,0,0-2.21,2c-.63,1,.68,1.36,1.13,2C30.76,33.1,31.56,34,32.62,35.26Z"/><path class="cls-2" d="M29.94,49.26H25.8c-.53,0-1.08-.08-1.15-.75s.47-1.08,1.13-1.09c2.84,0,5.68,0,8.53,0,.59,0,1.29.07,1.29.92s-.62.92-1.26.93Z"/><path class="cls-2" d="M23.06,39.49c-1-.51-3,.69-3-.93s1.9-.91,2.93-.9,3.2-.79,3.23.81C26.2,40.29,24.09,38.92,23.06,39.49Z"/><path class="cls-2" d="M24.35,22.64c1.1.58,3.29-.86,3.29,1.09,0,1.45-2.15.78-3.26.69s-3.53,1.07-3.55-.89C20.82,22,23.13,23.15,24.35,22.64Z"/><path class="cls-2" d="M20,47.38c.87.24,2.17-.35,2.15.94,0,1.49-1.41.84-2.21.87s-2,.48-1.9-.93S19.42,47.73,20,47.38Z"/></g></g></svg>