<svg xmlns="http://www.w3.org/2000/svg" width="197.611" height="195.918" viewBox="0 0 197.611 195.918">
  <g id="vegano" transform="translate(-7.373 -0.8)">
    <path id="Path_1" data-name="Path 1" d="M145.81,65.21,135.31,74c-1.41,1.18-2.84,2.69-4.66.75s-.57-3.36.85-4.69A72.69,72.69,0,0,0,142.43,57c2.33-3.57,4.92-3.39,6.42.5,8.36,21.61,13.66,43.75,6.6,66.73-10.27,33.41-44.33,44.4-71.38,23.36-2.86,3.31-3.53,7.54-4.83,11.45-.57,1.73-1.37,3-3.31,2.44-1.72-.53-3-2.25-2-3.74,6.94-10.75,1.56-21.12.17-32C72.19,110.9,80.77,100,92.94,92.53c8.11-5,16.91-8.91,25.4-13.31,2-1,4.07-1.76,5.24.79,1,2.27-1,3.19-2.58,4-7.28,3.73-14.71,7.21-21.85,11.18-9,5-16.21,11.55-19,22.13-1.91,7.17-.4,13.42,3.33,20.46,12.57-13.9,30.37-20.5,42.33-34.5,1.31-1.53,3-2.61,4.68-1s.5,3.29-.68,4.76c-5.52,6.85-12.55,11.91-19.74,16.81-8.07,5.5-16.59,10.47-22.6,18.49,17.18,16.12,42.74,13.45,56-6,10.63-15.55,11-32.92,7.91-50.67a100.669,100.669,0,0,0-5.57-20.46Z" fill="#425656"/>
    <text id="V" transform="translate(23.78 71.35) rotate(-62.34)" fill="#798265" font-size="18.3" font-family="Montserrat-Bold, Montserrat" font-weight="700"><tspan x="0" y="0">V</tspan></text>
    <text id="E" transform="matrix(0.571, -0.821, 0.821, 0.571, 29.81, 59.84)" fill="#798265" font-size="18" font-family="Montserrat-Bold, Montserrat" font-weight="700"><tspan x="0" y="0">E</tspan></text>
    <text id="G" transform="translate(36.51 50.06) rotate(-47.68)" fill="#798265" font-size="18.3" font-family="Montserrat-Bold, Montserrat" font-weight="700"><tspan x="0" y="0">G</tspan></text>
    <text id="A" transform="matrix(0.769, -0.639, 0.639, 0.769, 45.71, 39.91)" fill="#798265" font-size="18" font-family="Montserrat-Bold, Montserrat" font-weight="700"><tspan x="0" y="0">A</tspan></text>
    <text id="N" transform="matrix(0.851, -0.526, 0.526, 0.851, 56.13, 31.19)" fill="#798265" font-size="18.3" font-family="Montserrat-Bold, Montserrat" font-weight="700"><tspan x="0" y="0">N</tspan></text>
    <text id="O" transform="translate(68.3 23.6) rotate(-22.973)" fill="#798265" font-size="18.3" font-family="Montserrat-Bold, Montserrat" font-weight="700"><tspan x="0" y="0">O</tspan></text>
    <path id="circle" d="M64.68,39.74A85.64,85.64,0,1,1,54.49,48.8" fill="none" stroke="#425656" stroke-linecap="round" stroke-miterlimit="10" stroke-width="6"/>
  </g>
</svg>
