<svg xmlns="http://www.w3.org/2000/svg" width="197.061" height="201.982" viewBox="0 0 197.061 201.982">
  <g id="vegetariano" transform="translate(-7.373 -24.39)">
    <path id="circle" d="M64.69,69.54a85.45,85.45,0,1,1-10.2,9" fill="none" stroke="#425656" stroke-linecap="round" stroke-miterlimit="10" stroke-width="6"/>
    <path id="Path_7" data-name="Path 7" d="M112.93,164.32c0-6.39-.14-12.07.06-17.74.08-2.44-1.21-3.55-2.81-5-9-8.13-11-18.39-5.78-29.73,6.95-15.2,24.87-24.2,43.52-21.73a77.86,77.86,0,0,1,16.61,3.75c3.71,1.37,5.06,3.3,1.36,6.19a39,39,0,0,0-9.19,10.05c-1,1.6-2.54,2.92-4.52,1.41-1.63-1.25-1-3-.12-4.33,2-3,4.24-5.83,6.41-8.76-16.92-7-37.88-1.67-46.8,11.74-6.26,9.41-5.82,19,1.4,26.13,2.21-6.05,3.52-12.42,7.84-17.33a44.61,44.61,0,0,1,5-4.63c1.57-1.3,3.29-1.77,4.66.28,1.2,1.81,0,3-1.34,4-5.91,4.33-8.13,10.68-10,17.39-1.06,3.81.66,4.83,3.72,5.5,7.83,1.71,16.51-3.77,21.15-13,1.21-2.39.82-8,5.42-5.85,4.06,1.87.54,5.69-.59,8.22-5.56,12.43-15.48,17.53-30.35,15.72v46.56c0,2.22-.55,4.48-3.13,4.39-2.24-.08-2.5-2.28-2.49-4.21s-.16-4.13,0-6.17c.7-7.72-1.84-14.32-7.07-20.62-5.34,4.77-11.35,8-18.85,6.45-7.16-1.46-12-6.2-16.43-11.55-2.92-3.52-5.94-6.84-10.78-7.95-3.31-.75-3.51-2.82-1.66-5.63,7.42-11.24,28.71-17.09,40.71-11.05,7.89,4,11.76,11.26,10.61,20.27C109.13,159.86,108.35,162.6,112.93,164.32Zm-48-15.14c5.68,3.17,9.13,8,13.15,12.38,6.07,6.54,13.43,8.05,19.58,4.36,3.42-2,4.89-4.13.51-6.8-3.3-2-6.51-4.11-10.35-5-2.17-.51-5.14-.95-4.22-4s3.85-1.66,5.89-1.24c5.15,1.09,9.34,4.36,14.23,7.12,1.14-6.77-1.7-11-6.85-13.85-8.6-4.81-21.82-1.96-31.94,7.03Z" fill="#425656"/>
    <text id="V" transform="translate(23.78 101.14) rotate(-62.34)" fill="#798265" font-size="18.3" font-family="Montserrat-Bold, Montserrat" font-weight="700"><tspan x="0" y="0">V</tspan></text>
    <text id="E" transform="matrix(0.571, -0.821, 0.821, 0.571, 29.81, 89.63)" fill="#798265" font-size="18.3" font-family="Montserrat-Bold, Montserrat" font-weight="700"><tspan x="0" y="0">E</tspan></text>
    <text id="G" transform="translate(36.51 79.85) rotate(-47.68)" fill="#798265" font-size="18.3" font-family="Montserrat-Bold, Montserrat" font-weight="700"><tspan x="0" y="0">G</tspan></text>
    <text id="E-2" data-name="E" transform="translate(45.76 69.74) rotate(-40.539)" fill="#798265" font-size="18.3" font-family="Montserrat-Bold, Montserrat" font-weight="700"><tspan x="0" y="0">E</tspan></text>
    <text id="T" transform="matrix(0.841, -0.542, 0.542, 0.841, 54.78, 62.01)" fill="#798265" font-size="18.3" font-family="Montserrat-Bold, Montserrat" font-weight="700"><tspan x="0" y="0">T</tspan></text>
    <text id="A" transform="matrix(0.892, -0.453, 0.453, 0.892, 63.39, 56.21)" fill="#798265" font-size="18.3" font-family="Montserrat-Bold, Montserrat" font-weight="700"><tspan x="0" y="0">A</tspan></text>
    <text id="R" transform="translate(75.51 50.04) rotate(-19.16)" fill="#798265" font-size="18.3" font-family="Montserrat-Bold, Montserrat" font-weight="700"><tspan x="0" y="0">R</tspan></text>
    <text id="I" transform="translate(87.99 45.88) rotate(-13.63)" fill="#798265" font-size="18.3" font-family="Montserrat-Bold, Montserrat" font-weight="700"><tspan x="0" y="0">I</tspan></text>
    <text id="A-2" data-name="A" transform="matrix(0.99, -0.138, 0.138, 0.99, 93.49, 44.33)" fill="#798265" font-size="18.3" font-family="Montserrat-Bold, Montserrat" font-weight="700"><tspan x="0" y="0">A</tspan></text>
    <text id="N" transform="translate(106.93 42.39)" fill="#798265" font-size="18.3" font-family="Montserrat-Bold, Montserrat" font-weight="700"><tspan x="0" y="0">N</tspan></text>
    <text id="O" transform="translate(121.27 42.38) rotate(8.65)" fill="#798265" font-size="18.3" font-family="Montserrat-Bold, Montserrat" font-weight="700"><tspan x="0" y="0">O</tspan></text>
  </g>
</svg>
